<ttFont>
          <CharString index="0">
            -104 callgsubr
            -126 hmoveto
            -107 callgsubr
            return
          </CharString>
          <CharString index="1">
            36 59 21 56 7 58 -22 6 -32 1 -22 -3 -5 -54 -13 -54 -22 -61 rrcurveto
            -5 18 15 -3 19 hhcurveto
            return
          </CharString>
          <CharString index="2">
            rmoveto
            9 12 1 2 8 hvcurveto
            22 49 23 30 54 49 -9 9 -12 11 -19 9 -42 -31 -25 -25 -21 -31 -22 31 -23 23 -43 32 -19 -8 -11 -10 -11 -11 49 -45 29 -31 22 -52 rrcurveto
            -1 9 12 -1 8 hhcurveto
            return
          </CharString>
          <CharString index="3">
            rmoveto
            111 3 119 7 124 18 2 17 -2 29 -5 19 -91 -20 -90 -9 -103 -3 -17 113 -11 109 -7 84 -48 callgsubr
            rrcurveto
            166 callgsubr
            94 16 99 9 113 1 rrcurveto
            4 19 2 22 24 vvcurveto
            -161 -4 -106 -17 -132 -23 3 -188 26 -285 39 -259 rrcurveto
            endchar
          </CharString>
          <CharString index="4">
            151 -155 rmoveto
            -16 16 -24 13 -21 4 rrcurveto
            -69 -19 -61 -58 -54 hhcurveto
            -67 -34 81 95 323 callgsubr
            16 hvcurveto
            -15 43 46 -7 41 hhcurveto
            47 41 3 11 31 hvcurveto
            12 32 12 48 54 vvcurveto
            81 -45 58 -83 -134 -91 -167 -142 -128 56 -104 118 93 84 82 66 22 vhcurveto
            endchar
          </CharString>
          <CharString index="5">
            rmoveto
            220 -78 119 -148 -169 -113 -170 -224 -204 88 -155 142 208 70 246 168 vhcurveto
            -82 -17 rmoveto
            -161 -53 -177 -135 -113 -42 170 142 192 79 129 107 102 55 -82 -213 vhcurveto
            endchar
          </CharString>
          <CharString index="6">
            vvcurveto
            42 -16 34 -29 27 vhcurveto
            26 -4 25 -5 24 -5 49 callsubr
            10 6 flex1
            19 -69 -95 16 -116 hhcurveto
            -117 -82 -16 -19 -77 270 callgsubr
            10 48 9 56 6 rrcurveto
            35 -20 23 -28 -34 80 callsubr
            17 -35 hhcurveto
            -52 -42 -38 -62 -65 46 -41 56 41 35 23 35 21 hvcurveto
            return
          </CharString>
          <CharString index="7">
            -1 callgsubr
            -76 hhcurveto
            -87 -100 -14 -16 -61 -44 callgsubr
            -13 2 -11 -8 flex1
            13 62 96 13 86 hhcurveto
            return
          </CharString>
          <CharString index="8">
            98 -5 90 -12 59 -13 rrcurveto
            -45 callsubr
            19 -75 -133 18 -133 hhcurveto
            -120 -117 -20 -17 -68 -75 callsubr
            15 70 return
          </CharString>
          <CharString index="9">
            125 -22 114 -24 97 vhcurveto
            -31 -2 -29 -5 -25 -8 rrcurveto
            31 -120 17 -108 -142 vvcurveto
            -202 -50 -137 -102 -77 -39 77 235 109 18 117 26 110 vhcurveto
            2 -7 -10 2 -15 hhcurveto
            -12 -21 -2 -4 -12 hvcurveto
            -24 -70 -27 -148 -138 vvcurveto
            -256 71 -96 115 return
          </CharString>
          <CharString index="10">
            rmoveto
            25 6 33 17 12 11 -74 165 -67 108 -58 68 rrcurveto
            101 58 48 76 98 vvcurveto
            110 -75 81 -139 -75 -79 -26 -41 -58 vhcurveto
            21 -189 3 -96 -190 vvcurveto
            -86 -3 -60 -5 -83 vhcurveto
            17 -5 31 -1 18 2 9 95 5 95 3 94 39 10 42 13 36 16 74 -101 48 -93 68 -152 rrcurveto
            -306 422 rmoveto
            93 -4 83 -9 114 vhcurveto
            18 35 40 11 42 hhcurveto
            88 53 -50 -98 -113 -75 -75 -170 -42 hvcurveto
            20 0 20 19 vvcurveto
            return
          </CharString>
          <CharString index="11">
            52 -17 -35 30 -52 hhcurveto
            -46 -48 -10 -6 -23 -44 callgsubr
            -10 258 callsubr
            6 20 41 8 48 hhcurveto
            31 23 -8 -14 15 hvcurveto
            -74 -20 -41 -73 -63 vvcurveto
            -59 35 -26 40 36 26 23 32 17 vhcurveto
            -34 16 27 -22 37 hhcurveto
            48 29 37 55 hvcurveto
            return
          </CharString>
          <CharString index="12">
            87 35 50 44 44 hhcurveto
            48 18 -37 -82 -103 -14 -104 -20 -110 hvcurveto
            19 -6 29 -6 23 -1 rrcurveto
            12 46 27 150 131 vvcurveto
            141 -43 47 -76 -51 -50 -31 -78 -47 vhcurveto
            3 41 2 39 3 29 rrcurveto
            3 -15 -12 1 -12 hhcurveto
            -20 -20 -4 -7 -13 hvcurveto
            -166 9 -261 8 -128 vhcurveto
            return
          </CharString>
          <CharString index="13">
            6 2 -38 callsubr
            -52 callsubr
            return
          </CharString>
          <CharString index="14">
            -10 -22 -22 -8 -21 hhcurveto
            -37 -39 26 49 43 22 24 32 34 25 -25 -34 3 hvcurveto
            21 6 22 19 11 18 rrcurveto
            45 -17 -45 33 -49 hhcurveto
            -75 -46 -53 -66 -66 48 -44 60 -13 hvcurveto
            -37 -24 -31 -25 -23 -24 2 -26 8 -24 23 -26 return
          </CharString>
          <CharString index="15">
            rmoveto
            8 215 -1 140 152 vvcurveto
            69 -1 57 -4 64 vhcurveto
            2 -11 -9 1 -12 hhcurveto
            -21 -17 -5 -8 -15 hvcurveto
            16 -216 4 -240 -3 -239 24 1 28 3 14 4 rrcurveto
            endchar
          </CharString>
          <CharString index="16">
            rmoveto
            12 27 6 26 1 27 -129 -9 -141 3 -151 15 212 225 134 169 101 157 3 8 6 40 1 9 -152 22 -134 20 -160 33 -14 -23 -7 -23 -1 -28 108 -19 114 -16 151 -14 rrcurveto
            -77 -134 -130 -174 -228 -238 -4 -18 -2 -24 1 -22 131 -21 177 -17 172 -1 rrcurveto
            endchar
          </CharString>
          <CharString index="17">
            -99 callsubr
            116 18 118 -71 callgsubr
            return
          </CharString>
          <CharString index="18">
            17 -42 hhcurveto
            -73 -45 -45 -63 -25 hvcurveto
            -44 19 -42 26 -29 24 -13 -19 -8 -21 -7 -24 33 -23 45 -23 48 -18 rrcurveto
            -6 -28 -2 -30 -29 vvcurveto
            -87 49 -61 71 3 vhcurveto
            53 2 42 39 40 44 rrcurveto
            8 -31 5 -37 -42 vvcurveto
            -108 -46 -62 -87 -125 -89 114 293 -79 vhcurveto
            -18 -6 -18 -7 -17 -9 rrcurveto
            -223 57 87 -233 201 hhcurveto
            -32 callgsubr
            return
          </CharString>
          <CharString index="19">
            rmoveto
            -22 62 -13 54 -5 54 -22 3 -33 -1 -21 -7 7 -59 23 -56 34 -58 19 1 15 3 18 4 rrcurveto
            return
          </CharString>
          <CharString index="20">
            -39 129 hintmask 11000000
            404 151 rmoveto
            -22 60 -5 94 66 vvcurveto
            69 5 47 12 57 vhcurveto
            hintmask 10100000
            27 -5 25 -4 21 -100 callsubr
            32 33 -2 -4 32 hvcurveto
            -1 -5 -1 -5 -1 -6 -121 -40 -124 -65 -61 -55 2 -21 7 -20 25 -20 rrcurveto
            hintmask 11000000
            106 -17 90 -53 72 -103 rrcurveto
            24 28 3 8 18 hvcurveto
            return
          </CharString>
          <CharString index="21">
            0 -11 2 -13 -8 flex1
            return
          </CharString>
          <CharString index="22">
            rmoveto
            -19 -17 -5 -9 -15 hvcurveto
            -26 -136 -6 -204 23 -165 rrcurveto
            -1 5 6 -1 9 hhcurveto
            14 16 3 5 10 hvcurveto
            -11 175 15 206 24 128 rrcurveto
            3 -10 -9 1 -9 hhcurveto
            endchar
          </CharString>
          <CharString index="23">
            7 2 319 callsubr
            -1 10 -83 callgsubr
            return
          </CharString>
          <CharString index="24">
            83 92 -13 -13 50 16 callsubr
            16 -47 -95 14 -81 -23 callsubr
            return
          </CharString>
          <CharString index="25">
            363 365 rmoveto
            -46 -38 18 23 -25 hvcurveto
            4 13 2 15 15 vvcurveto
            47 -18 36 -26 28 vhcurveto
            1 18 20 0 20 hhcurveto
            35 34 -1 -3 31 hvcurveto
            60 -9 36 -36 -55 vvcurveto
            259 callgsubr
            -230 -2 rmoveto
            -34 -21 20 30 26 18 25 32 27 25 -18 294 callgsubr
            -24 -17 -30 hhcurveto
            return
          </CharString>
          <CharString index="26">
            rmoveto
            -21 17 -20 9 -19 6 -118 -294 -97 -210 -146 -279 15 -10 13 -12 23 -6 153 285 104 213 113 281 rrcurveto
            return
          </CharString>
          <CharString index="27">
            -65 -62 -26 -51 hhcurveto
            -40 -29 21 48 28 11 32 12 22 74 callsubr
            -16 -33 -16 -38 -39 vvcurveto
            -70 44 -50 return
          </CharString>
          <CharString index="28">
            87 -79 70 -138 30 vhcurveto
            2 28 3 28 3 33 98 -7 77 -13 59 -22 callsubr
            22 -83 -146 21 -194 hhcurveto
            -194 -141 -21 -22 -84 -101 callgsubr
            36 8 45 8 54 7 46 return
          </CharString>
          <CharString index="29">
            rmoveto
            -1 -33 7 -20 12 -18 rrcurveto
            -26 20 30 -16 43 hhcurveto
            44 32 13 27 16 hvcurveto
            12 21 5 27 -3 35 -18 3 -21 0 -15 -4 rrcurveto
            -42 11 -13 -30 -49 hhcurveto
            -52 -11 26 44 5 hvcurveto
            -17 1 -20 -2 -17 -6 rrcurveto
            return
          </CharString>
          <CharString index="30">
            rmoveto
            -52 -43 63 132 141 41 62 75 14 15 -2 -4 12 hvcurveto
            19 -65 13 -79 3 -110 rrcurveto
            -81 -19 -28 -57 -50 hhcurveto
            -24 -309 rmoveto
            83 116 73 343 110 -16 132 -18 79 hvcurveto
            17 -35 -43 10 -38 hhcurveto
            -119 -82 -95 -168 -153 64 -97 101 44 36 23 58 28 hvcurveto
            -220 -10 -57 -56 -49 hhcurveto
            -51 -28 38 97 -14 hvcurveto
            -26 -6 -25 -11 -20 -14 rrcurveto
            -64 10 39 -96 110 hhcurveto
            endchar
          </CharString>
          <CharString index="31">
            -16 -19 -77 -96 callgsubr
            return
          </CharString>
          <CharString index="32">
            -41 callgsubr
            -9 -86 callsubr
            return
          </CharString>
          <CharString index="33">
            -5 rrcurveto
            2 8 3 296 callsubr
            -2 216 callgsubr
            -56 -82 14 -95 hhcurveto
            -103 -94 -14 -17 -56 49 callgsubr
            -11 -10 flex1
            return
          </CharString>
          <CharString index="34">
            -39 callgsubr
            -12 2 -12 -10 flex1
            return
          </CharString>
          <CharString index="35">
            1 21 3 10 16 8 9 5 14 5 22 66 callgsubr
            -43 -9 -30 -13 -15 -8 rrcurveto
            -23 -14 -6 -17 -29 vvcurveto
            -7 0 -9 1 -11 vhcurveto
            89 -29 -56 55 -78 hhcurveto
            -87 -59 -75 -96 -92 58 -59 67 57 44 42 59 17 -3 16 -7 14 hvcurveto
            -15 12 -28 10 -24 2 rrcurveto
            11 -17 9 -23 -19 vvcurveto
            -30 -17 -25 -31 -33 -30 27 53 66 40 46 54 return
          </CharString>
          <CharString index="36">
            -94 248 callgsubr
            4 -17 hvcurveto
            -78 callgsubr
            return
          </CharString>
          <CharString index="37">
            6 2 365 callsubr
            -52 callsubr
            return
          </CharString>
          <CharString index="38">
            79 111 73 342 110 -15 132 -19 79 hvcurveto
            -30 5 -34 -8 -20 -15 23 -74 17 -92 1 -138 rrcurveto
            -77 -28 -33 -33 -39 hhcurveto
            -62 -30 77 89 86 10 61 33 122 hvcurveto
            -21 7 -28 5 -22 1 rrcurveto
            -31 -99 -19 -71 -114 vvcurveto
            -144 65 -85 84 44 41 23 55 34 vhcurveto
            -208 -10 -51 -54 -45 hhcurveto
            -47 -24 39 97 -14 hvcurveto
            -26 -6 -24 -11 -21 -14 rrcurveto
            return
          </CharString>
          <CharString index="39">
            124 -54 rmoveto
            16 157 21 189 -2 196 14 18 24 14 36 10 6 18 1 30 -7 11 -28 -7 return
          </CharString>
          <CharString index="40">
            hhcurveto
            -90 -80 -63 -75 -49 hvcurveto
            4 336 callsubr
            52 -13 72 -28 -46 vvcurveto
            -16 -7 -14 -11 -10 vhcurveto
            -5 -3 -5 -4 -5 -3 12 -22 18 -19 21 -14 77 59 84 85 53 69 return
          </CharString>
          <CharString index="41">
            101 callgsubr
            63 193 52 hintmask 11101100
            119 callsubr
            -18 65 -7 98 -1 82 rrcurveto
            -57 28 43 -32 50 hhcurveto
            74 -75 callgsubr
            -44 -46 36 67 -22 hvcurveto
            1 92 7 64 14 83 rrcurveto
            hintmask 11110000
            -99 callsubr
            return
          </CharString>
          <CharString index="42">
            hhcurveto
            -102 -86 -14 -17 -43 hvcurveto
            -3 -8 -1 259 callsubr
            1 -8 -11 flex1
            return
          </CharString>
          <CharString index="43">
            5 -8 12 -11 9 -7 rrcurveto
            7 12 10 3 14 hhcurveto
            26 18 -18 -24 -28 -18 -16 -30 -28 -22 20 30 -10 hvcurveto
            -16 -6 -11 -7 -15 -10 rrcurveto
            return
          </CharString>
          <CharString index="44">
            -71 50 -42 65 31 31 11 20 23 vhcurveto
            8 14 4 19 16 vvcurveto
            11 -1 9 -5 7 vhcurveto
            -18 -15 -26 -24 -37 hhcurveto
            -31 -24 17 39 82 101 102 66 34 24 -27 -50 -153 -8 -173 -18 -126 hvcurveto
            57 -22 -29 29 -49 hhcurveto
            return
          </CharString>
          <CharString index="45">
            257 callsubr
            -40 34 -55 46 -62 45 -6 41 rlinecurve
            8 66 78 6 79 hhcurveto
            134 116 -16 -16 67 hvcurveto
            4 14 3 29 -7 16 rrcurveto
            20 -63 -120 16 -131 hhcurveto
            -133 -129 -16 -20 -79 hvcurveto
            -9 -13 3 -29 6 -17 10 2 11 2 11 2 19 -54 92 -44 52 -40 340 callgsubr
            -25 11 -25 28 -21 return
          </CharString>
          <CharString index="46">
            -10 callgsubr
            149 callgsubr
            return
          </CharString>
          <CharString index="47">
            235 callsubr
            -33 123 hintmask 11000000
            404 -4 rmoveto
            -22 79 -5 362 callgsubr
            15 84 vhcurveto
            hintmask 10100000
            25 -4 24 -4 21 -100 callsubr
            33 34 -2 -4 33 hvcurveto
            -3 -15 -2 -15 -2 -16 -121 -54 -122 -88 -61 -73 2 -27 8 -23 23 -26 rrcurveto
            hintmask 11000000
            -22 callgsubr
            -89 189 -56 callsubr
            return
          </CharString>
          <CharString index="48">
            13 217 callsubr
            -2 12 -83 callgsubr
            return
          </CharString>
          <CharString index="49">
            vvcurveto
            49 0 37 1 32 vhcurveto
            100 -17 76 -33 -60 vvcurveto
            -43 -37 -40 -62 -22 vhcurveto
            11 -30 22 -21 19 -4 rrcurveto
            47 26 45 63 65 vvcurveto
            return
          </CharString>
          <CharString index="50">
            vhcurveto
            55 -7 46 -8 38 -8 rrcurveto
            2 7 3 319 callsubr
            138 callgsubr
            22 -84 -145 21 -194 hhcurveto
            -205 -152 -20 -23 -89 -101 callgsubr
            return
          </CharString>
          <CharString index="51">
            rmoveto
            142 callsubr
            -54 93 -76 58 -80 34 60 62 91 63 67 32 rrcurveto
            -7 -73 -4 -75 -88 vvcurveto
            return
          </CharString>
          <CharString index="52">
            hvcurveto
            -4 90 callsubr
            -11 2 -12 -10 flex1
            return
          </CharString>
          <CharString index="53">
            2 314 callgsubr
            10 -83 callgsubr
            return
          </CharString>
          <CharString index="54">
            rrcurveto
            -57 28 43 -32 50 hhcurveto
            74 -75 callgsubr
            -44 -46 36 67 -22 hvcurveto
            1 92 7 64 14 83 rrcurveto
            hintmask 11110000
            -90 callsubr
            hintmask 11101100
            return
          </CharString>
          <CharString index="55">
            -2 11 5 flex1
            return
          </CharString>
          <CharString index="56">
            -5 -33 -55 -61 -55 callgsubr
            return
          </CharString>
          <CharString index="57">
            hhcurveto
            88 105 -13 -15 20 callsubr
            18 -44 -106 14 -88 hhcurveto
            -88 -112 -14 -18 19 callsubr
            21 6 return
          </CharString>
          <CharString index="58">
            220 353 rmoveto
            44 -59 39 -54 23 vhcurveto
            57 46 48 37 59 hhcurveto
            47 44 -21 -42 31 238 callgsubr
            -58 -48 rrcurveto
            165 callsubr
            return
          </CharString>
          <CharString index="59">
            vhcurveto
            -92 callgsubr
            return
          </CharString>
          <CharString index="60">
            63 vstem
            434 -4 rmoveto
            -22 79 -4 294 callsubr
            4 68 14 84 vhcurveto
            27 -4 26 -5 22 -5 4 14 3 29 -7 16 rrcurveto
            17 -60 -91 14 -84 hhcurveto
            -106 -99 -14 -17 -61 hvcurveto
            -9 -13 3 -29 6 -17 10 2 10 2 12 2 19 -54 93 -44 51 -40 -139 -133 rcurveline
            2 -25 12 -22 29 -22 105 -22 88 -67 71 -126 rrcurveto
            25 28 4 11 18 hvcurveto
            -156 386 rmoveto
            -40 34 -55 46 -62 46 -7 41 rlinecurve
            5 46 50 3 52 hhcurveto
            35 35 -2 -3 34 hvcurveto
            -16 -119 -5 -103 -140 vvcurveto
            -47 1 -37 3 -30 vhcurveto
            -54 86 -74 54 -78 32 rrcurveto
            return
          </CharString>
          <CharString index="61">
            -29 -24 33 -41 hhcurveto
            -44 -21 -32 -51 4 hvcurveto
            13 -5 18 -3 15 1 rrcurveto
            26 -2 9 10 16 hhcurveto
            return
          </CharString>
          <CharString index="62">
            3 8 3 -59 callsubr
            return
          </CharString>
          <CharString index="63">
            -2 -19 callgsubr
            return
          </CharString>
          <CharString index="64">
            rmoveto
            176 240 73 250 71 277 -27 14 -28 10 -31 7 -28 -169 -37 -146 -56 -136 -79 132 -58 140 -37 192 -31 -2 -27 -8 -26 -14 50 -205 59 -154 115 -157 -39 -83 -47 -79 -57 -81 rrcurveto
            17 -12 24 -10 23 -6 rrcurveto
            endchar
          </CharString>
          <CharString index="65">
            63 vstem
            434 152 rmoveto
            -22 59 -4 95 66 vvcurveto
            68 4 49 11 56 vhcurveto
            28 -5 27 -5 23 -5 4 14 3 29 -7 16 rrcurveto
            17 -60 -91 14 -84 hhcurveto
            -106 -99 -14 -17 -61 hvcurveto
            -9 -13 3 -29 6 -17 13 3 14 3 16 2 32 -33 74 -28 45 -25 -138 -99 rcurveline
            2 -19 12 -17 29 -15 105 -17 88 -50 71 -95 rrcurveto
            25 28 3 9 18 hvcurveto
            -156 287 rmoveto
            -40 25 -47 30 -52 28 -18 27 rlinecurve
            5 43 48 3 50 hhcurveto
            35 34 -2 -3 32 hvcurveto
            -13 -83 -5 -74 -98 vvcurveto
            -35 1 -27 3 -23 vhcurveto
            -53 63 -73 39 -76 24 rrcurveto
            return
          </CharString>
          <CharString index="66">
            52 callgsubr
            97 -32 -63 64 -94 -67 callsubr
            9 -29 6 -34 1 -41 rrcurveto
            -3 -44 -1 -46 174 callgsubr
            return
          </CharString>
          <CharString index="67">
            -75 54 -45 54 37 37 26 29 33 vhcurveto
            3 -24 2 -25 -25 vvcurveto
            -100 -32 -54 -68 -98 -69 108 253 -59 vhcurveto
            -17 -5 -18 -6 -16 -7 rrcurveto
            -191 43 69 -219 163 hhcurveto
            return
          </CharString>
          <CharString index="68">
            -95 -102 -10 -13 -84 hvcurveto
            -23 158 -6 128 -2 130 -1 101 1 92 9 92 rrcurveto
            1 -7 -10 1 -10 hhcurveto
            -24 -17 -3 -8 -21 hvcurveto
            -6 -236 17 -270 35 -255 return
          </CharString>
          <CharString index="69">
            -28 callgsubr
            12 return
          </CharString>
          <CharString index="70">
            360 563 rmoveto
            139 142 -15 -18 82 hvcurveto
            -45 callsubr
            20 -79 -142 17 -141 hhcurveto
            -142 -139 -17 -20 -80 -75 callsubr
            18 82 137 15 141 hhcurveto
            return
          </CharString>
          <CharString index="71">
            6 16 3 21 16 vvcurveto
            -121 36 -83 15 -126 10 -10 -23 -3 -14 -2 -28 102 -8 68 -6 97 -18 -115 -116 -93 -112 -106 -143 -3 -15 -1 -17 1 -20 return
          </CharString>
          <CharString index="72">
            50 68 92 89 -48 55 -57 -40 -28 -26 -32 -14 hvcurveto
            3 -24 12 -30 14 -17 rrcurveto
            31 7 return
          </CharString>
          <CharString index="73">
            261 callgsubr
            10 0 11 -44 callsubr
            return
          </CharString>
          <CharString index="74">
            hhcurveto
            -8 -12 -1 -3 -11 hvcurveto
            -3 -7 -1 -11 125 callsubr
            3 11 15 1 8 hhcurveto
            38 25 -38 -58 hvcurveto
            -2 -201 -21 -147 -29 -128 rrcurveto
            return
          </CharString>
          <CharString index="75">
            86 callsubr
            -58 -32 -17 -19 -19 hhcurveto
            -39 -19 82 163 202 32 76 91 20 hvcurveto
            return
          </CharString>
          <CharString index="76">
            -50 -33 -51 -30 -40 hhcurveto
            -38 -16 17 40 18 5 19 11 15 hvcurveto
            -25 -26 -4 -9 -19 hvcurveto
            -7 -15 -4 -17 -21 vvcurveto
            -70 45 -40 67 48 58 33 52 38 vhcurveto
            3 -8 1 -8 -10 vvcurveto
            -54 -34 -40 -83 -42 vhcurveto
            -80 -41 2 -25 13 -25 20 -19 rlinecurve
            return
          </CharString>
          <CharString index="77">
            158 27 51 99 44 hhcurveto
            22 10 -21 -42 -15 -1 -18 -3 -22 hvcurveto
            21 -1 25 1 18 5 rrcurveto
            2 21 1 19 16 vvcurveto
            84 -26 36 -52 -53 -55 -61 -107 -32 vhcurveto
            return
          </CharString>
          <CharString index="78">
            75 -24 34 -58 -85 -4 0 -4 -3 vvcurveto
            14 -21 -25 8 -24 hhcurveto
            -55 -41 -39 -62 -65 46 -49 61 52 39 36 50 14 hvcurveto
            return
          </CharString>
          <CharString index="79">
            rmoveto
            20 35 4 4 13 hvcurveto
            -15 264 1 307 23 218 rrcurveto
            4 -14 -13 2 -13 hhcurveto
            -18 -18 -6 -6 -11 hvcurveto
            -15 -276 5 -236 20 -279 rrcurveto
            return
          </CharString>
          <CharString index="80">
            117 callgsubr
            17 -83 -101 6 -113 hhcurveto
            -126 -121 -5 -29 -118 -57 callgsubr
            -10 2 -13 -11 flex1
            121 24 105 4 107 1 -7 -58 -5 -62 -4 -67 rrcurveto
            71 -36 -62 55 -65 hhcurveto
            -77 254 callsubr
            15 3 8 4 rrcurveto
            7 16 5 24 25 vvcurveto
            -8 -11 231 callsubr
            46 68 79 -69 -68 12 hvcurveto
            -2 -55 -1 -57 -61 vvcurveto
            -90 59 -60 71 return
          </CharString>
          <CharString index="81">
            rrcurveto
            -88 callgsubr
            18 -69 -116 25 -157 45 callsubr
            27 6 32 6 38 6 rrcurveto
            -14 -90 -22 -156 -91 vvcurveto
            return
          </CharString>
          <CharString index="82">
            12 hvcurveto
            4 -15 2 -17 -16 vvcurveto
            -58 -21 -45 -32 vhcurveto
            return
          </CharString>
          <CharString index="83">
            63 -46 26 97 vvcurveto
            -22 15 -18 2 -21 -1 -18 -25 -16 -35 -16 -40 rrcurveto
            63 -20 -34 40 -50 hhcurveto
            -66 -48 -60 -74 -77 45 -51 54 44 33 36 49 15 -2 13 -6 11 hvcurveto
            -11 9 -23 9 -18 1 rrcurveto
            8 -14 8 -19 -16 vvcurveto
            -23 -13 -19 -24 -26 -23 24 43 47 30 34 42 45 40 -47 -67 12 vhcurveto
            9 -7 15 -5 15 -3 12 36 14 40 17 32 rrcurveto
            6 -44 17 -19 -36 vvcurveto
            -44 -33 -23 -75 -44 368 callsubr
            95 -22 60 return
          </CharString>
          <CharString index="84">
            hhcurveto
            -82 -92 -14 -16 -57 -55 callsubr
            return
          </CharString>
          <CharString index="85">
            -12 rrcurveto
            -88 callgsubr
            return
          </CharString>
          <CharString index="86">
            0 13 0 return
          </CharString>
          <CharString index="87">
            vhcurveto
            hintmask 11010000
            290 callsubr
            11 5 13 4 17 5 -61 callsubr
            -39 -8 -28 -11 -15 -9 -20 -12 -7 -17 -6 -30 -3 -16 -2 -17 -2 -16 rrcurveto
            100 -31 -64 66 -94 hhcurveto
            -94 -79 -65 -73 -48 hvcurveto
            5 336 callsubr
            51 -13 73 -28 -47 vvcurveto
            -17 -9 -16 -15 -9 vhcurveto
            4 2 -6 -4 -6 -4 -5 -4 rlinecurve
            12 -22 18 -19 21 -14 rrcurveto
            hintmask 11100000
            78 62 87 86 54 69 8 -25 return
          </CharString>
          <CharString index="88">
            104 563 317 callgsubr
            112 55 hintmask 10110000
            119 callsubr
            -22 79 -5 128 89 vvcurveto
            18 0 18 1 16 vhcurveto
            41 20 39 19 40 15 rrcurveto
            -6 -36 -51 callgsubr
            -48 return
          </CharString>
          <CharString index="89">
            -67 270 callgsubr
            11 78 15 100 9 rrcurveto
            -31 -49 -29 -76 -54 vvcurveto
            -40 callsubr
            96 53 80 121 45 -7 48 -11 41 hvcurveto
            -12 14 -17 16 -14 8 rrcurveto
            -44 -38 -46 -31 -30 hhcurveto
            -19 -22 10 39 53 38 return
          </CharString>
          <CharString index="90">
            0 9 -44 callsubr
            return
          </CharString>
          <CharString index="91">
            hhcurveto
            56 43 45 48 39 hvcurveto
            339 callgsubr
            -111 -75 -63 -140 -132 -133 48 153 -47 vhcurveto
            -19 -9 -16 -10 -13 -13 rrcurveto
            return
          </CharString>
          <CharString index="92">
            230 callgsubr
            -49 vhcurveto
            -294 -186 rmoveto
            -34 -17 22 62 71 14 134 17 111 hvcurveto
            23 -52 46 -38 44 -21 rrcurveto
            37 -18 17 -12 -33 vvcurveto
            -109 -74 -117 -73 vhcurveto
            return
          </CharString>
          <CharString index="93">
            -40 7 -32 -5 -23 -5 rrcurveto
            -29 2 -19 1 -30 vhcurveto
            28 -4 24 0 33 4 5 28 1 24 1 29 rrcurveto
            return
          </CharString>
          <CharString index="94">
            rmoveto
            -13 102 -4 91 85 3 0 2 3 vvcurveto
            9 7 9 7 9 7 84 -114 54 -58 86 -67 24 14 16 23 13 19 -107 73 -61 56 -63 91 92 77 51 60 64 96 -13 17 -19 16 -20 10 -77 -120 -56 -65 -94 -81 rrcurveto
            3 142 14 139 22 134 -20 7 -33 3 -30 -3 rrcurveto
            -20 -137 -9 -158 -135 vvcurveto
            -130 7 -92 13 -132 vhcurveto
            22 28 4 4 19 hvcurveto
            return
          </CharString>
          <CharString index="95">
            -3 -6 -2 return
          </CharString>
          <CharString index="96">
            -156 -6 rmoveto
            -17 -12 11 27 44 31 57 45 -25 callsubr
            return
          </CharString>
          <CharString index="97">
            24 7 35 7 42 5 rrcurveto
            -13 -119 -9 -138 -162 vvcurveto
            -90 59 -60 71 return
          </CharString>
          <CharString index="98">
            rrcurveto
            10 callsubr
            return
          </CharString>
          <CharString index="99">
            rmoveto
            20 33 6 7 16 hvcurveto
            -19 73 -10 74 73 vvcurveto
            71 9 69 22 65 vhcurveto
            -8 24 -15 22 -17 13 rrcurveto
            -17 -31 -32 -8 -32 hhcurveto
            -70 -37 38 67 -31 hvcurveto
            118 -2 119 -15 85 -17 rrcurveto
            2 8 3 12 0 13 -17 callsubr
            21 -81 -134 17 -129 hhcurveto
            -129 -135 -17 -21 -82 270 callsubr
            return
          </CharString>
          <CharString index="100">
            40 callgsubr
            -43 -39 -34 -59 -20 vhcurveto
            11 -30 22 -21 18 -4 rrcurveto
            48 25 44 57 67 vvcurveto
            92 -88 87 -177 20 vhcurveto
            -10 -98 -4 -92 -118 vvcurveto
            return
          </CharString>
          <CharString index="101">
            rmoveto
            -34 -27 23 43 28 11 33 17 31 hvcurveto
            40 -34 51 -36 46 -26 rrcurveto
            -36 -30 -38 -26 -36 hhcurveto
            return
          </CharString>
          <CharString index="102">
            13 17 24 15 37 10 rrcurveto
            3 9 1 12 -21 callsubr
            10 -1 17 callgsubr
            -18 -5 -18 -5 -16 -7 rrcurveto
            4 15 3 15 17 vvcurveto
            52 -29 42 -66 49 vhcurveto
            -56 41 -40 15 64 vvcurveto
            13 1 13 2 14 vhcurveto
            -16 1 -21 -2 -16 -5 rrcurveto
            -4 -17 -1 -15 -13 vvcurveto
            -83 41 -11 82 -64 vhcurveto
            62 -48 21 -24 -33 vvcurveto
            -27 -12 -27 -16 -20 vhcurveto
            -32 27 -45 18 -43 10 rrcurveto
            return
          </CharString>
          <CharString index="103">
            vvcurveto
            43 -18 35 -29 26 vhcurveto
            27 -4 26 -5 24 -5 49 callsubr
            10 6 flex1
            19 -69 -95 16 -116 hhcurveto
            -117 -82 -16 -19 4 callsubr
            59 12 59 11 74 5 rrcurveto
            -126 168 callsubr
            return
          </CharString>
          <CharString index="104">
            9 callsubr
            9 0 10 9 282 callgsubr
            89 95 -13 -14 48 hvcurveto
            3 8 1 14 -21 callsubr
            9 -1 17 callgsubr
            17 -44 -97 14 -86 hhcurveto
            -95 -99 -14 -17 -58 10 callgsubr
            -14 -8 flex1
            330 callgsubr
            -4 -126 336 callgsubr
            return
          </CharString>
          <CharString index="105">
            43 -34 -41 24 -45 hhcurveto
            -69 -49 -56 -81 -105 80 -73 95 1 hvcurveto
            13 20 9 32 25 vvcurveto
            -2 -14 -14 -2 -12 hhcurveto
            -61 -47 35 58 46 26 28 43 40 38 -26 -42 29 hvcurveto
            21 -37 rlineto
            return
          </CharString>
          <CharString index="106">
            75 92 -12 -12 20 callsubr
            14 -43 -104 14 -73 hhcurveto
            -74 -89 -12 -16 19 callsubr
            return
          </CharString>
          <CharString index="107">
            38 callgsubr
            -34 hhcurveto
            -31 -19 21 40 50 return
          </CharString>
          <CharString index="108">
            316 188 rmoveto
            -34 0 -31 1 -28 vhcurveto
            -44 93 -81 56 -71 33 54 56 85 58 63 31 rrcurveto
            -5 -76 -2 -72 -86 vvcurveto
            return
          </CharString>
          <CharString index="109">
            -113 -51 -114 -80 -57 -68 3 -26 7 -24 23 -25 return
          </CharString>
          <CharString index="110">
            hvcurveto
            -12 callsubr
            return
          </CharString>
          <CharString index="111">
            -77 -101 callgsubr
            return
          </CharString>
          <CharString index="112">
            6 -21 1 rrcurveto
            return
          </CharString>
          <CharString index="113">
            vvcurveto
            28 2 13 19 10 vhcurveto
            9 5 15 65 callgsubr
            -30 212 callgsubr
            -15 3 -31 -30 vvcurveto
            return
          </CharString>
          <CharString index="114">
            rmoveto
            76 57 55 83 68 -43 46 -81 16 hvcurveto
            56 40 30 33 28 42 rrcurveto
            19 -2 18 -5 15 vhcurveto
            -73 -1 -93 -8 -90 -20 -1 -17 1 -20 5 -16 70 16 64 7 57 4 -31 -42 -41 -35 -56 -32 rrcurveto
            -13 3 -12 3 -13 vhcurveto
            87 7 43 -47 -71 vvcurveto
            -53 -24 -27 -37 -37 -32 33 77 vhcurveto
            -24 -21 -3 -8 -19 hvcurveto
            -97 5 58 -44 67 hhcurveto
            return
          </CharString>
          <CharString index="115">
            -33 16 26 -21 37 hhcurveto
            47 29 37 55 69 -44 59 -55 18 hvcurveto
            16 14 17 10 20 hhcurveto
            return
          </CharString>
          <CharString index="116">
            -16 25 -18 295 callsubr
            -80 -69 -75 -93 rrcurveto
            17 85 9 98 83 return
          </CharString>
          <CharString index="117">
            3 67 callgsubr
            return
          </CharString>
          <CharString index="118">
            -77 -39 77 235 109 18 117 26 110 hvcurveto
            63 callsubr
            return
          </CharString>
          <CharString index="119">
            21 21 43 17 19 -4 -10 16 hvcurveto
            -39 2 -20 -49 -47 hhcurveto
            return
          </CharString>
          <CharString index="120">
            rmoveto
            19 callgsubr
            hintmask 11110000
            1 callgsubr
            -208 87 -108 141 hvcurveto
            hintmask 11101000
            134 73 86 158 8 hvcurveto
            endchar
          </CharString>
          <CharString index="121">
            0 -11 -33 callgsubr
            return
          </CharString>
          <CharString index="122">
            -7 -33 -6 -39 -3 -41 -33 4 -33 6 -34 7 67 98 48 98 39 104 rrcurveto
            6 -18 -24 10 -26 hhcurveto
            -43 -134 -40 -81 -81 -116 3 -12 3 -10 6 -11 rrcurveto
            return
          </CharString>
          <CharString index="123">
            hvcurveto
            3 -43 callgsubr
            return
          </CharString>
          <CharString index="124">
            133 callgsubr
            -95 hhcurveto
            -95 -109 -14 -18 -57 hvcurveto
            -73 callsubr
            return
          </CharString>
          <CharString index="125">
            63 hstem
            -384 52 429 62 vstem
            -68 callsubr
            -26 -9 -22 -13 rrcurveto
            204 -22 -136 130 -207 hhcurveto
            -103 -73 -41 -70 -33 19 -27 34 -16 hvcurveto
            43 18 rlineto
            -25 9 -19 16 22 vvcurveto
            37 43 22 84 return
          </CharString>
          <CharString index="126">
            -54 -54 callgsubr
            return
          </CharString>
          <CharString index="127">
            47 hvcurveto
            -54 callsubr
            return
          </CharString>
          <CharString index="128">
            53 59 21 49 hhcurveto
            53 20 -37 -47 11 hvcurveto
            4 -52 -53 3 -48 hhcurveto
            -118 -109 -76 callsubr
            54 11 65 10 73 6 rrcurveto
            -125 -51 callsubr
            43 93 21 hvcurveto
            return
          </CharString>
          <CharString index="129">
            16 -152 hhcurveto
            -146 -143 -16 -21 -82 -75 callsubr
            50 11 68 9 78 6 -4 -128 -26 -151 -39 -131 15 -14 30 -11 23 -4 55 94 97 104 96 68 rrcurveto
            -17 -64 -11 -78 -82 vvcurveto
            -52 5 -54 8 -53 vhcurveto
            31 -27 -36 15 -49 hhcurveto
            return
          </CharString>
          <CharString index="130">
            -28 -33 -33 -10 -21 hhcurveto
            -37 -28 29 40 39 27 41 82 34 hvcurveto
            1 12 11 0 12 264 callgsubr
            return
          </CharString>
          <CharString index="131">
            -4 -28 rrcurveto
            -3 -1 -2 -3 vvcurveto
            232 callsubr
            -93 callsubr
            return
          </CharString>
          <CharString index="132">
            rmoveto
            7 17 5 18 1 21 rrcurveto
            -72 -50 3 7 -62 hvcurveto
            124 85 62 85 76 vvcurveto
            67 -47 45 -69 -62 -52 -37 -86 -20 vhcurveto
            -9 20 20 -3 23 hhcurveto
            64 13 24 30 32 hhcurveto
            32 17 -26 -37 -78 -50 -68 -140 -98 hvcurveto
            -5 -13 -1 -14 -14 vvcurveto
            62 -19 90 -11 98 -5 rrcurveto
            endchar
          </CharString>
          <CharString index="133">
            rmoveto
            9 20 7 22 1 25 -123 -8 -82 6 -93 12 109 146 90 103 116 119 rrcurveto
            return
          </CharString>
          <CharString index="134">
            hvcurveto
            -4 -7 -1 -10 0 -8 0 -14 2 -9 -11 flex1
            return
          </CharString>
          <CharString index="135">
            70 39 -62 -126 3 hvcurveto
            31 1 25 4 24 7 rrcurveto
            133 -57 101 -116 -161 -101 -180 -245 -206 81 -114 115 vhcurveto
            return
          </CharString>
          <CharString index="136">
            147 callsubr
            3 57 7 57 vhcurveto
            2 28 6 363 callsubr
            17 6 14 4 rrcurveto
            4 -94 callsubr
            -39 -8 -26 -10 -16 -10 -24 -12 -8 -21 -4 -26 -2 -14 -3 -14 -2 -15 rrcurveto
            return
          </CharString>
          <CharString index="137">
            290 callgsubr
            -31 293 callsubr
            -15 -17 -10 -19 rrcurveto
            -49 32 42 -35 70 hhcurveto
            return
          </CharString>
          <CharString index="138">
            19 81 103 12 136 13 12 0 13 hhcurveto
            -15 -55 -14 -60 -3 -47 rrcurveto
            56 -39 -51 33 -51 hhcurveto
            -70 -50 -48 -68 -71 53 -50 72 21 16 383 callsubr
            38 callsubr
            -51 -59 31 hvcurveto
            return
          </CharString>
          <CharString index="139">
            vvcurveto
            44 -18 38 -31 29 vhcurveto
            29 -4 29 -5 29 -5 rrcurveto
            -54 callsubr
            22 -83 -101 11 -129 hhcurveto
            hintmask 1101110000000000
            -139 -93 -9 -24 -101 27 callsubr
            20 105 93 9 134 hhcurveto
            return
          </CharString>
          <CharString index="140">
            346 561 rmoveto
            137 118 -11 -20 83 hvcurveto
            4 261 callgsubr
            11 0 9 -2 12 -83 callgsubr
            22 -80 -117 13 -140 hhcurveto
            -148 -118 -12 -23 -81 hvcurveto
            -4 -7 -1 -11 341 callsubr
            1 -12 -9 flex1
            20 84 116 11 146 hhcurveto
            return
          </CharString>
          <CharString index="141">
            -64 -87 -37 -57 hhcurveto
            -36 -29 20 46 28 12 38 15 291 callgsubr
            -20 248 callsubr
            -42 vvcurveto
            -65 43 -49 71 vhcurveto
            return
          </CharString>
          <CharString index="142">
            -52 -63 -35 -46 hhcurveto
            -36 -29 17 45 26 10 39 16 26 hvcurveto
            -12 8 -16 5 -22 383 callgsubr
            -16 -46 -41 vvcurveto
            -66 41 -48 69 vhcurveto
            return
          </CharString>
          <CharString index="143">
            -48 -59 -33 197 callgsubr
            44 26 12 40 55 callgsubr
            -15 -46 -41 vvcurveto
            -64 39 -48 65 vhcurveto
            return
          </CharString>
          <CharString index="144">
            vvcurveto
            -63 45 -37 58 28 26 9 17 20 vhcurveto
            7 13 4 19 15 vvcurveto
            9 -1 8 -3 6 vhcurveto
            -15 -13 -24 -20 -31 hhcurveto
            -28 -19 14 33 return
          </CharString>
          <CharString index="145">
            4 19 3 26 -1 22 rrcurveto
            -8 -11 -22 -4 -23 hhcurveto
            -43 -25 20 33 37 29 22 44 58 63 return
          </CharString>
          <CharString index="146">
            75 callgsubr
            -28 -33 18 -49 hhcurveto
            return
          </CharString>
          <CharString index="147">
            73 -18 69 -26 52 hvcurveto
            -14 9 -18 7 -15 3 rrcurveto
            return
          </CharString>
          <CharString index="148">
            hhcurveto
            108 61 83 129 49 -8 52 -13 43 hvcurveto
            -13 13 -19 14 -15 8 rrcurveto
            -45 -44 -53 -30 -35 hhcurveto
            -22 -25 10 43 52 39 88 43 57 hvcurveto
            -87 33 66 -75 101 hhcurveto
            21 20 3 6 19 hvcurveto
            -21 -67 -11 -79 -76 vvcurveto
            -69 8 -69 15 -58 vhcurveto
            endchar
          </CharString>
          <CharString index="149">
            46 callgsubr
            vhcurveto
            return
          </CharString>
          <CharString index="150">
            rmoveto
            -31 85 -55 58 -63 33 54 43 81 51 60 32 -6 -105 -15 -110 -25 -87 rrcurveto
            endchar
          </CharString>
          <CharString index="151">
            vvcurveto
            -66 9 -63 73 callgsubr
            143 callgsubr
            return
          </CharString>
          <CharString index="152">
            hhcurveto
            -192 -141 -21 -22 -84 -101 callgsubr
            return
          </CharString>
          <CharString index="153">
            -62 43 -39 47 16 15 5 7 7 vhcurveto
            6 17 2 18 -2 23 rrcurveto
            -7 -9 -14 -8 -18 hhcurveto
            -28 -17 18 30 37 23 14 23 return
          </CharString>
          <CharString index="154">
            vvcurveto
            -49 -26 -31 -45 vhcurveto
            -104 -13 138 -105 hhcurveto
            -52 -44 -36 -66 hvcurveto
            return
          </CharString>
          <CharString index="155">
            13 0 11 -17 callsubr
            return
          </CharString>
          <CharString index="156">
            -9 callsubr
            9 0 return
          </CharString>
          <CharString index="157">
            108 callgsubr
            51 -10 119 123 return
          </CharString>
          <CharString index="158">
            64 15 81 13 106 3 rrcurveto
            -16 -44 -14 -47 -35 vvcurveto
            -53 46 -55 71 56 44 34 36 38 vhcurveto
            8 -23 4 -26 -28 vvcurveto
            -79 -46 -44 -83 -127 -92 82 214 -79 vhcurveto
            -18 -6 -17 -6 -16 -8 rrcurveto
            -163 57 88 -170 202 hhcurveto
            return
          </CharString>
          <CharString index="159">
            25 -4 24 224 callsubr
            -104 14 -103 hhcurveto
            -96 -92 -12 -22 -89 -57 callgsubr
            -10 2 -13 -11 flex1
            20 101 86 9 89 hhcurveto
            53 52 -3 -6 52 hvcurveto
            return
          </CharString>
          <CharString index="160">
            308 424 rmoveto
            -56 25 -60 36 -28 71 63 7 73 5 84 1 -7 -56 -6 -66 -2 -68 -13 20 -20 13 -28 12 rrcurveto
            return
          </CharString>
          <CharString index="161">
            110 callgsubr
            7 19 315 callgsubr
            return
          </CharString>
          <CharString index="162">
            12 18 8 29 318 callsubr
            -2 -12 hhcurveto
            -57 -43 33 55 42 24 27 38 44 39 -32 -51 28 hvcurveto
            12 -19 rlineto
            return
          </CharString>
          <CharString index="163">
            rmoveto
            25 25 7 20 23 hvcurveto
            return
          </CharString>
          <CharString index="164">
            327 callsubr
            hvcurveto
            -23 -34 -5 -10 -22 hvcurveto
            4 -16 8 -63 -65 vvcurveto
            -133 -21 -141 -75 -59 -24 116 105 103 12 81 19 60 vhcurveto
            4 -8 -10 3 -13 hhcurveto
            -14 -13 -3 -3 -9 hvcurveto
            return
          </CharString>
          <CharString index="165">
            84 callsubr
            hintmask 01011100
            115 callgsubr
          </CharString>
          <CharString index="166">
            0 11 -44 callsubr
            17 return
          </CharString>
          <CharString index="167">
            61 75 85 104 35 50 rrcurveto
            14 19 15 32 34 vvcurveto
            48 -22 38 -35 27 vhcurveto
            68 -6 65 -8 43 -9 -45 callgsubr
            -32 9 -51 8 -56 6 rrcurveto
            88 -14 -44 59 -78 hhcurveto
            return
          </CharString>
          <CharString index="168">
            491 510 rmoveto
            -45 -44 20 32 -41 hvcurveto
            9 42 46 6 30 hhcurveto
            51 14 -16 -18 -21 -17 -12 -36 hvcurveto
            -340 -183 rmoveto
            -28 -20 15 32 41 41 19 61 6 hvcurveto
            3 -12 2 -13 -13 vvcurveto
            -47 -24 -28 -35 vhcurveto
            return
          </CharString>
          <CharString index="169">
            290 callsubr
            10 4 16 6 15 4 114 callgsubr
            -40 -8 -26 -10 -16 -10 -23 -12 -8 -21 -5 -26 -2 -14 258 callgsubr
            97 -32 -63 63 -94 hhcurveto
            return
          </CharString>
          <CharString index="170">
            2 -7 -10 2 -15 hhcurveto
            -12 -21 -2 -4 -12 hvcurveto
            -24 -70 -27 -148 -138 vvcurveto
            -256 71 -96 115 vhcurveto
            return
          </CharString>
          <CharString index="171">
            vvcurveto
            -32 13 -36 21 -22 vhcurveto
            -3 7 16 -2 12 hhcurveto
            17 18 4 5 11 hvcurveto
            return
          </CharString>
          <CharString index="172">
            -65 -35 56 87 3 hvcurveto
            -23 1 -23 -4 -18 -6 rrcurveto
            -114 67 -72 93 vhcurveto
            return
          </CharString>
          <CharString index="173">
            -90 7 51 171 44 210 54 return
          </CharString>
          <CharString index="174">
            -35 -49 36 -49 hhcurveto
            -50 -31 -35 -51 5 hvcurveto
            13 -4 15 -4 14 1 rrcurveto
            29 -2 12 13 29 hhcurveto
            hintmask 10101100
            33 49 -36 54 hhcurveto
            50 33 35 52 -5 hvcurveto
            -15 6 -13 3 -17 -1 rrcurveto
            -28 2 -14 -16 -29 hhcurveto
            return
          </CharString>
          <CharString index="175">
            vvcurveto
            374 callgsubr
            39 45 16 33 hhcurveto
            29 16 -13 -26 -42 -62 -64 -71 -63 hvcurveto
            13 -21 21 -21 24 -14 rrcurveto
            51 55 71 86 73 vvcurveto
            58 -44 48 -58 -26 177 callsubr
            return
          </CharString>
          <CharString index="176">
            -24 4 -27 0 -23 -2 4 -56 -6 -78 -19 -105 14 -4 19 -4 17 -1 rrcurveto
            35 112 10 57 77 vvcurveto
            return
          </CharString>
          <CharString index="177">
            -89 10 -85 16 -78 vhcurveto
            23 27 5 11 16 hvcurveto
            -26 83 -11 84 89 vvcurveto
            53 5 53 8 52 vhcurveto
            -37 52 return
          </CharString>
          <CharString index="178">
            98 -3 81 -10 66 13 callgsubr
            23 -86 -115 12 -147 hhcurveto
            -139 -103 -13 -22 -79 hvcurveto
            -3 -7 -2 -10 0 -9 0 -12 2 -12 -9 flex1
            return
          </CharString>
          <CharString index="179">
            -30 21 -16 31 29 vvcurveto
            30 15 23 35 49 40 -49 -83 -80 -48 -47 -83 return
          </CharString>
          <CharString index="180">
            -6 -2 -11 14 callsubr
            return
          </CharString>
          <CharString index="181">
            hvcurveto
            -12 10 197 callsubr
            return
          </CharString>
          <CharString index="182">
            -22 callgsubr
            -380 114 rmoveto
            79 -16 102 -75 52 -95 13 6 9 8 6 11 -47 103 -110 87 -83 26 -11 -15 -7 -20 -3 -20 rrcurveto
            endchar
          </CharString>
          <CharString index="183">
            hhcurveto
            -48 -35 -38 -55 -17 hvcurveto
            return
          </CharString>
          <CharString index="184">
            125 callgsubr
            -12 -23 17 hvcurveto
            -44 318 callgsubr
          </CharString>
          <CharString index="185">
            41 -34 -40 23 -43 hhcurveto
            -69 -50 -54 -77 -102 80 -70 94 1 hvcurveto
            13 20 8 30 23 162 callsubr
            -61 -46 33 58 45 26 27 42 40 37 -24 -39 27 hvcurveto
            23 -39 rlineto
            return
          </CharString>
          <CharString index="186">
            41 -34 -40 23 -44 hhcurveto
            -69 -49 -54 -77 -102 80 -70 94 2 hvcurveto
            12 19 9 30 23 vvcurveto
            -2 -14 -14 -1 -11 279 callsubr
            44 39 -30 -47 29 hvcurveto
            15 -26 rlineto
            return
          </CharString>
          <CharString index="187">
            vvcurveto
            -4 0 -4 -1 -2 vhcurveto
            29 -20 -28 return
          </CharString>
          <CharString index="188">
            -107 -11 54 200 49 184 54 return
          </CharString>
          <CharString index="189">
            66 25 62 hhcurveto
            64 21 -32 -24 23 hvcurveto
            endchar
          </CharString>
          <CharString index="190">
            -18 16 35 -13 23 hhcurveto
            -2 9 -2 17 18 vvcurveto
            84 65 68 92 -1 vhcurveto
            66 39 -36 -66 -39 -14 -39 -21 -33 hvcurveto
            24 -22 -31 16 -32 hhcurveto
            -54 -36 -43 -53 -57 41 -37 50 hvcurveto
            return
          </CharString>
          <CharString index="191">
            8 -22 -33 callsubr
            return
          </CharString>
          <CharString index="192">
            rmoveto
            -66 1 -46 2 -35 vhcurveto
            -42 53 -72 32 -67 32 return
          </CharString>
          <CharString index="193">
            rmoveto
            38 36 24 41 24 hvcurveto
            20 -20 32 -23 13 vhcurveto
            return
          </CharString>
          <CharString index="194">
            60 57 23 65 hhcurveto
            62 28 -45 -54 14 hvcurveto
            return
          </CharString>
          <CharString index="195">
            -45 -33 -60 -32 12 -32 28 -32 hvcurveto
            20 -1 30 5 18 9 rrcurveto
            -23 22 -25 26 32 vvcurveto
            27 18 18 36 71 66 -79 -79 -64 -45 -37 -79 -48 -56 12 22 -61 vhcurveto
            20 -83 return
          </CharString>
          <CharString index="196">
            27 17 29 21 hvcurveto
            9 -16 5 -17 -17 vvcurveto
            -32 -22 -28 -47 vhcurveto
            return
          </CharString>
          <CharString index="197">
            -6 137 callsubr
            return
          </CharString>
          <CharString index="198">
            21 5 18 8 13 9 -15 26 rcurveline
            -4 8 -1 4 7 vvcurveto
            24 14 17 20 39 35 -68 -159 17 vhcurveto
            25 24 2 8 19 hvcurveto
            -15 71 -2 159 55 vvcurveto
            28 0 return
          </CharString>
          <CharString index="199">
            355 callsubr
            49 -93 93 113 52 111 147 105 -47 71 -85 hvcurveto
            return
          </CharString>
          <CharString index="200">
            106 26 46 44 32 21 -25 -39 -26 -4 -18 -5 -12 vhcurveto
            19 -7 21 -4 22 1 rrcurveto
            7 13 5 27 20 vvcurveto
            69 -39 57 -74 -1 vhcurveto
            -89 -63 -69 -162 1 hvcurveto
            return
          </CharString>
          <CharString index="201">
            -1 -12 -1 -11 -12 vvcurveto
            -122 61 -85 120 129 84 109 144 vhcurveto
            -227 -189 rmoveto
            -73 -45 41 75 -11 hvcurveto
            113 46 99 93 149 vvcurveto
            return
          </CharString>
          <CharString index="202">
            391 -219 136 callgsubr
            4 60 1 65 3 68 rrcurveto
            123 24 70 82 114 vvcurveto
            73 -18 69 -26 52 vhcurveto
            -14 9 -18 7 -15 3 rrcurveto
            return
          </CharString>
          <CharString index="203">
            139 callgsubr
            -21 80 -2 130 82 vvcurveto
            107 4 return
          </CharString>
          <CharString index="204">
            20 11 13 14 15 23 -67 45 -50 48 -35 48 56 39 47 46 46 60 -12 18 -17 13 -21 14 -55 -82 -59 -59 -59 -37 43 -78 57 -64 78 -59 rrcurveto
            endchar
          </CharString>
          <CharString index="205">
            rmoveto
            -23 -15 16 20 21 14 18 27 22 21 -12 -19 18 hvcurveto
            -28 -18 -22 -16 -24 hhcurveto
            return
          </CharString>
          <CharString index="206">
            17 -3 16 -7 14 hvcurveto
            -16 12 -28 10 -23 2 rrcurveto
            10 359 callsubr
            return
          </CharString>
          <CharString index="207">
            365 callgsubr
            8 -8 13 rcurveline
            1 hlineto
            -10 16 -3 6 10 vvcurveto
            24 14 17 20 return
          </CharString>
          <CharString index="208">
            74 callgsubr
            53 53 -68 return
          </CharString>
          <CharString index="209">
            194 callsubr
            -2 10 7 flex1
            return
          </CharString>
          <CharString index="210">
            -63 -50 -39 -83 -62 vvcurveto
            -59 31 -45 47 -18 vhcurveto
            -56 -36 -52 -41 -31 -29 rrcurveto
            -24 10 -22 20 -22 vhcurveto
            97 -30 95 -31 36 -96 rrcurveto
            24 26 4 9 19 hvcurveto
            return
          </CharString>
          <CharString index="211">
            vvcurveto
            -16 -9 -15 -12 -9 vhcurveto
            -2 -1 -1 -1 -4 -3 -5 -4 -5 -3 rlinecurve
            13 -22 17 -19 21 -14 80 62 86 87 54 69 8 -24 6 -28 1 -32 rrcurveto
            -4 return
          </CharString>
          <CharString index="212">
            rmoveto
            111 -19 124 -3 119 13 rrcurveto
            4 19 3 20 17 vvcurveto
            -4 -49 -47 -2 -46 hhcurveto
            -69 -77 5 11 -67 hvcurveto
            -3 -17 -2 -17 -1 -23 rrcurveto
            endchar
          </CharString>
          <CharString index="213">
            137 -43 122 -79 121 -132 return
          </CharString>
          <CharString index="214">
            50 18 30 37 44 hhcurveto
            34 21 -19 -28 return
          </CharString>
          <CharString index="215">
            705 341 rmoveto
            196 -92 162 -213 -212 -146 -149 -232 -209 134 -130 190 211 128 137 225 vhcurveto
            return
          </CharString>
          <CharString index="216">
            vvcurveto
            54 -44 46 -58 -26 -30 -9 -14 -28 vhcurveto
            -1 5 -1 5 6 vvcurveto
            54 41 28 return
          </CharString>
          <CharString index="217">
            hhcurveto
            72 58 -7 -10 45 hvcurveto
            3 8 1 11 198 callgsubr
            -1 10 7 flex1
            return
          </CharString>
          <CharString index="218">
            -6 -11 -5 -15 0 -16 0 -12 4 317 callsubr
            33 hhcurveto
            31 return
          </CharString>
          <CharString index="219">
            -255 62 111 -309 234 hhcurveto
            -3 296 rmoveto
            -24 -19 16 24 26 19 20 27 24 23 -15 -24 17 hvcurveto
            -33 -22 -21 -14 -24 hhcurveto
            endchar
          </CharString>
          <CharString index="220">
            rmoveto
            16 15 3 4 10 hvcurveto
            -16 103 -9 84 -4 73 rrcurveto
            return
          </CharString>
          <CharString index="221">
            90 40 callgsubr
            return
          </CharString>
          <CharString index="222">
            86 59 45 87 45 hvcurveto
            12 -49 15 -46 18 -45 22 1 23 3 16 4 rrcurveto
            return
          </CharString>
          <CharString index="223">
            23 6 19 9 14 10 -14 26 rcurveline
            -5 9 -1 5 6 vvcurveto
            24 16 16 29 return
          </CharString>
          <CharString index="224">
            9 0 9 -3 7 vhcurveto
            18 -44 -119 14 return
          </CharString>
          <CharString index="225">
            -23 -6 -24 hhcurveto
            -45 -25 21 return
          </CharString>
          <CharString index="226">
            315 185 -56 callsubr
            89 -189 rmoveto
            return
          </CharString>
          <CharString index="227">
            0 -20 1 -17 -14 flex1
            10 -19 -21 5 -21 hhcurveto
            -54 -43 141 callgsubr
            92 -47 75 -50 53 -100 rrcurveto
            return
          </CharString>
          <CharString index="228">
            37 33 21 33 26 hvcurveto
            19 -27 10 -32 -37 vvcurveto
            -78 -43 -47 -81 -156 -120 177 346 -84 vhcurveto
            -19 -7 -16 -9 -16 -13 rrcurveto
            return
          </CharString>
          <CharString index="229">
            53 23 -52 -107 -105 -30 -79 -53 -54 -31 75 93 109 40 66 52 hvcurveto
            return
          </CharString>
          <CharString index="230">
            -127 rcurveline
            2 -26 11 -23 28 -22 109 -22 89 -68 73 -130 rrcurveto
            return
          </CharString>
          <CharString index="231">
            184 callsubr
            195 callsubr
            return
          </CharString>
          <CharString index="232">
            0 -10 -33 callgsubr
            return
          </CharString>
          <CharString index="233">
            -23 -47 hhcurveto
            -55 -30 33 37 -26 hvcurveto
            return
          </CharString>
          <CharString index="234">
            hvcurveto
            -12 9 197 callsubr
            return
          </CharString>
          <CharString index="235">
            18 -133 hhcurveto
            -120 -117 -20 -17 -68 -75 callsubr
            15 70 116 18 118 return
          </CharString>
          <CharString index="236">
            41 -32 -38 23 -43 hhcurveto
            -64 -47 -53 -75 -97 77 -67 90 2 hvcurveto
            endchar
          </CharString>
          <CharString index="237">
            13 17 24 15 37 10 5 17 2 30 -7 12 -45 -11 -43 -19 -24 -25 -32 27 -46 18 -43 10 -5 -12 -1 -30 6 -17 rrcurveto
            return
          </CharString>
          <CharString index="238">
            -62 43 -39 47 16 16 5 7 6 vhcurveto
            6 17 2 18 -1 23 rrcurveto
            -7 -10 -13 -8 -18 hhcurveto
            -29 -17 18 30 37 23 14 23 return
          </CharString>
          <CharString index="239">
            445 -86 289 callsubr
            9 rrcurveto
            -21 89 -11 86 80 vvcurveto
            return
          </CharString>
          <CharString index="240">
            -34 34 55 -25 58 hhcurveto
            11 11 1 2 11 hvcurveto
            -3 -44 -3 -51 -65 return
          </CharString>
          <CharString index="241">
            -62 -47 -45 -52 -33 hhcurveto
            -31 -20 21 40 return
          </CharString>
          <CharString index="242">
            18 144 callgsubr
            return
          </CharString>
          <CharString index="243">
            164 85 142 308 return
          </CharString>
          <CharString index="244">
            -2 -9 0 -11 0 return
          </CharString>
          <CharString index="245">
            -3 -36 321 callgsubr
            16 182 callgsubr
            -10 349 callgsubr
            return
          </CharString>
          <CharString index="246">
            283 callgsubr
            -34 3 -29 vhcurveto
            -55 94 -76 58 -80 34 60 62 91 63 67 32 rrcurveto
            -7 -73 -4 -75 -88 vvcurveto
            return
          </CharString>
          <CharString index="247">
            333 callsubr
            0 260 callgsubr
            return
          </CharString>
          <CharString index="248">
            vhcurveto
            -15 24 -15 18 -25 11 -60 -37 -62 -52 -58 return
          </CharString>
          <CharString index="249">
            -44 1 -35 2 -27 vhcurveto
            return
          </CharString>
          <CharString index="250">
            20 -7 22 hhcurveto
            57 46 return
          </CharString>
          <CharString index="251">
            vvcurveto
            56 -44 47 343 callsubr
            5 vvcurveto
            57 42 30 57 74 86 -65 -148 5 vhcurveto
            -2 return
          </CharString>
          <CharString index="252">
            192 callsubr
            -18 -28 -32 -9 -31 hhcurveto
            -83 -49 33 58 -37 hvcurveto
            9 9 0 10 hhcurveto
            167 133 return
          </CharString>
          <CharString index="253">
            -36 vvcurveto
            -66 9 -62 73 callgsubr
            62 322 callsubr
            39 8 40 vhcurveto
            -29 52 -50 return
          </CharString>
          <CharString index="254">
            102 callgsubr
            71 return
          </CharString>
          <CharString index="255">
            41 -19 37 -28 27 vhcurveto
            62 24 46 33 42 hhcurveto
            47 35 -42 -59 return
          </CharString>
          <CharString index="256">
            0 10 -83 callgsubr
            return
          </CharString>
          <CharString index="257">
            -122 -5 -25 -53 -53 hhcurveto
            -23 -25 9 16 -16 hvcurveto
            19 -69 rlineto
            -9 16 17 -6 21 hhcurveto
            52 40 37 93 18 hvcurveto
            return
          </CharString>
          <CharString index="258">
            578 rmoveto
            21 -2 22 1 24 4 -3 60 6 55 19 68 -15 6 -16 3 -20 1 -30 -70 -11 -69 3 -57 rrcurveto
            return
          </CharString>
          <CharString index="259">
            vvcurveto
            134 3 47 8 80 vhcurveto
            return
          </CharString>
          <CharString index="260">
            -131 40 117 -108 202 6 6 0 6 hhcurveto
            -2 -48 -2 -46 -3 -41 137 callgsubr
            return
          </CharString>
          <CharString index="261">
            -29 114 rmoveto
            -21 -14 14 20 23 19 15 24 18 18 -9 -16 14 hvcurveto
            1 -1 rlineto
            -32 -21 -18 -14 -20 hhcurveto
            return
          </CharString>
          <CharString index="262">
            vvcurveto
            -101 -21 -43 -41 -28 -17 25 40 25 4 18 5 12 vhcurveto
            7 -19 -21 4 -21 hhcurveto
            -7 -14 -6 -25 -21 vvcurveto
            return
          </CharString>
          <CharString index="263">
            -2 -72 rrcurveto
            20 -16 -21 16 -28 hhcurveto
            69 -391 rmoveto
            24 27 1 6 20 hvcurveto
            -12 80 -2 130 0 90 0 return
          </CharString>
          <CharString index="264">
            -133 -8 -150 -15 -111 hvcurveto
            52 -21 -26 25 -42 hhcurveto
            return
          </CharString>
          <CharString index="265">
            16 79 101 15 117 7 7 0 7 hhcurveto
            return
          </CharString>
          <CharString index="266">
            163 callgsubr
            -62 -59 -48 rrcurveto
            return
          </CharString>
          <CharString index="267">
            30 12 36 38 vvcurveto
            70 -54 38 -62 return
          </CharString>
          <CharString index="268">
            14 -13 27 -14 21 -3 44 75 76 return
          </CharString>
          <CharString index="269">
            vvcurveto
            -2 217 callgsubr
            return
          </CharString>
          <CharString index="270">
            102 129 139 131 return
          </CharString>
          <CharString index="271">
            -2 -8 -21 -2 -14 hhcurveto
            return
          </CharString>
          <CharString index="272">
            4 9 2 10 10 vvcurveto
            return
          </CharString>
          <CharString index="273">
            -15 5 callsubr
            return
          </CharString>
          <CharString index="274">
            71 -18 64 103 48 -2 58 -31 48 102 63 -39 55 77 63 -40 43 hstemhm
            221 58 210 54 4 52 return
          </CharString>
          <CharString index="275">
            -51 callsubr
            44 92 21 hvcurveto
            return
          </CharString>
          <CharString index="276">
            rmoveto
            -54 93 -76 58 -80 34 15 15 16 16 18 14 61 -19 55 -43 42 -74 rrcurveto
            -39 1 -30 2 -25 vhcurveto
            return
          </CharString>
          <CharString index="277">
            -76 67 35 67 76 59 38 58 -11 61 51 56 90 63 hstemhm
            165 51 280 53 184 49 68 61 return
          </CharString>
          <CharString index="278">
            3 -12 -14 2 -15 hhcurveto
            -21 -18 -2 -4 -16 hvcurveto
            1 -29 2 -20 1 -31 29 -3 26 -1 33 3 rrcurveto
            return
          </CharString>
          <CharString index="279">
            44 -58 39 -54 23 vhcurveto
            57 45 48 37 59 hhcurveto
            47 44 -21 -42 31 238 callgsubr
            -58 -48 rrcurveto
            return
          </CharString>
          <CharString index="280">
            119 60 32 62 hhcurveto
            26 21 -12 -18 16 hvcurveto
            11 12 9 20 3 19 rrcurveto
            17 -21 -28 12 -34 hhcurveto
            return
          </CharString>
          <CharString index="281">
            vvcurveto
            -54 1 -40 3 -33 vhcurveto
            -51 83 -70 53 -73 31 rrcurveto
            return
          </CharString>
          <CharString index="282">
            61 -59 70 hstemhm
            20 58 -15 54 82 52 80 43 56 64 return
          </CharString>
          <CharString index="283">
            rrcurveto
            190 callsubr
            return
          </CharString>
          <CharString index="284">
            297 callgsubr
            vhcurveto
            return
          </CharString>
          <CharString index="285">
            -46 -65 -21 -43 hhcurveto
            -46 -25 35 41 -21 hvcurveto
            -13 -5 -22 -11 -13 -13 rrcurveto
            -61 28 40 -44 68 hhcurveto
            return
          </CharString>
          <CharString index="286">
            94 51 33 50 hhcurveto
            25 21 -12 -19 16 hvcurveto
            11 12 8 20 3 19 rrcurveto
            17 -20 -27 13 -34 hhcurveto
            return
          </CharString>
          <CharString index="287">
            -9 -23 -13 -23 -12 -9 -27 -4 -28 -1 return
          </CharString>
          <CharString index="288">
            153 callgsubr
            -15 -32 return
          </CharString>
          <CharString index="289">
            17 -408 rmoveto
            25 26 3 8 19 hvcurveto
            return
          </CharString>
          <CharString index="290">
            rrcurveto
            115 callgsubr
          </CharString>
          <CharString index="291">
            15 15 14 15 11 18 return
          </CharString>
          <CharString index="292">
            4 8 2 10 9 vvcurveto
            return
          </CharString>
          <CharString index="293">
            337 callsubr
            -57 -43 32 56 42 24 28 39 38 36 -26 -42 27 hvcurveto
            21 -35 rlineto
            return
          </CharString>
          <CharString index="294">
            rmoveto
            -32 -20 20 29 28 19 24 29 24 27 -7 -16 18 hvcurveto
            -52 -6 -23 -26 -36 hhcurveto
            endchar
          </CharString>
          <CharString index="295">
            59 50 90 49 67 26 194 callgsubr
            return
          </CharString>
          <CharString index="296">
            hvcurveto
            -1 -30 3 -27 10 -23 rrcurveto
            -10 17 17 -3 15 return
          </CharString>
          <CharString index="297">
            193 callsubr
            11 -2 17 callgsubr
            return
          </CharString>
          <CharString index="298">
            17 76 98 14 113 hhcurveto
            14 13 0 -1 14 hvcurveto
            return
          </CharString>
          <CharString index="299">
            vhcurveto
            -8 25 -15 21 -18 13 rrcurveto
            return
          </CharString>
          <CharString index="300">
            2 249 callsubr
            14 0 return
          </CharString>
          <CharString index="301">
            8 2 11 198 callgsubr
            return
          </CharString>
          <CharString index="302">
            -83 80 -84 64 -84 47 rrcurveto
            return
          </CharString>
          <CharString index="303">
            63 322 callsubr
            return
          </CharString>
          <CharString index="304">
            -16 5 callsubr
            return
          </CharString>
          <CharString index="305">
            52 241 59 108 57 96 63 hstemhm
            17 46 202 28 28 47 117 60 hintmask 11110110
            return
          </CharString>
          <CharString index="306">
            vstem
            110 -20 rmoveto
            194 154 133 191 70 228 -16 8 -18 7 -18 3 return
          </CharString>
          <CharString index="307">
            -165 -101 115 183 180 125 137 155 166 85 -124 -179 return
          </CharString>
          <CharString index="308">
            29 40 hhcurveto
            24 20 -11 -17 14 hvcurveto
            12 12 8 20 3 19 rrcurveto
            16 -19 -27 11 -33 hhcurveto
            return
          </CharString>
          <CharString index="309">
            257 callgsubr
            53 13 -40 -38 20 hvcurveto
            endchar
          </CharString>
          <CharString index="310">
            54 69 32 47 hhcurveto
            52 12 -41 -38 20 hvcurveto
            endchar
          </CharString>
          <CharString index="311">
            rmoveto
            -34 -21 20 30 26 18 25 32 27 25 -18 -31 17 hvcurveto
            -34 -10 -23 -18 -31 hhcurveto
            return
          </CharString>
          <CharString index="312">
            -5 17 27 -6 23 hhcurveto
            30 82 17 170 5 134 28 13 28 12 26 10 rrcurveto
            return
          </CharString>
          <CharString index="313">
            148 -8 69 186 61 88 63 105 63 hstem
            182 55 197 50 63 63 vstem
            return
          </CharString>
          <CharString index="314">
            21 6 19 8 13 9 -7 12 rcurveline
            1 hlineto
            -11 19 -3 7 8 vvcurveto
            23 16 16 28 return
          </CharString>
          <CharString index="315">
            -97 rmoveto
            23 -19 18 -24 -27 -24 -20 -30 -24 18 -17 24 28 24 21 29 vhcurveto
            endchar
          </CharString>
          <CharString index="316">
            -8 -13 275 callsubr
            28 return
          </CharString>
          <CharString index="317">
            8 2 12 -21 callsubr
            9 -1 -19 callgsubr
            return
          </CharString>
          <CharString index="318">
            -38 -63 -65 50 -47 61 52 40 36 return
          </CharString>
          <CharString index="319">
            -6 -2 -11 0 -11 0 return
          </CharString>
          <CharString index="320">
            48 45 -1 -2 42 hvcurveto
            return
          </CharString>
          <CharString index="321">
            11 0 15 0 10 return
          </CharString>
          <CharString index="322">
            -29 20 44 27 10 return
          </CharString>
          <CharString index="323">
            -1 0 0 -1 vvcurveto
            return
          </CharString>
          <CharString index="324">
            0 10 0 10 return
          </CharString>
          <CharString index="325">
            rmoveto
            -22 -17 -17 -22 -25 17 -22 28 23 16 17 22 25 -18 22 -27 hvcurveto
            endchar
          </CharString>
          <CharString index="326">
            60 19 -33 -24 22 hvcurveto
            endchar
          </CharString>
          <CharString index="327">
            -7 -54 -6 -54 -3 -59 rrcurveto
            34 -17 -31 24 -34 hhcurveto
            -35 -30 -24 -43 -10 hvcurveto
            return
          </CharString>
          <CharString index="328">
            17 79 124 9 109 5 4 0 5 hhcurveto
            -108 6 60 -56 69 hhcurveto
            return
          </CharString>
          <CharString index="329">
            344 -118 rmoveto
            36 100 18 229 138 vvcurveto
            71 -7 83 -10 51 vhcurveto
            return
          </CharString>
          <CharString index="330">
            rmoveto
            126 76 74 113 50 -14 52 -21 41 hvcurveto
            -12 10 -18 11 -13 7 return
          </CharString>
          <CharString index="331">
            -4 25 103 callgsubr
            12 -1 7 -83 callgsubr
            20 -77 return
          </CharString>
          <CharString index="332">
            28 6 37 6 39 5 rrcurveto
            -16 -100 -25 -185 -106 vvcurveto
            -141 68 -35 57 return
          </CharString>
          <CharString index="333">
            181 rmoveto
            -32 -19 21 28 27 18 25 30 24 25 -12 -22 17 hvcurveto
            -45 -8 return
          </CharString>
          <CharString index="334">
            135 callgsubr
            35 return
          </CharString>
          <CharString index="335">
            rmoveto
            10 154 8 190 1 196 rrcurveto
            return
          </CharString>
          <CharString index="336">
            65 561 63 hstemhm
            0 607 -308 61 return
          </CharString>
          <CharString index="337">
            22 -23 31 -8 32 -5 30 -10 -42 -29 -38 return
          </CharString>
          <CharString index="338">
            243 callsubr
            32 28 19 return
          </CharString>
          <CharString index="339">
            -39 -15 -40 -18 -37 -19 rrcurveto
            return
          </CharString>
          <CharString index="340">
            335 callsubr
            hstemhm
            return
          </CharString>
          <CharString index="341">
            vvcurveto
            92 -60 76 -66 42 vhcurveto
            return
          </CharString>
          <CharString index="342">
            556 63 hstemhm
            315 62 return
          </CharString>
          <CharString index="343">
            24 -1 28 0 19 10 rrcurveto
            return
          </CharString>
          <CharString index="344">
            20 4 24 7 18 return
          </CharString>
          <CharString index="345">
            24 18 19 -9 -15 14 hvcurveto
            -1 -1 1 -1 rlineto
            -32 -21 -18 -14 -20 hhcurveto
            return
          </CharString>
          <CharString index="346">
            -13 32 -11 -43 vvcurveto
            -29 -8 -42 -12 -36 vhcurveto
            71 -11 -42 43 -58 hhcurveto
            -53 return
          </CharString>
          <CharString index="347">
            28 72 -31 71 138 65 240 51 hstemhm
            23 61 74 73 225 62 return
          </CharString>
          <CharString index="348">
            121 121 -19 28 -46 7 rlineto
            -19 vlineto
            -127 -127 rlineto
            -17 vlineto
            return
          </CharString>
          <CharString index="349">
            -95 29 65 -50 73 hhcurveto
            6 6 0 1 5 hvcurveto
            -3 -45 -3 -52 -67 vvcurveto
            return
          </CharString>
          <CharString index="350">
            -19 -5 -22 hhcurveto
            -50 -35 21 35 return
          </CharString>
          <CharString index="351">
            164 callgsubr
            14 return
          </CharString>
          <CharString index="352">
            233 callsubr
            0 return
          </CharString>
          <CharString index="353">
            -34 197 callgsubr
            return
          </CharString>
          <CharString index="354">
            41 39 -2 -4 34 hvcurveto
            return
          </CharString>
          <CharString index="355">
            296 callgsubr
            -45 return
          </CharString>
          <CharString index="356">
            8 3 11 0 return
          </CharString>
          <CharString index="357">
            22 51 28 69 26 53 14 rrcurveto
            -10 -49 -8 -54 -43 vvcurveto
            78 -65 rmoveto
            return
          </CharString>
          <CharString index="358">
            50 245 58 -22 64 65 58 61 64 53 305 callgsubr
            33 47 return
          </CharString>
          <CharString index="359">
            rmoveto
            11 155 9 190 1 197 return
          </CharString>
          <CharString index="360">
            117 245 callsubr
            return
          </CharString>
          <CharString index="361">
            -44 -43 -63 -73 50 -44 86 hvcurveto
            13 -1 return
          </CharString>
          <CharString index="362">
            332 -92 rmoveto
            19 20 186 callgsubr
            return
          </CharString>
          <CharString index="363">
            19 160 callsubr
            return
          </CharString>
          <CharString index="364">
            139 130 rcurveline
            return
          </CharString>
          <CharString index="365">
            2 -13 -9 flex1
            return
          </CharString>
          <CharString index="366">
            -12 341 callsubr
            return
          </CharString>
          <CharString index="367">
            11 0 11 11 vvcurveto
            return
          </CharString>
          <CharString index="368">
            -183 397 143 -25 63 hstemhm
            42 76 155 63 hintmask 01110000
            return
          </CharString>
          <CharString index="369">
            rrcurveto
            6 295 callgsubr
            -71 -40 -42 -61 -64 46 -43 57 hvcurveto
            return
          </CharString>
          <CharString index="370">
            60 -14 33 -29 4 -39 -3 -206 -13 -152 -25 -133 rrcurveto
            return
          </CharString>
          <CharString index="371">
            rmoveto
            25 25 5 11 19 hvcurveto
            -31 137 -25 213 134 vvcurveto
            return
          </CharString>
          <CharString index="372">
            4 17 2 29 -1 21 rrcurveto
            -8 -12 -23 -5 -24 hhcurveto
            -45 -25 21 return
          </CharString>
          <CharString index="373">
            rmoveto
            25 24 2 8 19 hvcurveto
            -16 98 -7 140 8 131 rrcurveto
            return
          </CharString>
          <CharString index="374">
            -22 callgsubr
            endchar
          </CharString>
          <CharString index="375">
            108 callgsubr
            50 -10 116 122 vvcurveto
            return
          </CharString>
          <CharString index="376">
            rmoveto
            19 20 3 7 19 hvcurveto
            11 94 8 104 3 128 rrcurveto
            return
          </CharString>
          <CharString index="377">
            10 callgsubr
            -13 -9 flex1
            63 return
          </CharString>
          <CharString index="378">
            hvcurveto
            -2 -6 -1 -9 0 -9 0 -13 1 -14 -8 flex1
            14 return
          </CharString>
          <CharString index="379">
            -55 -62 126 vhcurveto
            9 14 8 15 4 18 rrcurveto
            68 -134 return
          </CharString>
          <CharString index="380">
            66 214 50 0 51 63 63 hstemhm
            0 608 -538 61 return
          </CharString>
          <CharString index="381">
            60 hstemhm
            -31 57 6 74 167 56 return
          </CharString>
          <CharString index="382">
            118 callsubr
            35 38 return
          </CharString>
          <CharString index="383">
            63 hstemhm
            27 57 15 53 258 58 return
          </CharString>
          <CharString index="384">
            -29 245 callgsubr
            return
          </CharString>
          <CharString index="385">
            -67 vhcurveto
            -17 -7 -18 -8 -15 -10 rrcurveto
            return
          </CharString>
          <CharString index="386">
            hhcurveto
            -61 -46 34 57 45 26 28 42 return
          </CharString>
          <CharString index="387">
            -7 12 -12 10 rrcurveto
            -32 -17 -18 -12 return
          </CharString>
          <CharString index="388">
            -20 rmoveto
            102 130 139 131 return
          </CharString>
          <CharString index="389">
            hstemhm
            30 55 82 52 79 43 return
          </CharString>
          <CharString index="390">
            -74 -41 callgsubr
            return
          </CharString>
          <CharString index="391">
            364 callgsubr
            18 hvcurveto
            return
          </CharString>
          <CharString index="392">
            -30 114 rmoveto
            -20 -14 14 return
          </CharString>
          <CharString index="393">
            8 -3 8 -1 11 1 rrcurveto
            return
          </CharString>
          <CharString index="394">
            vvcurveto
            1 42 -19 32 -21 24 return
          </CharString>
          <CharString index="395">
            70 194 60 257 63 return
          </CharString>
          <CharString index="396">
            rmoveto
            237 callsubr
            return
          </CharString>
          <CharString index="397">
            3 28 5 16 17 9 return
          </CharString>
          <CharString index="398">
            1 7 0 8 9 vvcurveto
            return
          </CharString>
          <CharString index="399">
            37 128 50 -45 50 return
          </CharString>
          <CharString index="400">
            33 37 -26 hvcurveto
            -11 -8 return
          </CharString>
          <CharString index="401">
            128 89 vvcurveto
            100 return
          </CharString>
          <CharString index="402">
            17 -26 12 -77 -47 return
          </CharString>
          <CharString index="403">
            -76 callgsubr
            9 return
          </CharString>
          <CharString index="404">
            31 23 -23 -46 return
          </CharString>
          <CharString index="405">
            hvcurveto
            -47 26 352 callsubr
            return
          </CharString>
          <CharString index="406">
            57 130 54 180 63 hstemhm
            0 566 -345 58 return
          </CharString>
          <CharString index="407">
            -60 -45 -29 -90 hhcurveto
            -70 -34 13 30 34 45 24 139 return
          </CharString>
          <CharString index="408">
            380 callsubr
            182 63 hstemhm
            0 260 callgsubr
            return
          </CharString>
          <CharString index="409">
            rmoveto
            15 14 13 16 11 17 -81 80 -83 63 -83 46 rrcurveto
            return
          </CharString>
          <CharString index="410">
            5 11 19 hvcurveto
            -20 84 -17 100 102 vvcurveto
            154 13 50 return
          </CharString>
          <CharString index="411">
            27 10 29 11 return
          </CharString>
          <CharString index="412">
            16 16 24 vhcurveto
            hintmask 010000000000010000000000
            134 -36 rmoveto
            26 return
          </CharString>
          <CharString index="413">
            -39 9 -42 9 -18 9 -10 47 rlinecurve
            -11 -2 -17 -7 return
          </CharString>
          <CharString index="414">
            hhcurveto
            -35 -27 18 40 23 7 24 8 18 hvcurveto
            -12 8 return
          </CharString>
          <CharString index="415">
            -85 294 58 192 72 hstem
            32 58 111 57 return
          </CharString>
          <CharString index="416">
            -6 17 -7 12 -12 10 rrcurveto
            -31 -17 -18 -13 -24 hhcurveto
            return
          </CharString>
          <CharString index="417">
            162 callgsubr
            -100 -267 rmoveto
            -34 -27 return
          </CharString>
          <CharString index="418">
            4 412 67 hstem
            45 65 195 52 69 60 vstem
            return
          </CharString>
          <CharString index="419">
            -50 -38 -26 -40 -45 vvcurveto
            -45 32 -30 49 vhcurveto
            endchar
          </CharString>
          <CharString index="420">
            -170 65 157 68 -62 62 return
          </CharString>
          <CharString index="421">
            79 47 282 63 hstemhm
            61 57 return
          </CharString>
          <CharString index="422">
            -46 -35 12 29 34 43 21 101 return
          </CharString>
          <CharString index="423">
            55 -26 50 72 64 hstemhm
            -424 return
          </CharString>
          <CharString index="424">
            -12 -9 flex1
            20 13 27 24 return
          </CharString>
          <CharString index="425">
            22 vvcurveto
            -2 -14 -13 return
          </CharString>
          <CharString index="426">
            -76 callgsubr
            10 return
          </CharString>
          <CharString index="427">
            366 callsubr
            5 return
          </CharString>
          <CharString index="428">
            -122 -129 vvcurveto
            return
          </CharString>
          <CharString index="429">
            65 vvcurveto
            39 5 return
          </CharString>
          <CharString index="430">
            -42.5 118.5 hintmask 11100000
            return
          </CharString>
          <CharString index="431">
            12 22 127 callsubr
            -16 -32 return
          </CharString>
          <CharString index="432">
            318 callsubr
            -2 -12 hhcurveto
            -57 -44 33 55 return
          </CharString>
          <CharString index="433">
            -54 -43 -38 -61 -62 46 -46 62 56 40 39 52 return
          </CharString>
          <CharString index="434">
            151 33 200 169 237 callgsubr
            return
          </CharString>
          <CharString index="435">
            63 23 -34 -26 20 hvcurveto
            endchar
          </CharString>
          <CharString index="436">
            56 14 -40 -39 21 hvcurveto
            endchar
          </CharString>
          <CharString index="437">
            77 -77 65 -81 51 rrcurveto
            return
          </CharString>
          <CharString index="438">
            19 -4 30 -3 17 vhcurveto
            return
          </CharString>
          <CharString index="439">
            -16 1 -22 2 -16 rrcurveto
            return
          </CharString>
          <CharString index="440">
            63 56 305 callgsubr
            return
          </CharString>
          <CharString index="441">
            31 257 callsubr
            return
          </CharString>
          <CharString index="442">
            66 263 52 58 63 return
          </CharString>
          <CharString index="443">
            -25 8 -23 12 -23 rrcurveto
            return
          </CharString>
          <CharString index="444">
            -3 217 callgsubr
            return
          </CharString>
          <CharString index="445">
            50 214 61 -59 70 return
          </CharString>
          <CharString index="446">
            112 49 174 59 return
          </CharString>
          <CharString index="447">
            -47 76 -90 hhcurveto
            return
          </CharString>
          <CharString index="448">
            0 -9 0 -11 return
          </CharString>
          <CharString index="449">
            45 115 60 -40 48 51 63 -47 63 hstemhm
            return
          </CharString>
          <CharString index="450">
            -58 -26 177 callsubr
            -1 5 -1 6 return
          </CharString>
          <CharString index="451">
            123 63 83 97 60 -23 52 -34 40 hvcurveto
            return
          </CharString>
          <CharString index="452">
            28 37 rrcurveto
            32 42 31 51 65 vvcurveto
            12 -1 return
          </CharString>
          <CharString index="453">
            -19 rmoveto
            31 26 3 4 17 hvcurveto
            -9 48 -7 return
          </CharString>
          <CharString index="454">
            229 -173 69 -32 67 67 60 -12 61 return
          </CharString>
          <CharString index="455">
            4 -26 2 -28 -26 vvcurveto
            -108 -39 -57 -79 return
          </CharString>
          <CharString index="456">
            45 45 vvcurveto
            18 2 23 3 21 vhcurveto
            34 -30 return
          </CharString>
          <CharString index="457">
            hhcurveto
            -122 -74 -42 -73 -60 53 -40 78 hvcurveto
            return
          </CharString>
          <CharString index="458">
            -51 -44 -33 -60 -29 hvcurveto
            5 0 6 5 vvcurveto
            return
          </CharString>
          <CharString index="459">
            -51 36 -41 35 162 callgsubr
            return
          </CharString>
          <CharString index="460">
            61 -260 60 166 49 542 63 hstemhm
            return
          </CharString>
          <CharString index="461">
            -177 51 99 -200 203 hhcurveto
            endchar
          </CharString>
          <CharString index="462">
            362 callsubr
            -111 return
          </CharString>
          <CharString index="463">
            hstem
            363 callgsubr
            vstem
            return
          </CharString>
          <CharString index="464">
            50 -8 57 -7 56 -6 rrcurveto
            return
          </CharString>
          <CharString index="465">
            rrcurveto
            -16 -61 -10 -75 -78 vvcurveto
            return
          </CharString>
          <CharString index="466">
            -17 10 -23 -19 vvcurveto
            -30 -18 return
          </CharString>
          <CharString index="467">
            63 hstemhm
            -18 57 277 61 return
          </CharString>
          <CharString index="468">
            -42 -18 -24 -22 -27 -15 32 return
          </CharString>
          <CharString index="469">
            -106 -69 -85 -145 return
          </CharString>
          <CharString index="470">
            16 17 9 9 4 return
          </CharString>
          <CharString index="471">
            4 86 8 87 vhcurveto
            return
          </CharString>
          <CharString index="472">
            -76 callgsubr
            11 return
          </CharString>
          <CharString index="473">
            hvcurveto
            -13 8 -16 return
          </CharString>
          <CharString index="474">
            flex1
            93 -13 -47 78 -87 hhcurveto
            hintmask 11110100
            return
          </CharString>
          <CharString index="475">
            vhcurveto
            -80 -47 1 -26 11 -26 18 -18 rlinecurve
            return
          </CharString>
          <CharString index="476">
            55 hstemhm
            -13 65 40 76 -9 67 65 65 return
          </CharString>
          <CharString index="477">
            rmoveto
            116 149 99 94 52 -44 33 return
          </CharString>
          <CharString index="478">
            -20 50 264 58 -41 64 169 72 return
          </CharString>
          <CharString index="479">
            -237 31 148 -202 182 hhcurveto
            return
          </CharString>
          <CharString index="480">
            136 -43 120 -78 120 -130 return
          </CharString>
          <CharString index="481">
            -35 -9 -34 -13 -25 -17 rrcurveto
            -16 37 -16 return
          </CharString>
          <CharString index="482">
            -46 53 -79 24 -1 28 1 19 10 rrcurveto
            return
          </CharString>
          <CharString index="483">
            -56 333 40 184 63 hstem
            45 61 return
          </CharString>
          <CharString index="484">
            63 hstem
            27 48 252 63 vstem
            332 return
          </CharString>
          <CharString index="485">
            336 -42 284 callgsubr
            return
          </CharString>
          <CharString index="486">
            63 hstemhm
            -13 56 153 47 172 60 return
          </CharString>
          <CharString index="487">
            50 281 64 return
          </CharString>
          <CharString index="488">
            16 -117 hhcurveto
            return
          </CharString>
          <CharString index="489">
            -14 -35 -38 vvcurveto
            return
          </CharString>
          <CharString index="490">
            4 5 5 hvcurveto
            return
          </CharString>
        <CharString name=".notdef">
          -542 endchar
        </CharString>
        <CharString name=".null">
          -542 endchar
        </CharString>
        <CharString name="A">
          367 callgsubr
          hstem
          19 576 vstem
          518 -105 -105 callgsubr
        </CharString>
        <CharString name="AE">
          278 -44 60 182 58 96 63 251 65 hstem
          361 90 vstem
          426 -44 rmoveto
          111 2 118 8 125 18 1 16 -1 30 -5 18 -91 -19 -91 -9 -102 -4 -17 114 -12 108 -6 84 83 14 62 9 110 7 1 24 -3 20 -4 19 -96 -8 -73 -13 -85 -15 rrcurveto
          -7 102 -1 83 1 77 rrcurveto
          16 95 98 9 114 hhcurveto
          4 20 2 21 -1 24 -156 -3 -102 -16 -127 -23 -19 4 -22 5 -26 1 -71 -271 -69 -183 -143 -233 15 -16 20 -14 33 -8 40 70 36 68 32 67 58 10 69 7 71 2 rrcurveto
          9 -81 10 -81 12 -80 rrcurveto
          -202 284 rmoveto
          53 121 44 125 40 150 4 -108 10 -133 14 -139 -56 -3 -56 -5 -53 -8 rrcurveto
          endchar
        </CharString>
        <CharString name="Aacute">
          367 callgsubr
          468 175 hstem
          329 76 vstem
          341 747 rmoveto
          -106 callsubr
          177 -852 -105 callgsubr
        </CharString>
        <CharString name="Abreve">
          367 callgsubr
          481 50 hstem
          204 54 113 50 vstem
          204 873 -78 callsubr
          314 -978 -105 callgsubr
        </CharString>
        <CharString name="Acircumflex">
          367 callgsubr
          hstem
          19 576 vstem
          406 741 -103 callgsubr
          112 -846 -105 callgsubr
        </CharString>
        <CharString name="Adieresis">
          367 callgsubr
          470 124 hstem
          19 576 vstem
          438 862 -107 callsubr
          206 -967 -105 callgsubr
        </CharString>
        <CharString name="Agrave">
          367 callgsubr
          468 178 hstem
          223 76 vstem
          339 755 -88 callsubr
          179 -860 -105 callgsubr
        </CharString>
        <CharString name="Amacron">
          367 callgsubr
          481 58 hstem
          217 193 vstem
          214 773 -87 callgsubr
          304 -878 -105 callgsubr
        </CharString>
        <CharString name="Aogonek">
          73 -290 53 456 60 hstem
          454 63 vstem
          535 -290 rmoveto
          46 30 22 36 24 hvcurveto
          309 callsubr
          -23 -11 14 24 35 17 34 46 42 hvcurveto
          5 2 5 3 5 3 -50 337 -67 200 -124 239 -25 6 -22 2 -33 1 -60 -262 -58 -186 -137 -242 16 -15 21 -15 32 -6 40 78 34 73 29 72 78 12 93 6 95 -1 rrcurveto
          23 -92 19 -104 18 -124 rrcurveto
          -41 -35 -22 -37 -42 vvcurveto
          -45 31 -30 50 vhcurveto
          -321 551 rmoveto
          42 112 31 112 29 126 52 -107 40 -103 34 -122 -75 -2 -80 -5 -73 -11 rrcurveto
          endchar
        </CharString>
        <CharString name="Aring">
          367 callgsubr
          464 37 117 34 hstem
          227 55 82 57 vstem
          334 931 -23 callgsubr
          191 -1002 -105 callgsubr
        </CharString>
        <CharString name="Atilde">
          367 callgsubr
          468 55 -21 54 hstemhm
          200 46 133 46 hintmask 11011000
          355 802 rmoveto
          hintmask 10111000
          -46 callsubr
          hintmask 11011000
          -46 callgsubr
          163 -907 -105 callgsubr
        </CharString>
        <CharString name="B">
          32 -20 56 649 55 hstemhm
          73 76 255 80 -31 81 hintmask 11101000
          223 -20 rmoveto
          177 134 127 152 85 -55 57 -110 16 hvcurveto
          hintmask 11110000
          95 45 20 64 51 vvcurveto
          100 -82 63 -150 -62 -62 -13 -26 -56 vhcurveto
          -66 1 -49 -48 vvcurveto
          -167 3 -123 11 -232 vhcurveto
          hintmask 11101000
          -20 32 52 -16 52 hhcurveto
          30 705 rmoveto
          hintmask 11110000
          103 48 -47 -70 -87 -62 -58 -193 -17 hvcurveto
          80 1 88 8 98 vhcurveto
          hintmask 11101000
          8 30 33 5 32 hhcurveto
          -20 -649 rmoveto
          -27 -27 6 11 -24 hvcurveto
          -4 60 -2 60 85 27 0 29 30 vvcurveto
          13 36 62 14 52 hhcurveto
          116 38 -54 -77 -106 -96 -98 -124 hvcurveto
          endchar
        </CharString>
        <CharString name="C">
          262 callgsubr
          489 209 13 callsubr
        </CharString>
        <CharString name="CR">
          -542 endchar
        </CharString>
        <CharString name="Cacute">
          5 -35 58 612 58 58 175 hstemhm
          46 84 200 76 5 78 -65 65 hintmask 11111010
          342 751 rmoveto
          -106 callsubr
          hintmask 11010010
          147 -542 rmoveto
          19 callgsubr
          hintmask 11010100
          1 callgsubr
          -208 87 -108 141 hvcurveto
          hintmask 11010010
          134 73 86 158 8 hvcurveto
          endchar
        </CharString>
        <CharString name="Ccaron">
          262 callgsubr
          320 737 -105 callsubr
          169 -528 13 callsubr
        </CharString>
        <CharString name="Ccedilla">
          5 -249 46 86 40 42 58 612 58 hstemhm
          46 84 187 62 32 78 -65 65 hintmask 11111101
          271 -249 rmoveto
          113 callgsubr
          8 16 4 14 2 14 125 7 67 85 8 152 19 callgsubr
          hintmask 11111110
          1 callgsubr
          -191 73 -106 121 -17 hvcurveto
          -6 -23 -9 -23 -14 -22 -64 callsubr
          hintmask 11111101
          184 callgsubr
        </CharString>
        <CharString name="D">
          344 callgsubr
          148 -11 4 callgsubr
        </CharString>
        <CharString name="Dcaron">
          344 callgsubr
          261 758 -105 callsubr
          -113 -769 4 callgsubr
        </CharString>
        <CharString name="Dcroat">
          -65 callgsubr
        </CharString>
        <CharString name="E">
          81 callgsubr
          hstem
          58 94 vstem
          126 -41 -104 callsubr
        </CharString>
        <CharString name="Eacute">
          81 callgsubr
          24 175 hstemhm
          58 94 86 76 vstemhm
          250 759 rmoveto
          -106 callsubr
          -124 -800 rmoveto
          111 3 119 7 124 18 2 17 -2 29 -5 19 -91 -20 -90 -9 -103 -3 -17 113 -11 109 -7 84 -48 callgsubr
          rrcurveto
          hintmask 11101000
          166 callgsubr
          94 16 99 9 113 1 rrcurveto
          4 19 2 22 24 vvcurveto
          -161 -4 -106 -17 -132 -23 rrcurveto
          hintmask 11111100
          3 -188 26 -285 39 -259 rrcurveto
          endchar
        </CharString>
        <CharString name="Ecaron">
          81 callgsubr
          hstem
          58 94 vstem
          257 774 -105 callsubr
          -131 -815 -104 callsubr
        </CharString>
        <CharString name="Ecircumflex">
          81 callgsubr
          hstem
          58 94 vstem
          345 764 -103 callgsubr
          -219 -805 -104 callsubr
        </CharString>
        <CharString name="Edieresis">
          81 callgsubr
          37 124 hstem
          58 94 vstem
          378 885 -107 callsubr
          -126 -926 -104 callsubr
        </CharString>
        <CharString name="Edotaccent">
          81 callgsubr
          42 124 hstem
          58 94 vstem
          325 890 -104 callgsubr
          -199 -931 -104 callsubr
        </CharString>
        <CharString name="Egrave">
          81 callgsubr
          21 178 hstemhm
          58 94 28 76 vstemhm
          296 764 -88 callsubr
          hintmask 11101000
          -170 -805 -104 callsubr
        </CharString>
        <CharString name="Emacron">
          81 callgsubr
          47 58 hstemhm
          58 94 4 193 hintmask 11110100
          153 795 -87 callgsubr
          hintmask 11111000
          -27 -836 -104 callsubr
        </CharString>
        <CharString name="Eogonek">
          -22 -218 53 124 61 336 62 252 65 hstem
          58 94 198 64 vstem
          431 -218 rmoveto
          47 30 21 36 24 hvcurveto
          -6 18 -8 12 -11 10 rrcurveto
          -32 -17 -18 -12 -24 hhcurveto
          -23 -11 14 24 35 18 35 48 44 hvcurveto
          2 17 -2 29 -5 19 -91 -20 -90 -9 -103 -3 -17 113 -11 109 -7 84 -48 callgsubr
          166 callgsubr
          rrcurveto
          94 16 99 9 113 1 rrcurveto
          4 19 2 22 24 vvcurveto
          -161 -4 -106 -17 -132 -23 3 -188 26 -285 39 -259 95 3 100 5 105 13 rrcurveto
          312 callsubr
        </CharString>
        <CharString name="Eth">
          -65 callgsubr
        </CharString>
        <CharString name="Euro">
          -27 -40 56 175 57 -53 52 78 53 -50 53 231 56 hstemhm
          104 80 230 67 hintmask 11010111
          292 -40 rmoveto
          116 55 83 147 19 hvcurveto
          -19 13 -20 6 -24 1 rrcurveto
          -117 -39 -77 -72 vhcurveto
          hintmask 10101111
          -67 -40 65 114 -13 hvcurveto
          46 3 48 7 58 9 4 14 2 21 -1 16 -63 -9 -51 -6 -47 -3 rrcurveto
          -1 13 0 14 0 14 0 14 0 13 13 flex1
          47 4 49 6 59 9 4 15 2 20 -1 16 -61 -9 -49 -5 -46 -3 rrcurveto
          153 18 64 78 63 hhcurveto
          63 27 -53 -131 -12 hvcurveto
          30 1 19 4 21 9 rrcurveto
          156 8 -47 70 -96 hhcurveto
          hintmask 11010111
          -124 -88 -114 -176 -24 hvcurveto
          -30 -30 2 2 -34 hvcurveto
          -4 332 callsubr
          -2 32 29 -1 28 hhcurveto
          0 -16 -1 -16 0 -17 0 -11 0 -10 -11 flex1
          -28 1 -28 1 -31 2 -3 332 callsubr
          -2 32 30 -1 29 hhcurveto
          -152 18 69 -79 97 hhcurveto
          endchar
        </CharString>
        <CharString name="F">
          -36 380 63 hstem
          104 71 vstem
          177 -72 rmoveto
          3 118 -1 93 -4 187 rrcurveto
          10 -1 11 10 vvcurveto
          72 10 80 9 77 4 rrcurveto
          25 -3 19 -4 19 vhcurveto
          -77 -4 -74 -9 -73 -15 -4 85 -7 84 -12 80 107 8 89 14 115 19 1 11 1 12 -1 13 -1 11 -3 12 -4 10 -134 -26 -95 -14 -167 -13 40 -247 12 -268 -5 -284 rrcurveto
          23 -1 28 2 22 5 rrcurveto
          endchar
        </CharString>
        <CharString name="G">
          26 -21 64 623 58 hstemhm
          46 82 272 86 -85 80 hintmask 11110000
          538 -21 8 callgsubr
          hintmask 11101000
          28 callsubr
          hintmask 11110000
          115 callsubr
          endchar
        </CharString>
        <CharString name="Gbreve">
          26 -21 64 623 58 41 50 hstemhm
          46 82 51 54 113 50 4 86 -85 80 hintmask 11111100
          179 878 -78 callsubr
          hintmask 11111010
          359 -899 8 callgsubr
          hintmask 11111001
          28 callsubr
          hintmask 11111010
          115 callsubr
          endchar
        </CharString>
        <CharString name="H">
          61 342 64 hstem
          65 82 304 78 vstem
          529 -55 rmoveto
          206 -9 339 -12 242 vhcurveto
          6 -9 -14 4 -13 hhcurveto
          -16 -12 -3 -4 -16 hvcurveto
          7 -77 5 -122 4 -130 -104 -1 -96 -7 -97 -17 -1 128 3 123 7 76 rrcurveto
          4 -14 -12 2 -15 hhcurveto
          -21 -18 -5 -5 -11 hvcurveto
          -215 6 -237 15 -245 vhcurveto
          23 -2 29 3 18 5 -5 85 -3 112 -1 113 98 14 101 4 100 1 rrcurveto
          3 -147 2 -148 -93 vvcurveto
          -4 16 36 -5 26 hhcurveto
          endchar
        </CharString>
        <CharString name="I">
          -307 -28 708 hstem
          83 73 vstem
          149 -20 -92 callsubr
        </CharString>
        <CharString name="Iacute">
          -307 -28 945 -178 175 hstemhm
          83 73 -47 76 hintmask 01010000
          121 739 rmoveto
          -106 callsubr
          hintmask 10100000
          28 -759 -92 callsubr
        </CharString>
        <CharString name="Icircumflex">
          -307 -28 916 hstem
          83 73 vstem
          188 729 -103 callgsubr
          -39 -749 -92 callsubr
        </CharString>
        <CharString name="Idieresis">
          -307 755 124 hstem
          83 73 vstem
          229 868 -107 callsubr
          46 -888 -92 callsubr
        </CharString>
        <CharString name="Idotaccent">
          -307 760 124 hstem
          83 73 vstem
          171 873 -104 callgsubr
          -22 -893 -92 callsubr
        </CharString>
        <CharString name="Igrave">
          -307 -28 943 -179 178 hstemhm
          12 76 -5 73 hintmask 01100000
          128 744 -88 callsubr
          hintmask 10010000
          21 -764 -92 callsubr
        </CharString>
        <CharString name="Imacron">
          -307 772 58 hstemhm
          11 193 -121 73 hintmask 11000000
          8 785 -87 callgsubr
          hintmask 10100000
          141 -805 -92 callsubr
        </CharString>
        <CharString name="Iogonek">
          -307 -226 53 hstemhm
          15 63 5 73 hintmask 11000000
          96 -226 rmoveto
          47 29 21 36 24 hvcurveto
          -6 18 280 callsubr
          -24 hhcurveto
          -23 -11 14 24 35 18 35 48 44 hvcurveto
          2 1 1 2 hhcurveto
          hintmask 10100000
          8 215 -1 140 152 vvcurveto
          69 -1 57 -4 64 vhcurveto
          2 -11 -9 1 -12 hhcurveto
          -21 -17 -5 -8 -15 hvcurveto
          16 -216 4 -240 -3 -239 rrcurveto
          2 3 0 3 hhcurveto
          hintmask 11000000
          312 callsubr
        </CharString>
        <CharString name="J">
          -84 -88 60 hstem
          298 82 vstem
          201 -88 rmoveto
          74 50 54 93 26 hvcurveto
          23 81 6 98 120 vvcurveto
          120 -10 129 -13 116 vhcurveto
          -14 1 -14 0 -13 -2 -20 -2 -18 -5 -12 -7 rrcurveto
          21 -178 11 -150 -151 vvcurveto
          -186 -36 -71 -59 -53 -28 46 166 -20 vhcurveto
          -27 -6 -22 -7 -20 -13 rrcurveto
          -154 17 59 -92 92 hhcurveto
          endchar
        </CharString>
        <CharString name="K">
          20 -84 788 hstem
          66 79 vstem
          -24 callgsubr
          endchar
        </CharString>
        <CharString name="L">
          -62 -72 66 hstem
          71 80 vstem
          470 -72 rmoveto
          331 callsubr
          -39 callsubr
          108 15 95 10 150 1 rrcurveto
          endchar
        </CharString>
        <CharString name="Lacute">
          -62 -72 66 720 175 hstemhm
          71 80 -32 76 hintmask 11010000
          131 714 rmoveto
          -106 callsubr
          339 -786 rmoveto
          331 callsubr
          hintmask 10100000
          -39 callsubr
          rrcurveto
          hintmask 11010000
          108 15 95 10 150 1 rrcurveto
          endchar
        </CharString>
        <CharString name="Lcaron">
          -62 -72 66 hstem
          71 80 123 78 vstem
          294 463 -13 callgsubr
          176 -535 rmoveto
          331 callsubr
          -39 callsubr
          108 15 95 10 150 1 rrcurveto
          endchar
        </CharString>
        <CharString name="Lslash">
          -76 -72 66 hstemhm
          75 69 -64 70 hintmask 10100000
          111 -98 rmoveto
          107 15 95 10 150 1 rrcurveto
          331 callsubr
          -95 -102 -10 -13 -84 hvcurveto
          -13 92 -8 81 -4 78 69 46 67 48 72 56 -11 23 -10 16 -14 13 rrcurveto
          hintmask 11000000
          -62 -48 -57 -42 -58 -39 rrcurveto
          -1 31 -1 30 31 vvcurveto
          101 1 92 8 92 vhcurveto
          1 -7 -10 1 -9 hhcurveto
          -25 -17 -3 -8 -21 hvcurveto
          -3 -131 4 -141 10 -143 -41 -26 -42 -25 -46 -25 8 -23 10 -16 15 -15 rrcurveto
          hintmask 10100000
          35 20 34 20 32 20 8 -93 11 -92 12 -91 rrcurveto
          endchar
        </CharString>
        <CharString name="M">
          198 -56 811 hstem
          71 68 455 64 vstem
          579 -56 rmoveto
          31 24 4 9 24 hvcurveto
          7 237 5 313 -11 226 -22 11 -26 7 -24 4 -92 -154 -72 -149 -51 -160 -53 176 -83 162 -87 125 -27 -5 -27 -12 -24 -13 -8 -227 16 -287 35 -215 rrcurveto
          24 30 4 5 19 hvcurveto
          -33 188 -15 171 143 vvcurveto
          48 0 30 2 36 vhcurveto
          90 -144 61 -142 50 -161 17 -2 20 1 16 6 57 183 63 140 79 131 3 -285 -5 -197 -13 -207 rrcurveto
          endchar
        </CharString>
        <CharString name="N">
          88 -40 797 hstem
          67 83 331 73 vstem
          169 -32 -102 callgsubr
          endchar
        </CharString>
        <CharString name="Nacute">
          88 740 175 hstem
          67 83 164 76 91 73 vstem
          326 740 rmoveto
          -106 callsubr
          -157 -772 -102 callgsubr
          endchar
        </CharString>
        <CharString name="Ncaron">
          88 -40 944 hstem
          67 83 331 73 vstem
          303 744 -105 callsubr
          -134 -776 -102 callgsubr
          endchar
        </CharString>
        <CharString name="Ntilde">
          88 783 55 -21 54 hstemhm
          67 83 32 46 133 46 74 73 hintmask 10101100
          337 838 rmoveto
          hintmask 01111100
          -46 callsubr
          hintmask 10101100
          -46 callgsubr
          -168 -870 -102 callgsubr
          endchar
        </CharString>
        <CharString name="O">
          185 callgsubr
          hstem
          44 83 343 82 vstem
          552 394 -102 callsubr
        </CharString>
        <CharString name="OE">
          349 -38 61 -58 59 332 62 239 60 -48 65 hstemhm
          45 82 313 83 hintmask 10101110
          497 -38 rmoveto
          111 3 119 7 124 18 2 17 -2 29 -5 19 -91 -20 -90 -9 -103 -3 -17 113 -11 107 -7 83 -48 callgsubr
          rrcurveto
          166 callgsubr
          94 15 99 9 113 1 rrcurveto
          4 19 2 22 24 vvcurveto
          -161 -3 -106 -18 -132 -23 rrcurveto
          hintmask 01010110
          -7 0 -7 -7 vvcurveto
          31 -32 -41 17 -51 hhcurveto
          -167 -93 -169 -224 -204 91 -155 147 96 61 63 89 35 hvcurveto
          hintmask 10101110
          7 -52 7 -52 8 -51 rrcurveto
          hintmask 01010110
          -57 399 rmoveto
          -190 2 -44 -147 -107 hhcurveto
          -119 -45 170 141 193 57 129 108 96 50 -101 -195 2 hvcurveto
          endchar
        </CharString>
        <CharString name="Oacute">
          185 callgsubr
          32 175 hstem
          44 83 175 76 92 82 vstem
          314 765 rmoveto
          -106 callsubr
          238 -371 -102 callsubr
        </CharString>
        <CharString name="Ocircumflex">
          185 callgsubr
          hstem
          44 83 343 82 vstem
          405 762 -103 callgsubr
          147 -368 -102 callsubr
        </CharString>
        <CharString name="Odieresis">
          185 callgsubr
          52 124 hstem
          44 83 343 82 vstem
          437 898 -107 callsubr
          241 -504 -102 callsubr
        </CharString>
        <CharString name="Ograve">
          185 callgsubr
          36 178 hstem
          44 83 104 76 163 82 vstem
          347 777 -88 callsubr
          205 -383 -102 callsubr
        </CharString>
        <CharString name="Ohungarumlaut">
          185 callgsubr
          30 175 hstemhm
          44 83 128 76 42 76 21 82 vstemhm
          385 763 rmoveto
          -106 callsubr
          -118 hmoveto
          -106 callsubr
          hintmask 11010010
          285 -369 -102 callsubr
        </CharString>
        <CharString name="Omacron">
          185 callgsubr
          78 58 hstem
          44 83 95 193 55 82 vstem
          219 824 -87 callgsubr
          333 -430 -102 callsubr
        </CharString>
        <CharString name="Oslash">
          44 -20 59 633 61 hstem
          38 83 342 82 vstem
          121 351 rmoveto
          192 79 129 107 39 31 -12 -26 25 vhcurveto
          -86 -186 -78 -162 -80 -148 rrcurveto
          -26 61 -11 79 73 vvcurveto
          155 -312 rmoveto
          -34 -27 15 25 -22 hvcurveto
          86 161 81 157 79 170 rrcurveto
          16 -46 8 -62 -82 vvcurveto
          -161 -53 -177 -134 vhcurveto
          -9 -59 rmoveto
          208 70 246 168 117 -22 88 -43 57 hvcurveto
          16 35 15 34 16 36 -17 15 -17 10 -18 7 -14 -31 -14 -31 -14 -30 rrcurveto
          21 -32 -38 11 -44 hhcurveto
          -168 -113 -170 -224 -114 28 -99 49 -65 hvcurveto
          -20 -36 -21 -35 -21 -34 15 -15 15 -9 26 -8 17 31 17 31 16 30 rrcurveto
          -23 31 36 -13 41 hhcurveto
          endchar
        </CharString>
        <CharString name="Otilde">
          185 callgsubr
          53 55 -21 54 hstemhm
          44 83 78 46 133 46 40 82 hintmask 11101011
          360 841 rmoveto
          hintmask 11011111
          -46 callsubr
          hintmask 11101011
          -46 callgsubr
          192 -447 -102 callsubr
        </CharString>
        <CharString name="P">
          8 687 55 hstem
          67 76 286 82 vstem
          161 -68 rmoveto
          -10 117 -6 87 -2 96 rrcurveto
          236 71 132 98 146 vvcurveto
          113 -81 82 -174 -62 -60 -11 -16 -60 vhcurveto
          -4 -49 -3 -80 347 callgsubr
          16 -4 35 -1 18 2 rrcurveto
          -18 404 rmoveto
          103 3 103 13 132 vhcurveto
          8 30 31 5 34 hhcurveto
          121 54 -59 -91 -118 -109 -79 -177 -47 hvcurveto
          13 0 15 15 vvcurveto
          endchar
        </CharString>
        <CharString name="Q">
          50 -40 59 593 61 hstem
          41 82 340 82 vstem
          529 -105 rmoveto
          20 14 19 18 11 21 -44 54 -34 40 -33 33 rrcurveto
          50 75 27 102 108 vvcurveto
          178 -65 135 -155 -169 -115 -167 -229 -198 93 -119 130 66 55 25 42 43 vhcurveto
          32 -37 32 -42 37 -53 rrcurveto
          -258 124 rmoveto
          -94 -54 109 161 194 79 129 113 98 50 -89 -180 -86 -16 -77 -29 -57 hvcurveto
          -28 24 -29 22 -35 25 -14 -9 -9 -18 -8 -11 33 -27 29 -26 28 -29 rrcurveto
          -35 -30 -39 -20 -45 hhcurveto
          endchar
        </CharString>
        <CharString name="R">
          20 713 57 hstem
          90 76 245 81 vstem
          472 -28 -97 callsubr
          endchar
        </CharString>
        <CharString name="Racute">
          20 713 57 31 175 hstem
          90 76 66 76 103 81 vstem
          244 801 rmoveto
          -106 callsubr
          228 -829 -97 callsubr
          endchar
        </CharString>
        <CharString name="Rcaron">
          20 713 57 hstem
          90 76 245 81 vstem
          250 810 -105 callsubr
          222 -838 -97 callsubr
          endchar
        </CharString>
        <CharString name="S">
          -67 -40 57 244 callgsubr
          193 81 hintmask 11011000
          433 148 -21 callgsubr
          hintmask 11101000
          45 callgsubr
          hintmask 11011000
          289 callgsubr
          endchar
        </CharString>
        <CharString name="Sacute">
          -67 -40 57 691 59 33 175 hstemhm
          31 72 -26 82 98 76 19 81 hintmask 11101110
          269 800 rmoveto
          -106 callsubr
          hintmask 11001010
          164 -652 -21 callgsubr
          hintmask 11010010
          45 callgsubr
          hintmask 11001010
          289 callgsubr
          endchar
        </CharString>
        <CharString name="Scaron">
          -67 -40 57 244 callgsubr
          193 81 hintmask 11011000
          266 797 -105 callsubr
          167 -649 -21 callgsubr
          hintmask 11101000
          45 callgsubr
          hintmask 11011000
          289 callgsubr
          endchar
        </CharString>
        <CharString name="T">
          48 722 69 hstem
          287 79 vstem
          287 24 rmoveto
          29 1 28 4 17 5 -73 callgsubr
          endchar
        </CharString>
        <CharString name="Tcaron">
          48 722 69 hstem
          287 79 vstem
          280 818 -105 callsubr
          7 -794 rmoveto
          29 1 28 4 17 5 -73 callgsubr
          endchar
        </CharString>
        <CharString name="Thorn">
          -5 549 55 hstem
          61 75 291 82 vstem
          154 -68 rmoveto
          -5 60 -3 53 -3 50 rrcurveto
          235 71 131 97 146 vvcurveto
          113 -81 82 -174 -37 -36 -4 -6 -36 vhcurveto
          3 35 3 37 4 39 -26 10 -31 4 -30 -3 rrcurveto
          -4 -49 -3 -81 347 callgsubr
          17 -4 29 -1 22 2 rrcurveto
          -18 404 rmoveto
          63 1 64 4 70 vhcurveto
          11 35 37 5 39 hhcurveto
          120 55 -59 -91 -118 -109 -79 -178 -48 hvcurveto
          -3 59 -1 57 66 vvcurveto
          endchar
        </CharString>
        <CharString name="U">
          369 callgsubr
          489 370 rmoveto
          -98 callsubr
          136 callsubr
          vhcurveto
          endchar
        </CharString>
        <CharString name="Uacute">
          5 -80 62 707 175 hstem
          54 84 119 76 73 83 vstem
          269 689 rmoveto
          -106 callsubr
          220 -319 rmoveto
          -98 callsubr
          136 callsubr
          vhcurveto
          endchar
        </CharString>
        <CharString name="Ucircumflex">
          369 callgsubr
          345 731 -103 callgsubr
          144 -361 rmoveto
          -98 callsubr
          136 callsubr
          vhcurveto
          endchar
        </CharString>
        <CharString name="Udieresis">
          5 -80 62 756 124 hstem
          54 84 268 83 vstem
          388 851 -107 callsubr
          227 -481 rmoveto
          -98 callsubr
          136 callsubr
          vhcurveto
          endchar
        </CharString>
        <CharString name="Ugrave">
          5 -80 62 709 178 hstemhm
          54 84 28 76 164 83 vstemhm
          282 699 -88 callsubr
          207 -329 42 callsubr
          hintmask 10101000
          11 callsubr
          hintmask 11111000
          136 callsubr
          hvcurveto
          endchar
        </CharString>
        <CharString name="Uhungarumlaut">
          5 -80 62 722 175 hstemhm
          54 84 53 76 42 76 21 83 vstemhm
          321 704 rmoveto
          -106 callsubr
          -118 hmoveto
          -106 callsubr
          hintmask 10100100
          286 -334 rmoveto
          -98 callsubr
          136 callsubr
          vhcurveto
          endchar
        </CharString>
        <CharString name="Umacron">
          5 -80 62 729 58 hstemhm
          54 84 7 193 68 83 hintmask 11011000
          142 724 -87 callgsubr
          347 -354 42 callsubr
          hintmask 11101000
          11 callsubr
          hintmask 11011000
          136 callsubr
          hvcurveto
          endchar
        </CharString>
        <CharString name="Uogonek">
          5 -268 49 139 62 hstem
          54 84 54 63 151 83 vstem
          275 -268 rmoveto
          42 33 18 36 24 hvcurveto
          -7 17 -7 12 -11 10 rrcurveto
          -31 -18 -18 -13 -23 hhcurveto
          -20 -15 17 30 40 28 44 51 28 hvcurveto
          98 51 57 116 263 vvcurveto
          -98 callsubr
          vhcurveto
          3 4 0 4 hhcurveto
          -41 -36 -18 -33 -41 vvcurveto
          -50 35 -28 48 vhcurveto
          endchar
        </CharString>
        <CharString name="Uring">
          5 -80 62 702 37 117 34 hstemhm
          54 84 16 55 82 57 58 83 hintmask 11110110
          261 872 rmoveto
          hintmask 11111110
          -66 -41 -40 -60 -50 37 -38 53 63 41 41 67 hvcurveto
          hintmask 11110110
          48 -32 32 -55 vhcurveto
          hintmask 11111110
          -7 -34 rmoveto
          19 18 -14 -39 -39 -17 -25 -25 -21 -19 18 33 42 20 24 25 hvcurveto
          235 -468 42 callsubr
          hintmask 11110110
          11 callsubr
          hintmask 11111110
          136 callsubr
          hvcurveto
          endchar
        </CharString>
        <CharString name="V">
          17 -95 856 hstem
          22 499 vstem
          282 -87 rmoveto
          137 265 callgsubr
          -305 -52 -203 -106 -255 -79 201 -53 214 -26 221 -30 -3 -24 -7 -26 -12 37 -260 67 -232 93 -215 rrcurveto
          23 20 2 6 20 hvcurveto
          endchar
        </CharString>
        <CharString name="W">
          204 -64 774 hstem
          16 715 vstem
          238 -53 rmoveto
          59 139 38 120 29 130 16 -114 30 -109 46 -150 23 2 18 2 21 5 123 266 53 201 37 248 -24 14 -25 8 -27 1 -24 -228 -46 -190 -89 -229 -53 181 -21 137 -9 163 rrcurveto
          -24 -1 -29 -4 -24 -6 -18 -160 -31 -120 -69 -199 -70 240 -36 177 -13 201 -34 -2 -25 -6 -24 -8 26 -249 40 -171 98 -300 19 1 21 4 18 6 rrcurveto
          endchar
        </CharString>
        <CharString name="X">
          100 -28 794 hstem
          16 577 vstem
          518 -28 rmoveto
          22 10 21 15 15 15 -65 157 -55 122 -62 110 69 91 67 95 63 103 -15 21 -21 20 -22 11 -57 -104 -58 -90 -61 -86 -60 100 -68 94 -89 110 -29 -11 -26 -18 -22 -20 rrcurveto
          97 -104 74 -96 70 -117 -90 -118 -92 -105 -108 -116 9 -15 17 -16 17 -11 108 109 87 102 88 109 56 -101 56 -118 64 -148 rrcurveto
          endchar
        </CharString>
        <CharString name="Y">
          -29 -83 811 hstem
          14 465 vstem
          159 -83 -43 callsubr
        </CharString>
        <CharString name="Yacute">
          -29 722 175 hstem
          244 76 vstem
          256 722 rmoveto
          -106 callsubr
          -97 -805 -43 callsubr
        </CharString>
        <CharString name="Ydieresis">
          -29 771 124 hstem
          14 465 vstem
          374 884 -107 callsubr
          -89 -967 -43 callsubr
        </CharString>
        <CharString name="Z">
          43 -34 75 hstem
          23 535 vstem
          503 -34 -91 callsubr
        </CharString>
        <CharString name="Zacute">
          43 -34 75 703 175 hstem
          344 76 vstem
          356 744 rmoveto
          -106 callsubr
          147 -778 -91 callsubr
        </CharString>
        <CharString name="Zcaron">
          43 -34 75 hstem
          23 535 vstem
          341 744 -105 callsubr
          162 -778 -91 callsubr
        </CharString>
        <CharString name="Zdotaccent">
          43 -34 75 709 124 hstem
          23 535 vstem
          408 863 -104 callgsubr
          95 -897 -91 callsubr
        </CharString>
        <CharString name="a">
          66 callsubr
          hstem
          27 79 210 79 vstem
          334 -34 -106 callgsubr
        </CharString>
        <CharString name="aacute">
          66 callsubr
          36 175 hstemhm
          27 79 146 76 -12 79 hintmask 11111100
          264 573 rmoveto
          -106 callsubr
          hintmask 11101010
          70 -607 -106 callgsubr
        </CharString>
        <CharString name="abreve">
          66 callsubr
          37 50 hstemhm
          27 79 38 54 113 50 -45 79 hintmask 11111110
          144 687 -78 callsubr
          hintmask 11111101
          190 -721 -106 callgsubr
        </CharString>
        <CharString name="acircumflex">
          66 callsubr
          hstem
          27 79 210 79 vstem
          337 568 -103 callgsubr
          -3 -602 -106 callgsubr
        </CharString>
        <CharString name="acute">
          -282 571 175 hstem
          106 76 vstem
          118 151 callgsubr
          endchar
        </CharString>
        <CharString name="adieresis">
          66 callsubr
          49 124 hstem
          27 79 210 79 vstem
          384 699 -107 callsubr
          76 -733 -106 callgsubr
        </CharString>
        <CharString name="ae">
          175 -16 54 -36 51 171 44 -31 50 183 55 -47 54 hstemhm
          27 79 208 75 203 73 hintmask 1001011110000000
          534 287 rmoveto
          -31 -52 3 18 -50 hvcurveto
          hintmask 1001101110000000
          86 21 49 76 60 hhcurveto
          49 12 -30 -51 -34 -7 -37 -7 -27 hvcurveto
          hintmask 1001011110000000
          -2 -9 -21 -2 -14 hhcurveto
          151 -155 rmoveto
          -16 16 -24 13 -21 4 rrcurveto
          -69 -19 -61 -58 -53 hhcurveto
          -68 155 callgsubr
          hintmask 1001101110000000
          80 -45 59 -81 -67 -55 -45 -61 -40 vhcurveto
          hintmask 0110011110000000
          60 -17 -40 53 -78 hhcurveto
          -96 -80 -74 -85 -15 hvcurveto
          12 -21 23 -12 36 -5 rrcurveto
          83 3 46 60 61 hhcurveto
          56 28 -36 -107 -17 1 -22 -1 -30 hvcurveto
          1 -20 -21 1 -31 hhcurveto
          -153 -64 -58 -79 -76 53 -53 91 67 56 23 56 47 hvcurveto
          hintmask 1001011110000000
          -59 28 48 -38 69 hhcurveto
          93 84 81 67 22 hvcurveto
          hintmask 0110011110000000
          -500 -79 rmoveto
          -52 -27 30 46 56 46 50 162 -11 hvcurveto
          -7 0 0 0 vhcurveto
          -37 5 -34 9 -31 vhcurveto
          -42 -41 -52 -20 -50 hhcurveto
          endchar
        </CharString>
        <CharString name="agrave">
          66 callsubr
          36 178 hstem
          27 79 69 76 65 79 vstem
          291 581 -88 callsubr
          43 -615 -106 callgsubr
        </CharString>
        <CharString name="amacron">
          66 callsubr
          48 58 hstemhm
          27 79 49 193 -32 79 hintmask 11111100
          152 598 -87 callgsubr
          hintmask 11111010
          182 -632 -106 callgsubr
        </CharString>
        <CharString name="ampersand">
          217 -57 57 671 50 hstem
          40 76 104 73 140 73 59 71 vstem
          293 528 rmoveto
          96 35 47 42 42 21 -37 -55 -69 -40 -55 -91 -23 vhcurveto
          -6 31 -3 32 33 vvcurveto
          32 -528 rmoveto
          -124 -85 76 120 89 53 59 73 25 hvcurveto
          37 -127 84 -105 110 -79 rrcurveto
          -36 -40 -51 -22 -57 hhcurveto
          334 -43 rmoveto
          23 12 18 19 9 22 -49 20 -45 22 -40 24 36 54 23 69 2 85 1 31 -1 30 -4 36 -31 8 -27 -1 -20 -5 rrcurveto
          8 -36 3 -29 -39 vvcurveto
          -62 -17 -58 -29 -46 vhcurveto
          -110 79 -68 95 -30 106 rrcurveto
          125 29 70 66 98 vvcurveto
          81 -52 54 -75 -103 -56 -82 -118 -38 4 -37 7 -36 vhcurveto
          -130 -35 -61 -88 -103 vvcurveto
          -133 100 -108 179 77 75 27 52 57 vhcurveto
          41 -25 44 -22 46 -18 rrcurveto
          endchar
        </CharString>
        <CharString name="aogonek">
          -92 -231 53 185 51 171 44 210 54 hstem
          27 79 73 63 74 79 vstem
          193 58 rmoveto
          -51 -36 30 50 52 39 49 168 -10 hvcurveto
          -3 -45 -6 -41 -10 -51 rrcurveto
          -22 -29 -34 -12 -38 hhcurveto
          167 -231 rmoveto
          309 callsubr
          -22 -12 15 23 35 17 33 43 41 hvcurveto
          -2 11 11 -1 10 hhcurveto
          29 106 32 171 98 vvcurveto
          98 -30 98 -123 -98 -78 -75 -83 -15 vhcurveto
          12 -22 23 -12 36 -5 rrcurveto
          83 3 46 60 61 hhcurveto
          57 27 -40 -112 -22 0 -20 -1 -18 hvcurveto
          1 -20 -20 1 -31 hhcurveto
          -151 -66 -51 -82 -80 61 -53 91 42 36 12 19 26 hvcurveto
          -4 -18 -5 -20 -5 -22 rrcurveto
          -59 -41 -31 -43 -50 vvcurveto
          -45 32 -30 49 47 30 22 36 23 vhcurveto
          endchar
        </CharString>
        <CharString name="approxequal">
          -188 211 51 -15 51 43 51 -15 51 hstemhm
          29 42 208 45 hintmask 10101100
          238 392 rmoveto
          hintmask 10011100
          67 callsubr
          1 -130 rmoveto
          hintmask 01101100
          67 callsubr
          endchar
        </CharString>
        <CharString name="aring">
          66 callsubr
          38 37 117 34 hstemhm
          27 79 50 55 82 57 -34 79 hintmask 1111111100000000
          263 763 -23 callgsubr
          hintmask 1111111010000000
          78 -763 -106 callgsubr
        </CharString>
        <CharString name="asa_ba">
          -76 -60 callsubr
          -291 -75 rmoveto
          60 -12 79 -42 39 -58 13 5 10 8 5 10 -35 70 -87 54 -63 20 -11 -15 -7 -20 -3 -20 rrcurveto
          endchar
        </CharString>
        <CharString name="asa_ba.half">
          -75 235 callsubr
          -87 callsubr
          -89 141 rmoveto
          -32 1 -25 2 -20 vhcurveto
          -53 71 -71 47 -77 25 60 43 85 44 64 23 rrcurveto
          -7 -55 -4 -56 -65 vvcurveto
          -51 -175 rmoveto
          -37 77 -74 45 -76 21 -26 -40 rcurveline
          78 -13 70 -39 48 -75 rrcurveto
          endchar
        </CharString>
        <CharString name="asa_ba_ukaar">
          -66 callsubr
          116 18 118 hhcurveto
          14 14 0 -1 14 hvcurveto
          -3 -19 381 callgsubr
          -121 -54 -122 -88 -61 -74 2 -27 8 -23 23 -26 rrcurveto
          hintmask 11101100
          75 callsubr
        </CharString>
        <CharString name="asa_ba_uukaar">
          -19 callsubr
          -15 -49 -22 -49 -22 rlinecurve
          4 48 5 45 9 51 rrcurveto
          hintmask 11000000
          -90 callsubr
          hintmask 10110000
          75 callsubr
        </CharString>
        <CharString name="asa_ra">
          -76 235 callsubr
          -33 122 hintmask 11000000
          404 -3 rmoveto
          -22 79 -5 127 89 vvcurveto
          100 4 67 15 84 vhcurveto
          hintmask 10100000
          25 -4 24 -4 21 -1 callgsubr
          -75 hhcurveto
          -88 -100 -14 -16 -60 hvcurveto
          -4 -6 -2 -10 0 -11 0 -13 2 -11 -8 flex1
          13 61 96 13 87 hhcurveto
          33 34 -2 -4 33 hvcurveto
          -3 -15 -2 -15 -2 -15 -121 -54 -123 -87 -61 -73 3 -28 7 -24 23 -26 rrcurveto
          hintmask 11000000
          107 -24 90 -71 71 -137 rrcurveto
          24 28 4 12 19 hvcurveto
          -89 237 rmoveto
          -31 51 -42 37 -45 24 44 32 47 29 39 18 -7 -60 -3 -62 -2 -69 rrcurveto
          4 -159 rmoveto
          -56 96 -79 59 -81 35 15 15 17 16 18 15 63 -19 56 -44 43 -75 rrcurveto
          -41 2 -31 2 -26 vhcurveto
          endchar
        </CharString>
        <CharString name="asa_ra.half">
          -75 556 63 hstemhm
          316 61 -87 callsubr
          -88 185 rmoveto
          -29 35 -38 25 -41 18 41 22 42 19 35 13 -6 -42 -3 -43 -1 -47 rrcurveto
          2 -121 rmoveto
          -53 71 -71 47 -77 25 13 9 15 10 15 9 60 -14 54 -33 41 -54 rrcurveto
          -25 1 -25 2 -20 vhcurveto
          endchar
        </CharString>
        <CharString name="asa_ra_ukaar">
          101 callgsubr
          62 194 52 hintmask 11101100
          351 callgsubr
          43 32 45 27 37 18 -6 -59 -3 -61 -2 -67 rrcurveto
          3 -155 169 callsubr
          86 -83 rmoveto
          -18 65 -7 98 -1 82 -53 callsubr
          267 callsubr
        </CharString>
        <CharString name="asa_ra_uukaar">
          104 563 317 callgsubr
          -51 55 108 55 hintmask 10101000
          351 callgsubr
          rrcurveto
          hintmask 10011000
          43 32 45 27 37 18 rrcurveto
          hintmask 10101000
          -6 -59 -3 -61 -2 -67 rrcurveto
          89 -238 rmoveto
          -22 79 -5 128 89 vvcurveto
          18 0 18 1 16 vhcurveto
          41 20 39 19 40 15 rrcurveto
          -6 -36 -51 callgsubr
          rlineto
          hintmask 10011000
          -48 -15 -49 -22 -49 -22 4 48 5 45 9 51 rrcurveto
          hintmask 11000000
          -90 callsubr
          hintmask 10101000
          -22 callgsubr
          -86 83 169 callsubr
          endchar
        </CharString>
        <CharString name="asciicircum">
          -147 201 304 hstem
          24 346 vstem
          322 201 rmoveto
          18 3 10 5 20 8 -43 107 -49 94 -61 84 -39 3 rcurveline
          -60 -77 -52 -100 -42 -108 16 -9 15 -6 17 -2 40 94 39 79 44 63 46 -69 40 -73 41 -96 rrcurveto
          endchar
        </CharString>
        <CharString name="asciitilde">
          -188 282 51 -15 51 hstemhm
          29 42 208 45 hintmask 10110000
          238 333 rmoveto
          hintmask 01110000
          -35 -49 36 -49 hhcurveto
          -50 -31 -35 -51 5 hvcurveto
          13 -4 15 -4 14 1 rrcurveto
          29 -2 12 13 29 hhcurveto
          hintmask 10110000
          33 49 -36 54 hhcurveto
          50 33 35 52 -5 hvcurveto
          -15 6 -13 3 -17 -1 rrcurveto
          -28 2 -14 -16 -29 hhcurveto
          endchar
        </CharString>
        <CharString name="asterisk">
          -102 309 403 hstemhm
          194 47 -44 48 hintmask 11000000
          251 315 rmoveto
          -5 54 -3 44 -2 57 58 -41 37 -24 40 -22 5 7 3 3 5 9 7 11 6 17 3 11 -49 22 -40 20 -49 27 63 29 40 20 38 23 -4 8 0 4 -5 9 rrcurveto
          -6 12 -12 14 -7 8 rrcurveto
          hintmask 10100000
          -44 -33 -37 -25 -48 -28 6 70 2 43 -1 46 rrcurveto
          1 -10 -4 1 -9 hhcurveto
          -13 -17 -2 -3 -11 hvcurveto
          5 -53 2 -45 2 -55 -56 39 -38 24 -40 21 -5 -7 -3 -3 -5 -8 -7 -11 -6 -17 -3 -11 49 -22 39 -19 49 -27 -63 -30 -38 -20 -39 -24 4 -8 1 -4 4 -8 rrcurveto
          6 -12 12 -14 7 -9 rrcurveto
          hintmask 11000000
          44 31 38 25 47 29 -6 -69 -3 -45 2 -43 rrcurveto
          -2 10 4 -1 9 hhcurveto
          13 18 3 3 10 hvcurveto
          endchar
        </CharString>
        <CharString name="at">
          339 -97 53 129 49 -38 53 333 50 135 53 hstemhm
          42 66 146 69 164 65 201 64 hintmask 1101111110000000
          413 -97 rmoveto
          84 78 21 40 65 hvcurveto
          -11 20 -7 14 -17 15 rrcurveto
          -39 -48 -59 -18 -77 hhcurveto
          -196 -117 135 214 219 136 143 199 208 102 -139 -170 -138 -56 -86 -70 -51 -24 49 127 62 3 69 8 112 hvcurveto
          -27 6 -26 -2 -24 -8 rrcurveto
          -8 0 -9 -9 vvcurveto
          5 -16 -19 4 -18 hhcurveto
          -103 -76 -90 -149 hvcurveto
          hintmask 1011111110000000
          -120 56 -77 78 48 38 25 65 26 vhcurveto
          hintmask 1101111110000000
          -68 18 43 -33 63 hhcurveto
          104 89 103 168 184 -105 180 -257 -255 -158 -170 -261 -235 151 -151 220 hvcurveto
          hintmask 1011111110000000
          -15 246 rmoveto
          -44 -31 53 101 115 53 64 65 19 15 -3 -4 12 hvcurveto
          1 -78 2 -82 1 -52 rrcurveto
          -85 -20 -35 -29 -38 hhcurveto
          endchar
        </CharString>
        <CharString name="atilde">
          66 callsubr
          58 55 -21 54 hstemhm
          27 79 24 46 133 46 -39 79 hintmask 1111010100000000
          285 650 rmoveto
          hintmask 1110111010000000
          -46 callsubr
          hintmask 1111010100000000
          -46 callgsubr
          hintmask 1111010010000000
          49 -684 -106 callgsubr
        </CharString>
        <CharString name="b">
          -94 -34 57 431 57 hstem
          55 70 203 80 vstem
          181 -34 rmoveto
          134 93 128 206 143 -53 68 -89 -58 -43 -27 -48 -32 hvcurveto
          7 98 10 100 14 82 rrcurveto
          3 -13 -9 2 -14 hhcurveto
          -20 -19 -2 -6 -16 hvcurveto
          -11 -89 -7 -162 -143 vvcurveto
          -47 0 -150 7 -111 vhcurveto
          -27 30 37 -18 52 hhcurveto
          5 57 rmoveto
          -25 -19 8 13 -15 hvcurveto
          -2 43 0 50 73 vvcurveto
          38 1 42 2 43 vhcurveto
          84 28 47 37 37 hhcurveto
          57 31 -47 -103 -153 -39 -128 -103 hvcurveto
          endchar
        </CharString>
        <CharString name="backslash">
          -78 -199 946 hstem
          7 491 vstem
          440 -199 rmoveto
          24 7 19 11 15 11 -130 227 -166 364 -139 326 -18 -6 -19 -10 -19 -16 128 -306 162 -335 143 -273 rrcurveto
          endchar
        </CharString>
        <CharString name="bar">
          -277 -170 896 hstem
          94 68 vstem
          114 -170 rmoveto
          16 -1 28 4 13 4 -9 202 -6 434 14 252 -27 3 -29 -5 -20 -10 -1 -280 5 -333 16 -270 rrcurveto
          endchar
        </CharString>
        <CharString name="bn_a">
          90 88 70 289 51 64 62 hstem
          196 58 126 54 69 66 vstem
          501 -21 rmoveto
          44 92 24 196 155 vvcurveto
          43 -1 40 -2 37 vhcurveto
          23 -4 23 -4 20 -4 rrcurveto
          2 8 3 12 0 14 0 10 -2 8 7 flex1
          19 -74 -116 16 -122 hhcurveto
          -128 -108 -16 -19 -84 -57 callgsubr
          -14 2 -12 -8 flex1
          17 86 105 15 126 hhcurveto
          64 61 -4 -7 56 hvcurveto
          3 -44 2 -42 -55 vvcurveto
          -151 -11 -126 -28 -95 vhcurveto
          -18 38 -22 36 -25 32 rrcurveto
          23 34 12 45 51 vvcurveto
          111 -55 113 -91 -56 -36 -52 -65 -24 5 -23 9 -17 vhcurveto
          -6 13 27 -5 23 hhcurveto
          -13 20 -6 27 22 vvcurveto
          45 15 27 31 49 31 -64 -90 -82 -28 167 callgsubr
          26 23 7 12 20 hvcurveto
          31 -31 27 -38 25 -45 rrcurveto
          -8 14 23 -6 20 hhcurveto
          endchar
        </CharString>
        <CharString name="bn_aa">
          324 83 70 288 52 72 63 hstem
          197 57 126 55 57 61 148 72 vstem
          783 -29 rmoveto
          -14 151 -2 173 23 190 12 18 25 16 39 11 5 17 1 30 -6 12 -45 -11 -42 -18 -25 -26 rrcurveto
          68 -75 -176 26 -153 hhcurveto
          -132 -126 -17 -22 -92 234 callgsubr
          rrcurveto
          19 95 122 16 130 hhcurveto
          55 62 -3 -7 57 hvcurveto
          -20 -88 -9 -146 -129 vvcurveto
          -54 1 -39 3 -31 vhcurveto
          -24 38 -27 32 -30 27 rrcurveto
          13 30 7 35 39 vvcurveto
          110 -56 114 -90 -56 -36 -52 -65 -24 5 -23 8 -17 vhcurveto
          -7 14 27 -4 23 hhcurveto
          -13 20 -7 27 22 vvcurveto
          44 16 27 31 48 31 -63 -90 -82 -27 167 callgsubr
          40 32 16 26 24 hvcurveto
          44 -36 41 -48 35 -60 rrcurveto
          24 28 4 11 18 hvcurveto
          -21 79 -5 127 94 vvcurveto
          92 6 93 13 66 vhcurveto
          80 -16 64 -27 10 -46 -22 -211 -1 -146 -2 -136 17 -1 38 1 27 6 rrcurveto
          endchar
        </CharString>
        <CharString name="bn_aakaar">
          -54 643 hstemhm
          -4 242 -141 62 hintmask 10100000
          138 -54 252 callsubr
          rrcurveto
          hintmask 11000000
          130 callsubr
          hintmask 10100000
          263 callsubr
          -6 17 38 -5 27 hhcurveto
          endchar
        </CharString>
        <CharString name="bn_aakaar.b">
          536 58 hstem
          97 62 vstem
          138 -54 252 callsubr
          13 17 24 15 37 10 5 17 2 30 -7 12 -42 -10 -39 -17 -25 -22 -21 38 -35 17 -30 -1 rrcurveto
          -11 -14 -1 -4 -16 hvcurveto
          -3 -7 -1 -11 125 callsubr
          5 18 10 1 8 hhcurveto
          32 25 -33 -57 4 hvcurveto
          -3 -205 -13 -151 -25 -133 rrcurveto
          -6 17 38 -5 27 hhcurveto
          endchar
        </CharString>
        <CharString name="bn_ai">
          109 240 callsubr
          63 42 hintmask 01111111
          431 -20 rmoveto
          19 23 186 callgsubr
          14 113 10 127 2 158 rrcurveto
          68 57 38 62 74 vvcurveto
          91 -56 47 -107 21 vhcurveto
          -71 13 -72 13 -33 20 -18 86 rlinecurve
          -14 -2 -21 -9 -17 -12 21 -119 62 -20 122 -20 rrcurveto
          98 -17 64 -12 -74 vvcurveto
          -47 -25 -44 -38 -30 vhcurveto
          6 0 6 6 142 callgsubr
          -63 callsubr
          hintmask 10111111
          -12 callgsubr
          hintmask 01111111
          159 callgsubr
          endchar
        </CharString>
        <CharString name="bn_aikaar">
          -282 -66 53 680 57 -41 58 hstemhm
          67 70 82 41 hintmask 10111000
          208 -66 -32 callsubr
          3 8 1 12 198 callgsubr
          -1 10 -83 callgsubr
          81 -10 -34 71 -74 hhcurveto
          hintmask 11011000
          -35 -42 -17 -31 hhcurveto
          -40 -23 32 35 -21 hvcurveto
          -13 -6 -20 -11 -12 -15 rrcurveto
          -53 30 35 342 callgsubr
          -50 -55 9 hvcurveto
          -37 -12 -25 -15 -15 -19 -32 23 -51 22 -59 12 rrcurveto
          -2 212 callsubr
          -11 2 -11 -9 flex1
          58 callgsubr
          endchar
        </CharString>
        <CharString name="bn_aikaar.init">
          -252 -66 53 680 57 -41 58 hstemhm
          50 71 128 41 hintmask 10111000
          194 -66 rmoveto
          38 36 24 41 24 hvcurveto
          104 callgsubr
          81 -10 -34 71 -74 hhcurveto
          hintmask 11011000
          -35 -42 -17 -32 hhcurveto
          -41 -22 32 35 -20 hvcurveto
          -13 -6 -20 -11 -13 -15 rrcurveto
          -53 30 36 342 callgsubr
          -49 -56 9 hvcurveto
          -134 -44 -65 -119 -199 vvcurveto
          -167 59 -115 85 vhcurveto
          endchar
        </CharString>
        <CharString name="bn_anusvar">
          -101 328 52 174 52 hstem
          80 55 177 55 vstem
          367 476 rmoveto
          76 -57 54 -79 -85 -65 -66 -82 -1 vhcurveto
          -76 58 -54 76 85 68 67 81 vhcurveto
          -232 hmoveto
          48 29 30 49 58 41 -36 -57 -49 -31 -32 -50 -55 -41 38 58 vhcurveto
          290 -489 rmoveto
          -85 154 -152 119 -134 52 -16 -20 -8 -20 -5 -25 124 -37 138 -107 94 -150 20 8 14 11 10 15 rrcurveto
          endchar
        </CharString>
        <CharString name="bn_au">
          183 242 callgsubr
          56 -50 58 39 42 hintmask 1111110110000000
          428 -20 rmoveto
          344 callsubr
          15 20 12 23 9 26 rrcurveto
          59 57 43 67 77 vvcurveto
          82 -48 55 -111 21 vhcurveto
          -67 13 -84 16 -30 20 -16 81 rlinecurve
          -14 -2 -22 -6 -17 -9 22 -125 59 -16 124 -22 rrcurveto
          100 -19 62 -14 -69 vvcurveto
          hintmask 1111111010000000
          -38 -18 -42 -29 -29 vhcurveto
          96 -7 -75 59 -99 hhcurveto
          -117 -92 -85 -133 2 hvcurveto
          83 callsubr
          hintmask 1111110110000000
          121 callsubr
          112 callsubr
        </CharString>
        <CharString name="bn_aukaar">
          606 -66 53 -5 176 callgsubr
          0 260 -193 70 149 81 -46 80 17 80 54 80 52 81 15 80 -44 81 -40 55 100 62 -11 40 hintmask 000000010000010000100000
          632 549 rmoveto
          26 -16 16 -25 -25 -14 -16 -26 -26 14 -15 25 26 15 15 26 vhcurveto
          423 -601 228 callsubr
          hintmask 000000010000000001010000
          -5 callsubr
          hintmask 000000010000000001100000
          56 callgsubr
          hintmask 000000010000010000100000
          -5 16 37 -4 28 hhcurveto
          hintmask 100000000100000000000000
          -847 -14 -18 callgsubr
          557 578 rmoveto
          25 -17 17 -25 -24 -15 -17 -25 -24 15 -15 24 25 17 15 285 callgsubr
          17 -25 -23 -16 -17 -25 -24 16 -15 23 25 16 15 24 vhcurveto
          hintmask 000001000001000100000000
          362 -96 rmoveto
          25 -14 16 -24 -24 -18 -18 -23 -23 18 -19 24 24 14 17 25 vhcurveto
          -459 -1 rmoveto
          26 -14 16 -24 -25 -17 -17 -24 -23 17 -19 25 22 16 18 23 vhcurveto
          hintmask 000010000010000010000000
          -34 -129 rmoveto
          25 -14 16 -26 -25 -16 -17 -24 -25 16 -17 25 26 14 17 25 vhcurveto
          530 hmoveto
          25 -15 16 -25 -24 -17 -17 -24 -24 17 -18 24 25 15 17 25 vhcurveto
          hintmask 000100000001000100000000
          -37 -130 rmoveto
          25 -14 16 -24 -24 -18 -18 -23 -25 18 -18 24 24 14 17 26 vhcurveto
          -459 hmoveto
          25 -15 16 -23 -25 -17 -17 -24 -25 17 -18 25 23 15 17 26 vhcurveto
          hintmask 001000000000101000000000
          364 -98 rmoveto
          25 -17 16 -25 -24 -15 -16 -25 -24 15 -16 24 25 17 16 285 callgsubr
          16 -25 -23 -16 -16 -25 -24 16 -16 23 25 305 callsubr
          -16 16 -25 -25 -14 -16 -26 -24 14 -16 25 25 16 16 24 vhcurveto
          endchar
        </CharString>
        <CharString name="bn_aumark">
          -52 974 hstemhm
          -58 55 100 62 -11 40 hintmask 11100000
          140 -52 228 callsubr
          hintmask 11010000
          -5 callsubr
          hintmask 11100000
          56 callgsubr
          -5 16 37 -4 28 hhcurveto
          endchar
        </CharString>
        <CharString name="bn_aumark_reph">
          -52 1042 hstemhm
          -58 55 100 62 -11 40 hintmask 11100000
          140 -52 228 callsubr
          hintmask 11010000
          13 17 24 15 37 10 rrcurveto
          3 9 1 12 -21 callsubr
          10 -1 17 callgsubr
          -18 -5 -18 -5 -16 -7 rrcurveto
          4 15 3 15 17 vvcurveto
          39 -16 34 -37 35 vhcurveto
          76 74 72 93 27 75 -6 9 -15 7 -13 5 -31 -76 -71 -88 -77 -67 -1 1 -2 1 -1 1 rrcurveto
          -56 41 -40 15 64 vvcurveto
          13 1 13 2 14 vhcurveto
          -16 1 -21 -2 -16 -5 rrcurveto
          -4 -17 -1 -15 -13 vvcurveto
          -79 37 -14 74 -56 vhcurveto
          -27 -20 -27 -17 -26 -12 12 -20 10 -17 16 -11 26 16 28 22 30 26 rrcurveto
          39 -33 14 -21 -27 vvcurveto
          -27 -12 -27 -16 -20 vhcurveto
          -32 27 -45 18 -43 10 rrcurveto
          hintmask 11100000
          56 callgsubr
          -5 16 37 -4 28 hhcurveto
          endchar
        </CharString>
        <CharString name="bn_avagraha">
          -99 177 63 117 47 104 50 hstem
          61 53 203 61 vstem
          181 404 rmoveto
          -43 -24 26 32 28 20 18 37 35 34 -17 -27 26 hvcurveto
          -36 -18 -26 -24 -41 hhcurveto
          242 -466 rmoveto
          15 15 14 16 11 17 -82 80 -85 64 -85 47 rrcurveto
          101 4 66 50 95 vvcurveto
          52 -20 52 -32 41 vhcurveto
          18 49 9 47 6 46 rrcurveto
          9 -14 -20 5 -17 hhcurveto
          -3 -26 -6 -41 -14 -47 rrcurveto
          28 -35 -42 17 -44 hhcurveto
          -58 -45 -31 -60 -69 60 -41 68 53 35 26 38 20 hvcurveto
          13 -24 7 -26 -27 vvcurveto
          -65 -45 -39 -81 -49 -58 13 24 -61 vhcurveto
          20 -85 106 callsubr
          rlinecurve
          endchar
        </CharString>
        <CharString name="bn_b_ba">
          260 569 63 hstemhm
          315 62 275 62 -33 122 hintmask 11100000
          418 569 rmoveto
          hintmask 11010000
          104 87 -8 -9 72 hvcurveto
          -3 -16 -2 -16 -3 -15 -115 -52 -118 -83 -63 -72 rrcurveto
          107 6 72 15 92 vhcurveto
          hintmask 11100000
          7 6 0 7 hhcurveto
          323 -573 303 callgsubr
          hintmask 11010000
          26 -4 23 -5 21 -4 rrcurveto
          -88 callgsubr
          20 -78 -131 23 -177 45 callsubr
          75 16 115 18 155 4 -4 -22 -3 -21 -3 -21 -120 -54 -121 -88 -61 -73 2 -27 8 -23 23 -26 -22 callgsubr
          -19 68 -6 104 -2 84 5 -13 8 -12 12 -14 rrcurveto
          hintmask 11100000
          107 -24 90 -71 71 -137 196 callgsubr
          -89 189 171 callgsubr
          -337 hmoveto
          142 callsubr
          -54 93 -76 58 -80 34 60 61 90 63 67 33 rrcurveto
          -7 -73 -3 -76 -87 vvcurveto
          endchar
        </CharString>
        <CharString name="bn_b_bha">
          353 callsubr
          0 603 -393 54 155 60 43 54 hintmask 11101110
          419 204 rmoveto
          -14 0 -13 -12 vvcurveto
          -54 87 -73 53 -75 32 59 54 90 54 68 31 rrcurveto
          -10 -85 -5 -85 -102 vvcurveto
          -45 -464 223 callsubr
          -4 -3 -4 -3 -4 -3 rrcurveto
          -8 68 1 83 62 vvcurveto
          99 6 64 13 81 vhcurveto
          hintmask 11110000
          40 -5 34 -5 31 -6 rrcurveto
          -59 callgsubr
          14 73 99 13 128 hhcurveto
          52 47 -2 -4 42 hvcurveto
          -116 -52 -125 -76 -59 -67 2 -25 7 -20 21 -24 rrcurveto
          hintmask 11101110
          100 -19 86 -62 64 -116 1 -16 1 -14 1 -12 rrcurveto
          -21 -36 -31 -12 44 callgsubr
          354 callsubr
        </CharString>
        <CharString name="bn_b_da">
          52 561 63 hstem
          320.5 47.5 117 60 vstem
          568 -51 rmoveto
          -15 68 -8 67 63 vvcurveto
          77 11 72 21 66 141 callsubr
          -70 rrcurveto
          18 86 8 100 84 260 callsubr
          86 -4 78 -11 62 -14 rrcurveto
          3 -34 callsubr
          20 -76 -106 15 -116 hhcurveto
          -117 -103 -15 -20 -76 158 callgsubr
          78 101 14 115 9 9 0 9 hhcurveto
          -8 -1 -8 -8 vvcurveto
          -98 -40 -129 -60 -55 -51 rrcurveto
          -23 9 -23 20 -21 vhcurveto
          86 -23 67 -50 32 -100 161 callsubr
          85 77 55 358 callsubr
          -63 7 -64 15 -61 vhcurveto
          20 3 24 7 17 10 rrcurveto
          -301 251 rmoveto
          -31 79 -59 51 -66 33 57 39 88 40 59 27 -8 -88 -17 -93 -23 -88 rrcurveto
          endchar
        </CharString>
        <CharString name="bn_b_da_ukaar">
          -66 callsubr
          115 18 119 hhcurveto
          14 14 0 -1 14 hvcurveto
          -3 -19 381 callgsubr
          -121 -54 -122 -88 -61 -74 2 -27 8 -23 23 -26 rrcurveto
          hintmask 11101100
          267 callsubr
        </CharString>
        <CharString name="bn_b_da_uukaar">
          -19 callsubr
          -16 -49 -21 -49 -23 rlinecurve
          4 49 5 45 9 51 rrcurveto
          hintmask 11000000
          5 callgsubr
          hintmask 10110000
          267 callsubr
        </CharString>
        <CharString name="bn_b_dha">
          37 561 63 hstemhm
          0 579 -239 56 -53 55 71 55 hintmask 10011000
          343 352 rmoveto
          -13 0 -12 -13 vvcurveto
          -36 -17 -38 -20 -37 -22 -35 23 -40 12 -39 14 62 61 100 63 61 25 rrcurveto
          1 -32 1 -34 -35 vvcurveto
          126 -206 rmoveto
          70 callsubr
          -33 -11 -35 -13 -34 -15 rlinecurve
          229 callgsubr
          hintmask 11000000
          75 -5 68 -11 55 -35 callgsubr
          191 callsubr
          3 -11 2 -13 2 -13 -111 -49 -124 -84 -54 -64 2 -24 7 -21 21 -23 38 -9 39 -6 34 -15 -46 -30 -40 -30 -27 -24 1 -24 9 -23 20 -20 77 -25 59 -56 37 -103 rrcurveto
          hintmask 10101000
          205 callsubr
          hintmask 10011000
          -6 -52 -3 -53 -52 vvcurveto
          hintmask 10101000
          -175 -203 43 callsubr
        </CharString>
        <CharString name="bn_b_ja">
          206 callsubr
          182 374 rmoveto
          -3 0 -4 -3 vvcurveto
          -32 27 -35 19 -40 12 38 24 51 21 45 19 rrcurveto
          -16 -38 -11 -41 -33 vvcurveto
          388 -387 -8 callsubr
          13 88 13 94 5 -86 -35 -105 -44 -45 -41 rrcurveto
          -26 7 -21 13 -19 vhcurveto
          82 -10 52 -21 51 -58 rrcurveto
          -25 23 32 -14 31 hhcurveto
          45 45 27 32 38 hvcurveto
          348 callsubr
          -94 -80 70 184 -44 vhcurveto
          -17 -7 -19 -8 -15 -10 rrcurveto
          -142 34 75 -156 159 41 callsubr
        </CharString>
        <CharString name="bn_b_la">
          -75 -235 63 149 67 -61 61 512 63 hstemhm
          -15 46 285 61 -43 133 hintmask 11011100
          1 callsubr
          -159 -423 rmoveto
          11 17 8 28 21 162 callsubr
          -60 -46 29 50 43 21 27 33 28 24 -23 -35 22 hvcurveto
          27 -45 rlineto
          hintmask 10111100
          21 5 18 8 13 9 -14 25 rcurveline
          -5 8 -1 6 7 vvcurveto
          23 14 18 21 32 32 -42 -143 15 vhcurveto
          1 -8 0 -8 1 -8 rrcurveto
          25 26 3 8 19 hvcurveto
          -25 138 -2 224 137 vvcurveto
          110 3 67 8 83 vhcurveto
          hintmask 10111010
          29 -4 27 -5 23 -100 callsubr
          30 30 -2 -3 30 hvcurveto
          -1 -17 -2 -16 -1 -16 2 callsubr
          93 -25 115 -71 32 -153 rrcurveto
          46 -18 -26 19 -31 hhcurveto
          -29 -27 -21 -40 -10 hvcurveto
          hintmask 11011100
          38 -27 -30 23 -35 hhcurveto
          -60 -41 -52 -76 -90 78 -63 94 2 hvcurveto
          endchar
        </CharString>
        <CharString name="bn_b_ra">
          -75 -174 63 -52 62 657 360 callsubr
          -43 133 hintmask 10111000
          1 callsubr
          hintmask 01111000
          182 callsubr
          -24 136 -2 223 134 vvcurveto
          110 3 67 8 83 vhcurveto
          hintmask 10110100
          29 -4 27 -5 23 -100 callsubr
          30 30 -2 -3 30 hvcurveto
          -1 -17 -2 -16 -1 -16 2 callsubr
          -17 callgsubr
          hintmask 01111000
          45 43 11 44 83 callgsubr
        </CharString>
        <CharString name="bn_b_ra_ukaar">
          102 -174 63 -52 62 253 66 177 61 107 360 callsubr
          192 52 hintmask 10111111
          1 callsubr
          hintmask 01111111
          182 callsubr
          -21 121 -4 191 -1 135 rrcurveto
          -56 29 42 -30 50 hhcurveto
          73 -75 callgsubr
          -42 -45 34 64 -23 hvcurveto
          1 98 3 64 8 83 7 callgsubr
          hintmask 10111111
          -17 callgsubr
          hintmask 01111111
          45 43 11 44 83 callgsubr
        </CharString>
        <CharString name="bn_b_ra_uukaar">
          102 -174 63 -52 62 664 360 callsubr
          116 55 hintmask 10111100
          1 callsubr
          hintmask 01111100
          182 callsubr
          -23 131 -3 212 135 vvcurveto
          40 19 43 18 42 15 rrcurveto
          -6 -37 -51 callgsubr
          -51 -16 -51 -19 -52 -23 rlinecurve
          1 85 3 61 8 76 7 callgsubr
          hintmask 10111100
          -17 callgsubr
          hintmask 01111100
          45 43 11 44 83 callgsubr
        </CharString>
        <CharString name="bn_ba">
          -75 -60 callsubr
          endchar
        </CharString>
        <CharString name="bn_ba.half">
          -75 235 callsubr
          -87 callsubr
          -89 141 rmoveto
          -32 1 -25 2 -20 vhcurveto
          -53 71 -71 47 -77 25 60 43 85 44 64 23 rrcurveto
          -7 -55 -4 -56 -65 vvcurveto
          endchar
        </CharString>
        <CharString name="bn_ba_phala">
          -542 -262 285 hstem
          -38 59 vstem
          37 -253 rmoveto
          -12 33 -4 46 46 vvcurveto
          39 8 47 10 49 vhcurveto
          -56 16 -99 -31 -97 -34 -52 -39 rlinecurve
          -25 6 -22 18 -23 vhcurveto
          84 -16 81 -27 46 -67 23 -2 26 1 18 9 rrcurveto
          -75 67 rmoveto
          -4 0 -3 -3 vvcurveto
          -37 40 -57 26 -58 21 47 27 62 26 52 14 rrcurveto
          -7 -50 -2 -51 -43 vvcurveto
          endchar
        </CharString>
        <CharString name="bn_bh_la">
          -24 -99 63 148 68 -62 62 87 59 232 63 hstemhm
          31 47 21 53 258 58 hintmask 11011101
          260 558 rmoveto
          96 115 -13 -15 47 hvcurveto
          17 callsubr
          15 58 107 13 95 hhcurveto
          -55 -657 rmoveto
          11 18 7 27 22 vvcurveto
          337 callsubr
          -60 -46 29 49 43 21 27 33 27 23 -21 -33 22 hvcurveto
          29 -49 rlineto
          hintmask 10111111
          21 6 19 8 13 9 -18 32 rcurveline
          -2 4 -1 4 5 vvcurveto
          24 14 17 21 35 31 -47 -161 11 vhcurveto
          21 27 1 8 19 hvcurveto
          14 120 10 141 172 287 callsubr
          -58 callgsubr
          -62 -9 -119 -11 -109 vhcurveto
          103 -18 -35 41 -46 hhcurveto
          -29 -26 -22 -39 -11 hvcurveto
          hintmask 11011101
          38 -27 -30 23 -35 hhcurveto
          -59 -43 -53 -76 -89 78 -63 96 2 hvcurveto
          endchar
        </CharString>
        <CharString name="bn_bh_ra">
          -24 -37 68 -36 65 207 59 232 276 callsubr
          hintmask 01110110
          260 558 rmoveto
          96 115 -13 -15 47 hvcurveto
          17 callsubr
          15 58 107 13 95 hhcurveto
          128 -642 244 callsubr
          117 9 140 169 287 callsubr
          -58 callgsubr
          -71 -7 -159 -16 -113 vhcurveto
          52 -20 -26 25 -44 hhcurveto
          hintmask 10111110
          34 callgsubr
          hintmask 01110110
          203 callsubr
        </CharString>
        <CharString name="bn_bh_ra_ukaar">
          192 -37 68 -36 65 92 66 49 59 69 61 107 276 callsubr
          190 52 hintmask 0111110111000000
          21 callgsubr
          11 89 7 103 4 119 rrcurveto
          -55 28 42 -30 49 hhcurveto
          74 -75 callgsubr
          -41 -44 32 61 -23 hvcurveto
          14 0 13 14 287 callsubr
          -58 callgsubr
          -71 -7 -159 -16 -113 vhcurveto
          52 -20 -26 25 -44 hhcurveto
          hintmask 1011111111000000
          34 callgsubr
          hintmask 0111110111000000
          203 callsubr
        </CharString>
        <CharString name="bn_bh_ra_uukaar">
          192 -37 68 -36 65 207 59 237 276 callsubr
          106 55 hintmask 01110111
          21 callgsubr
          14 116 9 138 167 vvcurveto
          39 18 39 18 37 15 rrcurveto
          -6 -36 -3 -37 -35 44 callsubr
          8 39 vhcurveto
          -29 52 -52 -16 -53 -24 -52 -25 rlinecurve
          -8 16 -9 13 -10 11 -58 callgsubr
          -71 -7 -159 -16 -113 vhcurveto
          52 -20 -26 25 -44 hhcurveto
          hintmask 10111111
          34 callgsubr
          hintmask 01110111
          203 callsubr
        </CharString>
        <CharString name="bn_bha">
          61 -20 72 202 59 244 63 hstemhm
          0 603 -391 53 259 55 hintmask 11101100
          300 557 rmoveto
          hintmask 11110000
          128 100 -13 -14 75 hvcurveto
          -59 callgsubr
          hintmask 11101100
          14 73 99 13 128 hhcurveto
          76 -577 rmoveto
          126 77 88 138 60 -14 64 -22 49 hvcurveto
          -12 13 -18 14 -13 8 rrcurveto
          -64 -70 -51 -37 -53 hhcurveto
          -36 -25 18 33 36 34 31 61 15 hvcurveto
          -8 24 -21 20 -19 7 rrcurveto
          -48 -17 -52 -42 -64 vvcurveto
          -70 62 -50 71 61 51 36 47 51 vhcurveto
          10 -33 6 -39 -39 vvcurveto
          -116 -55 -58 -92 -129 -99 114 289 -80 vhcurveto
          -18 -7 -17 -10 -17 -11 rrcurveto
          -212 57 96 -235 206 hhcurveto
          endchar
        </CharString>
        <CharString name="bn_bha.half">
          61 139 60 144 47 167 63 hstemhm
          0 603 -391 53 259 55 hintmask 11101100
          300 557 rmoveto
          hintmask 11110000
          128 100 -13 -14 75 hvcurveto
          -59 callgsubr
          hintmask 11101100
          14 73 99 13 128 hhcurveto
          76 -418 rmoveto
          126 77 66 103 44 -14 48 -22 37 hvcurveto
          -13 11 -19 10 -14 7 rrcurveto
          -47 -71 -51 -28 -52 hhcurveto
          -34 -24 13 22 28 34 22 61 12 hvcurveto
          -9 19 -24 15 -21 7 rrcurveto
          -45 -12 -49 -34 -49 vvcurveto
          -52 62 -38 72 60 51 26 35 52 vhcurveto
          9 -24 6 -29 -28 vvcurveto
          -82 -54 -42 -91 -129 -101 82 212 -79 vhcurveto
          -19 -5 -17 -7 -17 -8 rrcurveto
          -158 57 96 -176 206 hhcurveto
          endchar
        </CharString>
        <CharString name="bn_bisarga">
          -109 0 53 163 54 58 52 174 52 hstemhm
          80 55 -50 53 169 53 -48 55 hintmask 11111001
          367 476 rmoveto
          76 -58 54 -79 -84 -66 -66 -82 -76 58 -54 76 84 68 67 81 1 vhcurveto
          -232 hmoveto
          48 29 30 49 57 42 -36 -57 -49 -32 -32 -49 -55 -41 38 58 vhcurveto
          hintmask 11110110
          225 -336 rmoveto
          74 -57 56 -76 -80 -62 -63 -79 -74 57 -54 74 81 63 62 78 vhcurveto
          -222 4 rmoveto
          44 29 28 46 56 38 -39 -53 -45 -29 -26 -45 -55 -40 38 53 vhcurveto
          endchar
        </CharString>
        <CharString name="bn_c_ca">
          199 -20 51 25 45 468 63 hstemhm
          61 57 247 60 -17 62.5 163.5 69 hintmask 10111010
          308 424 rmoveto
          -57 25 -60 37 -27 71 rrcurveto
          hintmask 10110110
          7 61 71 5 82 10 10 0 10 hhcurveto
          -8 -50 -12 -83 -9 -83 rrcurveto
          hintmask 10111010
          -8 35 -25 20 -38 16 rrcurveto
          395 -140 rmoveto
          61 -27 30 -50 23 vhcurveto
          hintmask 11110110
          -63 29 -65 44 -28 89 rrcurveto
          2 1 2 2 vvcurveto
          117 -6 88 -17 65 -13 rrcurveto
          2 7 3 319 callsubr
          138 callgsubr
          19 -73 -124 24 -167 hhcurveto
          -174 -127 -23 -20 -76 -101 callgsubr
          27 6 32 6 38 6 rrcurveto
          -14 -89 -22 -156 -92 vvcurveto
          -123 63 -32 55 vhcurveto
          hintmask 11111010
          84 75 78 98 30 hvcurveto
          -2 -28 -1 -26 -22 vvcurveto
          hintmask 10111010
          -141 67 -35 58 115 98 150 154 vhcurveto
          hintmask 11111010
          -534 -183 rmoveto
          -34 -17 22 62 71 14 134 17 111 hvcurveto
          23 -52 46 -38 44 -21 rrcurveto
          37 -18 17 -12 -33 vvcurveto
          -109 -74 -117 -73 vhcurveto
          hintmask 10111010
          311 -70 93 callgsubr
          18 -14 -38 vvcurveto
          -124 -78 -132 -76 vhcurveto
          endchar
        </CharString>
        <CharString name="bn_c_ch_ba">
          217 56 45 -5 65 314 callsubr
          251 62 131 63 -40 63 33 62 hintmask 1011110110000000
          53 callsubr
          hintmask 1011111010000000
          155 -137 rmoveto
          -21 -11 10 22 64 4 75 7 63 hvcurveto
          27 -45 38 -30 54 -15 callsubr
          hintmask 0111110110000000
          416 -264 rmoveto
          -4 0 -4 -3 vvcurveto
          -38 40 -58 27 -59 250 callsubr
          -11 33 -4 349 callsubr
          33 -33 34 -37 17 14 15 15 12 17 -80 330 callsubr
          104 9 79 275 callgsubr
          -70 14 -60 25 -40 58 139 -3 102 -21 71 -15 -26 callsubr
          hintmask 1011111010000000
          47 callgsubr
          hintmask 0111110110000000
          253 callgsubr
          15 -82 46 -20 44 -25 43 -29 rlinecurve
          -84 -25 -76 -31 -43 -33 -1 -25 7 -23 18 -22 85 -16 84 -27 46 -67 236 callsubr
          endchar
        </CharString>
        <CharString name="bn_c_ch_ra">
          217 -195 63 -47 63 172 45 -5 65 314 callsubr
          116 57 78 62 131 63 -21 55 22 62 hintmask 0110111110100000
          53 callsubr
          hintmask 0110111111000000
          155 -137 rmoveto
          -21 -11 10 22 64 4 75 7 62 hvcurveto
          26 -44 38 -30 55 -15 callsubr
          hintmask 0101111110100000
          485 -327 rmoveto
          2 53 0 60 3 65 32 -29 31 -31 32 -35 17 14 15 15 12 17 -80 330 callsubr
          hintmask 0101111110110000
          104 9 79 275 callgsubr
          -69 13 -61 26 -40 58 139 -3 103 -22 70 -14 -26 callsubr
          hintmask 0110111111010000
          47 callgsubr
          hintmask 0101111110110000
          253 callgsubr
          15 -82 rlineto
          hintmask 0110111110100000
          64 -28 60 -36 57 -45 -4 -60 -3 -58 -3 -53 rrcurveto
          41 -26 -36 17 -48 hhcurveto
          hintmask 1010111110100000
          -49 -48 -16 -39 hhcurveto
          -32 -25 16 37 23 10 26 9 18 hvcurveto
          -12 10 -16 5 -21 1 rrcurveto
          -14 -28 -13 -32 -34 vvcurveto
          -60 39 -45 70 vhcurveto
          hintmask 0110111110100000
          47 54 16 47 hhcurveto
          61 22 -33 -25 20 hvcurveto
          hintmask 0101111110100000
          20 -1 21 3 19 9 rrcurveto
          endchar
        </CharString>
        <CharString name="bn_c_cha">
          217 56 45 -6 66 314 callsubr
          251 62 131 63 56 62 hintmask 10111101
          53 callsubr
          490 -521 rmoveto
          hintmask 01111101
          -80 78 -80 64 -83 50 rrcurveto
          106 8 82 53 106 234 callsubr
          -69 13 -61 26 -40 58 139 -3 103 -22 70 -14 -26 callsubr
          hintmask 10111111
          47 callgsubr
          hintmask 01111101
          253 callgsubr
          16 -86 119 -53 108 -77 103 -115 rlinecurve
          hintmask 10111101
          17 14 15 15 12 17 rrcurveto
          hintmask 10111111
          -335 384 rmoveto
          -21 -11 10 22 64 4 75 7 62 hvcurveto
          26 -44 38 -30 55 -15 callsubr
          endchar
        </CharString>
        <CharString name="bn_c_nya">
          279 -201 73 -31 70 -32 61 63 50 -4 65 12 39 38 49 -14 60 56 51 164 63 hstemhm
          31 61 -45 60 59 73 20 67 138 62 43 37 128 50 -44 50 hintmask 001101101101111101000000
          147 252 rmoveto
          -27 -13 15 44 49 11 94 14 77 hvcurveto
          18 -36 34 -26 34 -15 rrcurveto
          29 -12 12 -9 -23 vvcurveto
          -34 -11 -35 -18 -29 vhcurveto
          -8 -9 -7 -10 -7 -10 rrcurveto
          -19 -19 -21 -12 -21 hhcurveto
          523 -312 rmoveto
          -48 -58 31 59 -43 hvcurveto
          hintmask 001101011101101110000000
          2 37 1 38 1 40 rrcurveto
          64 43 54 29 50 hhcurveto
          39 23 -19 -29 -20 -5 -18 -10 -19 hvcurveto
          20 -17 -26 12 -27 hhcurveto
          -47 -33 -35 -45 -49 34 -33 44 hvcurveto
          hintmask 001101011101101101000000
          30 27 18 28 22 hvcurveto
          8 -15 6 -18 -16 vvcurveto
          hintmask 001101101101111101000000
          -31 -22 -29 -48 vhcurveto
          hintmask 010101011101101110000000
          -29 113 rmoveto
          -21 -14 14 21 22 19 16 24 19 18 -10 -15 13 hvcurveto
          -1 vlineto
          -1 vlineto
          -33 -20 -18 -13 -20 hhcurveto
          -202 -303 rmoveto
          19 22 3 7 19 hvcurveto
          hintmask 001101011101101101000000
          8 63 6 68 5 75 rrcurveto
          -47 35 60 -40 64 hhcurveto
          65 48 42 67 37 -13 31 -24 30 hvcurveto
          hintmask 001101011101111110000000
          19 29 12 36 38 vvcurveto
          71 -54 38 -62 -55 -52 -30 -40 -35 vhcurveto
          8 0 9 9 vvcurveto
          91 -61 60 -69 -23 -24 -7 -11 -24 vhcurveto
          1 5 0 6 5 vvcurveto
          44 -18 23 -37 14 vhcurveto
          -38 15 -39 21 -24 36 rrcurveto
          8 74 89 5 103 hhcurveto
          175 124 -22 -17 86 hvcurveto
          2 7 3 319 callsubr
          138 callgsubr
          20 -78 -130 23 -178 hhcurveto
          -201 -146 -20 -23 -88 -101 callgsubr
          21 4 24 5 26 4 rrcurveto
          -11 -64 -13 -93 -57 vvcurveto
          hintmask 010011101101101110000000
          -99 56 -27 49 7 6 0 1 6 vhcurveto
          -3 -14 -2 -14 -14 vvcurveto
          -72 49 -41 65 32 31 10 20 23 vhcurveto
          8 14 3 19 16 vvcurveto
          11 -1 10 -4 6 vhcurveto
          -17 -16 -26 -24 -37 hhcurveto
          -31 -23 17 39 32 15 34 22 31 hvcurveto
          3 4 3 4 4 4 rrcurveto
          43 34 48 32 38 hhcurveto
          34 24 -28 -49 -153 -9 -172 -17 -127 hvcurveto
          57 -23 -29 29 -49 hhcurveto
          hintmask 100101011110101110000000
          -57 -69 -39 -52 hhcurveto
          -36 -31 19 52 31 11 45 18 30 hvcurveto
          -13 9 -15 6 -23 1 rrcurveto
          -21 -40 -18 -52 -47 vvcurveto
          -73 44 -54 74 vhcurveto
          hintmask 010101011101101110000000
          64 77 42 54 hhcurveto
          58 14 -46 -45 23 hvcurveto
          endchar
        </CharString>
        <CharString name="bn_c_ra">
          -105 -195 63 -46 63 95 51 523 63 hstemhm
          -35 56 -21 437 -374 61 188 47 -27 69 hintmask 0111101010000000
          179 31 93 callgsubr
          17 -14 -38 vvcurveto
          -124 -78 -132 -75 vhcurveto
          hintmask 0111101100000000
          124 -266 136 callgsubr
          8 115 3 123 4 130 rrcurveto
          hintmask 0111101010000000
          17 43 10 48 49 vvcurveto
          61 -26 30 -51 23 vhcurveto
          -60 28 -64 43 -29 83 rrcurveto
          1 18 18 1 16 hhcurveto
          hintmask 0111010000000000
          -1 callsubr
          hintmask 0111101100000000
          225 callsubr
          46 43 23 38 35 vhcurveto
          -3 -77 -3 -71 -5 -65 rrcurveto
          38 -25 -30 19 -45 hhcurveto
          hintmask 1011101100000000
          -44 -43 -17 -34 hhcurveto
          -33 -26 18 38 23 10 26 9 18 hvcurveto
          9 -12 -16 6 -20 hhcurveto
          -14 -27 -13 -32 -34 vvcurveto
          -62 37 -46 69 vhcurveto
          hintmask 0111101100000000
          44 50 17 43 hhcurveto
          56 16 -33 -24 23 hvcurveto
          endchar
        </CharString>
        <CharString name="bn_ca">
          -105 -20 51 523 268 callgsubr
          284 rmoveto
          61 -26 30 -51 23 vhcurveto
          -60 28 -64 43 -29 83 rrcurveto
          1 18 18 1 16 hhcurveto
          hintmask 11100000
          -1 callsubr
          hintmask 11011000
          225 callsubr
          116 97 150 154 vhcurveto
          -222 -253 93 callgsubr
          17 -14 -38 vvcurveto
          -124 -78 -132 -75 vhcurveto
          endchar
        </CharString>
        <CharString name="bn_ca.half">
          -105 138 41 375 268 callgsubr
          363 rmoveto
          45 -26 22 -51 18 vhcurveto
          -57 19 -60 29 -31 57 rrcurveto
          1 16 16 0 15 hhcurveto
          hintmask 11100000
          -1 callsubr
          hintmask 11011000
          27 6 36 6 39 5 rrcurveto
          -16 -76 -23 -128 -75 vvcurveto
          -104 68 -26 57 116 97 111 114 vhcurveto
          -222 -184 rmoveto
          -36 -19 17 51 60 15 113 18 93 hvcurveto
          25 -46 47 -34 47 -18 rrcurveto
          39 -16 17 -9 -29 vvcurveto
          -88 -78 -94 -75 vhcurveto
          endchar
        </CharString>
        <CharString name="bn_ch_ba">
          -50 96 65 79 47 271 63 hstemhm
          68 64 131 62 -39 63 32 62 hintmask 11111010
          163 132 callgsubr
          hintmask 11110110
          123 -450 rmoveto
          -4 0 -4 -3 vvcurveto
          -38 41 -59 26 -58 250 callsubr
          -12 33 -3 349 callsubr
          34 -33 33 -37 17 14 14 15 12 17 -79 330 callsubr
          218 callgsubr
          31 32 1 30 -50 callsubr
          29 5 32 5 rrcurveto
          -8 -64 -6 -75 -76 vvcurveto
          -57 51 -34 53 vhcurveto
          hintmask 11111010
          79 64 70 91 10 hvcurveto
          147 callgsubr
          15 -82 46 -20 44 -25 43 -28 rlinecurve
          -83 -26 -77 -31 -43 -33 -1 -25 7 -23 19 -22 rrcurveto
          hintmask 11110110
          85 -16 83 -27 47 -67 236 callsubr
          endchar
        </CharString>
        <CharString name="bn_ch_ra">
          -50 -171 72 195 65 79 47 271 63 hstemhm
          -21 57 31 64 131 62 -20 55 21 62 hintmask 1111111000000000
          162 132 callgsubr
          hintmask 1111110100000000
          192 -513 rmoveto
          1 53 1 60 3 65 32 -29 31 -31 32 -35 17 14 14 15 12 17 -79 330 callsubr
          hintmask 1111111010000000
          218 callgsubr
          32 32 1 30 -50 callsubr
          28 5 32 4 rrcurveto
          -8 -63 -6 -75 -76 vvcurveto
          -57 51 -34 53 79 64 70 91 10 vhcurveto
          147 callgsubr
          15 -82 rlineto
          hintmask 1111110100000000
          64 -28 60 -36 58 -45 -4 -59 -4 -59 -1 -52 rrcurveto
          51 -26 -27 180 callgsubr
          -12 -28 -14 -32 -34 vvcurveto
          -60 38 302 callgsubr
          19 -1 22 3 19 9 rrcurveto
          endchar
        </CharString>
        <CharString name="bn_cha">
          -50 95 66 79 47 271 63 hstem
          68 64 131 62 56 62 vstem
          163 287 rmoveto
          -20 -11 10 22 58 3 69 5 58 hvcurveto
          26 -36 41 -23 55 -13 107 callgsubr
          -50 vhcurveto
          292 -430 rmoveto
          17 14 14 251 callgsubr
          -60 76 -66 42 vhcurveto
          -68 14 -66 18 -38 49 rrcurveto
          3 36 37 2 34 -50 callsubr
          28 5 32 5 rrcurveto
          -7 -63 -6 -75 -77 vvcurveto
          -57 51 -34 53 79 64 70 91 10 vhcurveto
          147 callgsubr
          16 -86 120 -53 107 -77 104 -115 rlinecurve
          endchar
        </CharString>
        <CharString name="bn_cha.half">
          -50 218 52 51 39 198 63 hstem
          68 64 249 62 vstem
          163 360 rmoveto
          -20 -11 8 16 42 3 50 5 42 hvcurveto
          26 -28 40 -19 54 -10 rrcurveto
          -4 vlineto
          -51 -48 -46 -49 vhcurveto
          292 -312 rmoveto
          17 10 14 11 12 11 -76 56 -76 46 -77 36 rrcurveto
          99 7 75 40 78 vvcurveto
          67 -60 54 -66 31 vhcurveto
          -68 10 -65 13 -38 35 rrcurveto
          3 35 37 2 34 -50 callsubr
          28 5 32 4 rrcurveto
          -8 -45 -5 -53 -55 vvcurveto
          -45 51 -26 52 78 63 51 66 13 vhcurveto
          33 -22 23 -27 -34 vvcurveto
          -57 -60 -28 -77 -38 -45 5 13 -53 vhcurveto
          16 -62 120 -39 107 -56 104 -83 rlinecurve
          endchar
        </CharString>
        <CharString name="bn_chandrabindu">
          -542 668 58 69 90 hstem
          -38 87 vstem
          49 838 rmoveto
          26 -19 21 -25 -23 -20 -19 -24 -25 19 -22 25 25 18 19 24 vhcurveto
          98 -27 rmoveto
          -38 13 rlineto
          -56 -14 -37 -42 -52 hhcurveto
          -45 -34 34 38 -11 hvcurveto
          -54 -19 rlineto
          -60 10 53 -51 74 hhcurveto
          76 59 61 82 13 hvcurveto
          endchar
        </CharString>
        <CharString name="bn_currency1">
          -18 -20 591 hstem
          61 446 199 callsubr
          -76 -231 -137 -173 -181 -116 rrcurveto
          endchar
        </CharString>
        <CharString name="bn_currency16">
          0 170 58 299 58 hstem
          68 47 275 48 vstem
          438 408 rmoveto
          108 -57 69 -110 -137 -66 -131 -106 -108 58 -70 110 137 65 131 107 vhcurveto
          -323 -56 rmoveto
          99 61 76 93 67 54 -36 -88 -99 -59 -76 -95 -66 -55 36 88 vhcurveto
          endchar
        </CharString>
        <CharString name="bn_currency2">
          -18 204 64 113 63 hstem
          12 49 175 47 199 callsubr
          -41 -126 -60 -109 -75 -91 rrcurveto
          3 13 1 13 12 vvcurveto
          106 -72 55 -76 -73 -50 -47 -68 -74 55 -51 73 22 18 5 5 5 vhcurveto
          265 callsubr
          34 37 28 21 45 47 55 -38 -68 -59 -39 -63 -76 -60 hvcurveto
          -19 -15 -20 -14 -21 -13 rrcurveto
          endchar
        </CharString>
        <CharString name="bn_currency3">
          -18 -15 52 405 48 hstemhm
          29 68 -21 64 143 65 hintmask 11011000
          208 442 rmoveto
          46 29 -31 -40 hvcurveto
          hintmask 11101000
          -148 -254 28 -145 vvcurveto
          -65 52 -56 115 193 100 226 342 69 vhcurveto
          -17 8 -18 7 -17 3 rrcurveto
          -319 -67 -105 -215 -145 hhcurveto
          -48 -44 20 44 hvcurveto
          94 251 -11 183 vvcurveto
          71 -66 52 -81 vhcurveto
          hintmask 11011000
          -76 -49 -53 -71 -22 4 -17 5 -5 hvcurveto
          17 -3 29 -3 22 1 rrcurveto
          -8 11 -5 22 23 vvcurveto
          44 21 25 47 vhcurveto
          endchar
        </CharString>
        <CharString name="bn_currency4">
          -277 -81 676 hstem
          61 58 vstem
          148 -81 rmoveto
          -19 83 -10 124 136 vvcurveto
          125 8 102 7 106 vhcurveto
          -51 -10 rlineto
          -21 -193 -1 -129 -202 vvcurveto
          -41 3 -37 1 -35 vhcurveto
          endchar
        </CharString>
        <CharString name="bn_currencyless">
          -63 -19 641 hstem
          339 callsubr
          vstem
          356 -19 289 callsubr
          8 rrcurveto
          54 callgsubr
          vvcurveto
          33 -1 33 -2 30 vhcurveto
          -46 -7 -1 -144 -22 -176 -44 -149 rlinecurve
          26 callgsubr
          endchar
        </CharString>
        <CharString name="bn_d_ba">
          -21 443 57 57 63 hstemhm
          0 521 -403 51 232 52 hintmask 11011000
          453 344 rmoveto
          105 -52 51 -57 -59 -73 -56 -74 -64 vhcurveto
          14 58 7 63 53 4 0 3 2 vvcurveto
          2 35 36 2 37 hhcurveto
          hintmask 11100000
          103 91 -13 -14 50 hvcurveto
          2 7 3 13 0 14 0 9 -2 216 callgsubr
          -46 -94 14 -100 hhcurveto
          -108 -110 -14 -17 -63 hvcurveto
          -3 -7 137 callsubr
          -14 2 -11 -7 flex1
          hintmask 11011000
          31 7 41 6 46 5 -5 -95 -26 -110 -42 -95 15 -19 25 -17 22 -5 rrcurveto
          104 64 121 132 67 hhcurveto
          28 14 -21 -37 -23 -1 -24 -2 -25 hvcurveto
          -97 -38 -127 -78 -55 -52 1 -23 10 -23 19 -21 80 -25 62 -56 40 -101 rrcurveto
          -6 17 27 -5 25 hhcurveto
          35 100 18 220 139 vvcurveto
          -106 -397 rmoveto
          -32 83 -59 56 -66 34 58 46 89 52 55 24 -7 -114 -14 -98 -24 -83 rrcurveto
          endchar
        </CharString>
        <CharString name="bn_d_bh_ra">
          61 -221 63 -28 62 90 49 542 63 hstemhm
          67 56 87 54 -43 48 144 57 hintmask 01111011
          521 -256 289 callsubr
          9 -16 109 -3 114 -23 83 -12 10 -18 11 -13 7 -7 -5 -8 -6 -7 -5 rrcurveto
          -5 37 -1 35 34 vvcurveto
          90 21 82 26 80 -29 callgsubr
          hintmask 01111101
          -21 -35 -31 -11 -32 hhcurveto
          -36 -25 15 27 31 31 26 59 12 hvcurveto
          -8 20 -19 16 -18 5 rrcurveto
          -48 -13 -51 -35 -53 vvcurveto
          -59 63 -41 72 54 46 23 33 47 vhcurveto
          10 -75 6 -58 6 -71 rrcurveto
          39 -27 -39 19 -55 hhcurveto
          hintmask 10111011
          -62 -87 -34 -57 hhcurveto
          -35 -29 19 45 29 12 39 16 291 callgsubr
          -21 1 rrcurveto
          -18 -33 -16 -46 -41 vvcurveto
          -65 43 -49 70 vhcurveto
          hintmask 01111011
          71 89 35 61 hhcurveto
          72 27 -31 -39 21 hvcurveto
          endchar
        </CharString>
        <CharString name="bn_d_bha">
          353 callsubr
          210 54 -43 48 144 60 49 54 hintmask 11101110
          374 -260 223 callsubr
          -6 -4 -5 -4 -5 -4 rrcurveto
          -6 38 -3 37 35 vvcurveto
          87 19 80 25 77 -29 callgsubr
          hintmask 11110110
          -21 -35 -31 -11 44 callgsubr
          hintmask 11101110
          354 callsubr
        </CharString>
        <CharString name="bn_d_d_ba">
          104 563 63 hstem
          112 50 96 68 173 60 vstem
          599 -229 rmoveto
          -24 99 -16 92 88 vvcurveto
          84 16 74 33 69 vhcurveto
          -14 24 -19 18 -26 12 -71 -43 -87 -44 -65 -77 12 98 34 95 37 75 -16 callgsubr
          88 89 97 92 67 -35 -77 -32 -105 -3 -112 16 -22 23 -15 20 -5 42 71 90 63 85 52 rrcurveto
          -14 -42 -11 -48 -6 -51 -78 -42 -81 -60 -47 -40 2 -22 6 -19 18 -21 86 -15 72 -47 56 -86 23 4 21 7 18 10 rrcurveto
          -100 250 rmoveto
          -64 8 -65 12 -64 vhcurveto
          -42 53 -55 35 -59 21 40 33 54 39 42 26 rrcurveto
          -5 0 -4 -5 vvcurveto
          endchar
        </CharString>
        <CharString name="bn_d_da">
          104 563 63 hstem
          112 50 79 68 190 60 vstem
          583 -139 rmoveto
          -17 66 -7 64 59 vvcurveto
          83 17 73 32 68 vhcurveto
          -14 24 -19 18 -26 12 -81 -50 -84 -73 -75 -103 13 123 41 119 46 91 -16 callgsubr
          89 91 99 94 67 -46 -95 -42 -134 -3 -143 14 -20 26 -17 21 -5 49 90 90 100 93 66 rrcurveto
          -22 -63 -13 -76 -78 vvcurveto
          -60 7 -62 15 -59 vhcurveto
          22 4 22 7 18 10 rrcurveto
          endchar
        </CharString>
        <CharString name="bn_d_dh_ba">
          79 451 57 55 63 hstemhm
          118 49 195 55 -29 53 70 55 hintmask 11110100
          444 -213 rmoveto
          -21 56 -6 94 67 vvcurveto
          107 6 76 13 96 vhcurveto
          29 13 29 12 27 10 rrcurveto
          -7 -56 -3 -55 -54 vvcurveto
          -88 9 -82 18 -75 vhcurveto
          23 27 6 11 16 hvcurveto
          -27 79 -11 84 86 vvcurveto
          54 5 56 8 55 vhcurveto
          -36 53 rlineto
          hintmask 11101100
          -34 -11 -34 -13 -34 -15 rrcurveto
          104 -50 51 -56 -57 -68 -52 -70 -61 vhcurveto
          12 52 6 56 60 1 0 1 1 vvcurveto
          4 43 47 2 52 63 callgsubr
          8 45 5 -4 -92 -28 -108 -43 -94 14 -19 24 -16 21 -5 rrcurveto
          103 64 118 131 67 hhcurveto
          25 12 -21 -37 -22 0 -18 -1 -17 hvcurveto
          -95 -43 -121 -80 -54 -50 1 -22 9 -24 19 -21 34 -9 31 -15 25 -20 -38 -25 -33 -24 -24 -21 2 -23 6 -18 18 -22 rrcurveto
          hintmask 11110100
          86 -14 72 -48 56 -85 rrcurveto
          21 25 5 10 17 hvcurveto
          -174 286 rmoveto
          -23 28 -28 21 -32 16 54 44 80 52 61 32 -7 -47 -5 -45 -3 -46 -32 -16 -33 -19 -32 -20 rrcurveto
          92 -65 rmoveto
          -60 2 -57 5 -49 vhcurveto
          -42 58 -59 37 -61 22 46 36 65 42 46 25 rrcurveto
          -1 -17 -1 -18 -19 vvcurveto
          endchar
        </CharString>
        <CharString name="bn_d_dha">
          79 443 57 63 63 hstemhm
          117 51 212 59 -51 53 71 55 hintmask 11101100
          512 142 rmoveto
          -88 9 -84 17 -76 vhcurveto
          23 27 5 11 16 hvcurveto
          -26 81 -11 83 87 vvcurveto
          53 4 53 8 53 vhcurveto
          -36 52 -34 -11 -34 -13 -34 -14 rlinecurve
          3 0 4 3 vvcurveto
          105 -50 51 -56 -56 -69 -53 -72 -61 vhcurveto
          12 59 7 62 57 1 0 2 1 vvcurveto
          4 43 47 2 51 63 callgsubr
          7 44 6 -4 -95 -26 -111 -43 -96 14 -20 25 -17 21 -5 rrcurveto
          104 63 119 132 65 hhcurveto
          25 12 -22 -37 -22 0 -24 -2 -24 hvcurveto
          -97 -44 -116 -75 -56 -51 1 -23 9 -24 19 -20 78 -24 59 -57 37 -103 rrcurveto
          hintmask 11110100
          -5 17 26 -6 24 hhcurveto
          30 83 17 164 5 135 28 13 28 11 26 10 rrcurveto
          hintmask 11101100
          -6 -52 -3 -53 -51 vvcurveto
          hintmask 11110100
          -176 -199 rmoveto
          -30 85 -56 58 -63 34 54 42 79 50 60 31 -6 -117 -14 -98 -24 -85 rrcurveto
          endchar
        </CharString>
        <CharString name="bn_d_ga">
          345 413 56 81 69 -62 63 hstemhm
          339 callsubr
          55 298 callgsubr
          69 60 hintmask 10111111
          770 57 callgsubr
          hintmask 11011111
          94 -30 -58 61 -81 hhcurveto
          -52 -41 -21 -34 -27 hvcurveto
          1 vlineto
          hintmask 10111111
          9 -1 9 -3 6 vhcurveto
          17 -44 -97 14 -86 hhcurveto
          -95 -99 -14 -17 -58 10 callgsubr
          -14 -8 flex1
          330 callgsubr
          -4 -126 336 callgsubr
          129 callgsubr
          54 callgsubr
          9 0 10 9 282 callgsubr
          81 85 -11 -12 51 hvcurveto
          -10 -22 -5 -24 -26 68 callsubr
          hintmask 11011111
          94 callgsubr
          hintmask 10111111
          -6 19 26 -4 25 hhcurveto
          endchar
        </CharString>
        <CharString name="bn_d_gha">
          345 333 40 190 63 hstem
          339 callsubr
          46 61 235 64 vstem
          418 hmoveto
          54 callgsubr
          9 0 8 9 vvcurveto
          7 82 96 4 96 hhcurveto
          23 24 0 -1 23 hvcurveto
          -44 -34 -21 -36 -47 96 callsubr
          65 13 84 vhcurveto
          26 -4 23 -4 21 -4 rrcurveto
          3 8 2 -59 callsubr
          24 -99 -176 13 -176 hhcurveto
          -172 -168 -14 -23 -96 -75 callsubr
          31 6 38 6 43 5 -4 -126 -26 -147 -37 -128 129 callgsubr
          256 342 127 callgsubr
          -28 -33 -33 -10 -21 hhcurveto
          -37 -28 29 40 40 28 42 87 35 hvcurveto
          50 -2 47 -4 43 -4 rrcurveto
          -14 -119 -6 -106 -121 174 callsubr
          endchar
        </CharString>
        <CharString name="bn_d_ma">
          222 -100 60 99 48 462 63 hstemhm
          100 47 -20 50 88 63 163 64 hintmask 11101110
          424 435 rmoveto
          -15 24 -18 18 -26 12 -72 -43 -74 -62 -69 -83 rrcurveto
          18 83 9 88 54 11 0 11 10 vvcurveto
          7 59 68 4 78 hhcurveto
          48 44 -2 -2 40 hvcurveto
          -16 -108 -7 -131 -126 vvcurveto
          -149 13 -93 14 -67 vhcurveto
          -51 71 -84 57 -55 31 11 110 33 171 52 104 rrcurveto
          118 -651 264 callsubr
          140 3 47 10 89 vhcurveto
          81 -8 65 -12 50 -10 rrcurveto
          -88 callgsubr
          20 -76 -131 23 -176 hhcurveto
          -175 -122 -22 -21 -84 -101 callgsubr
          35 8 42 8 50 6 -5 -116 -26 -131 -44 -121 13 -20 26 -17 21 -6 51 90 92 99 94 67 -35 -82 -28 -124 -13 -109 rrcurveto
          hintmask 11110110
          17 -19 -28 8 -29 hhcurveto
          326 callsubr
          14 hvcurveto
          95 -49 73 -51 56 -105 rrcurveto
          hintmask 11101110
          216 callsubr
          hintmask 11110110
          -344 176 188 callgsubr
        </CharString>
        <CharString name="bn_d_na">
          20 -166 63 114 64 482 63 hstemhm
          0 562 -402 48 -12 47 172 60 hintmask 11100110
          332 -157 rmoveto
          4 17 2 29 22 vvcurveto
          hintmask 11101010
          209 callsubr
          20 46 80 69 -74 -93 23 hvcurveto
          1 -3 0 -3 1 -3 237 callsubr
          9 rrcurveto
          -27 118 -16 111 105 vvcurveto
          81 13 75 21 70 vhcurveto
          -16 25 -17 17 -26 12 rrcurveto
          hintmask 11100110
          -77 -47 -81 -69 -74 -94 rrcurveto
          17 86 8 98 83 10 0 11 10 vvcurveto
          10 9 0 10 hhcurveto
          hintmask 11110000
          71 callgsubr
          hintmask 11100110
          49 11 71 10 76 4 -4 -128 -26 -150 -39 -131 15 -14 30 -11 23 -4 55 94 97 104 96 68 rrcurveto
          -17 -64 -11 -78 -82 vvcurveto
          -57 5 -59 7 -57 vhcurveto
          57 -40 -54 32 -53 hhcurveto
          hintmask 11101010
          -70 -50 -48 -69 -73 54 -51 73 hvcurveto
          hintmask 11100110
          23 17 383 callsubr
          endchar
        </CharString>
        <CharString name="bn_d_ra">
          20 -55 64 -27 64 511 63 hstemhm
          -13 56 -43 562 -366 47 172 60 hintmask 01110110
          132 callsubr
          81 13 75 21 70 vhcurveto
          124 callgsubr
          10 0 11 10 vvcurveto
          10 9 0 10 hhcurveto
          hintmask 01101000
          71 callgsubr
          hintmask 01110110
          49 11 71 10 76 4 -4 -128 -26 -150 -39 -131 15 -14 30 -11 23 -4 55 94 97 104 96 68 rrcurveto
          -17 -64 -11 -78 -82 vvcurveto
          -52 5 -54 8 -53 vhcurveto
          31 -27 -36 15 -49 hhcurveto
          hintmask 10110110
          34 callsubr
          hintmask 01110110
          203 callgsubr
        </CharString>
        <CharString name="bn_d_ra_ukaar">
          218 -55 64 -27 64 106 66 177 61 107 379 callsubr
          210 51 hintmask 0111111110000000
          132 callsubr
          27 1 26 3 26 vhcurveto
          -75 28 47 -41 59 hhcurveto
          73 50 68 92 89 -47 55 -58 179 callgsubr
          -35 -42 -48 -46 -47 39 74 -21 hvcurveto
          6 29 7 28 8 27 124 callgsubr
          260 callsubr
          3 41 43 1 43 hhcurveto
          149 152 -13 -20 89 hvcurveto
          3 8 2 -59 callsubr
          21 -85 -152 22 callsubr
          hintmask 1011111110000000
          34 callsubr
          hintmask 0111111110000000
          203 callgsubr
        </CharString>
        <CharString name="bn_d_ra_uukaar">
          218 -55 64 -27 64 517 379 callsubr
          131 55 hintmask 01111110
          132 callsubr
          30 2 30 3 28 vhcurveto
          45 22 46 21 44 18 rrcurveto
          -6 -36 -3 -37 -35 44 callsubr
          9 39 vhcurveto
          -30 52 -50 -16 -52 -23 -50 -23 rlinecurve
          4 21 6 21 6 20 124 callgsubr
          260 callsubr
          3 41 43 1 43 hhcurveto
          148 153 -13 -20 89 hvcurveto
          3 8 2 -59 callsubr
          21 -86 -151 22 callsubr
          hintmask 10111110
          34 callsubr
          hintmask 01111110
          203 callgsubr
        </CharString>
        <CharString name="bn_da">
          -63 557 63 hstem
          339 callsubr
          vstem
          418 hmoveto
          -16 70 -8 67 62 vvcurveto
          77 12 73 21 66 vhcurveto
          -3 callsubr
          129 callgsubr
          endchar
        </CharString>
        <CharString name="bn_da.half">
          -63 557 63 hstemhm
          0 479 -367 49 173 60 hintmask 10110000
          418 155 rmoveto
          -16 52 -8 49 47 vvcurveto
          57 12 54 21 49 vhcurveto
          -16 18 -18 12 -26 9 -77 -35 -80 -51 -75 -70 rrcurveto
          17 64 9 74 61 3 0 3 3 282 callgsubr
          hintmask 11000000
          89 95 -13 -14 48 hvcurveto
          3 8 1 14 -21 callsubr
          9 -1 17 callgsubr
          17 -44 -97 14 -86 hhcurveto
          -95 -99 -14 -17 -58 10 callgsubr
          -14 -8 flex1
          hintmask 10110000
          330 callgsubr
          -6 -91 -25 -104 -36 -91 14 -10 31 -9 23 -2 54 69 96 77 97 50 rrcurveto
          -16 -45 -10 -55 -57 vvcurveto
          -46 7 -49 15 -46 vhcurveto
          20 3 24 5 18 7 rrcurveto
          endchar
        </CharString>
        <CharString name="bn_da_ukaar">
          -63 -256 56 94 58 605 63 hstemhm
          45 50 17 49 193 25.71 hintmask 11101100
          414 -279 rmoveto
          15 13 11 17 7 17 -127 90 rcurveline
          68 148 -17 257 56 152 -3 callsubr
          15 -15 30 -10 23 -4 54 92 93 102 94 68 -42 -142 11 -226 -55 -124 rrcurveto
          36 -32 -40 29 -49 hhcurveto
          hintmask 11111100
          -56 -46 -39 -67 -65 46 -37 63 64 44 26 43 32 hvcurveto
          -144 -13 rmoveto
          -33 -22 19 28 29 22 18 33 37 31 -24 -27 23 hvcurveto
          -27 -22 -29 -16 -40 hhcurveto
          endchar
        </CharString>
        <CharString name="bn_da_uukaar">
          -63 -256 56 167 59 529 63 hstem
          28 50 34 49 vstem
          447 -232 rmoveto
          -179 113 rlineto
          -51 -28 -36 -30 -46 hhcurveto
          -48 -32 33 49 53 48 32 68 59 50 -28 -33 32 hvcurveto
          45 153 -3 224 50 132 9 callsubr
          9 0 9 9 vvcurveto
          1 17 18 1 18 hhcurveto
          91 2 97 -11 53 -12 rrcurveto
          18 3 9 7 12 vvcurveto
          1 10 -1 10 -1 8 -38 18 -81 14 -80 2 -94 2 -96 -12 -67 -14 -18 -6 -11 -9 -1 -9 rrcurveto
          -11 1 -12 3 -10 vhcurveto
          29 5 39 4 45 4 -4 -127 336 callgsubr
          15 -15 30 -10 23 -4 53 92 94 101 94 68 -32 -105 2 -161 -23 -124 rrcurveto
          25 -31 -34 13 -50 hhcurveto
          -87 -71 -53 -92 -88 57 -49 77 60 40 21 40 30 hvcurveto
          122 -84 15 13 11 17 7 17 rlinecurve
          endchar
        </CharString>
        <CharString name="bn_danda">
          44 -100 695 hstem
          381 59 vstem
          469 -81 rmoveto
          18 callgsubr
          endchar
        </CharString>
        <CharString name="bn_dd_dda">
          455 -20 70 194 60 253 67 hstem
          222 56 375 56 213 54 vstem
          790 50 rmoveto
          -102 -85 67 168 -65 hvcurveto
          -8 43 -13 39 -16 32 -14 9 -18 7 -15 3 rrcurveto
          -62 -47 -45 -52 -34 hhcurveto
          -31 -19 21 40 49 22 73 20 70 hvcurveto
          58 3 62 1 67 63 59 -1 56 hflex1
          -16 -61 -16 -67 -48 vvcurveto
          -67 46 -70 71 56 43 45 48 39 vhcurveto
          339 callgsubr
          -110 -47 -62 -85 vhcurveto
          -2 -70 rmoveto
          38 callgsubr
          -33 hhcurveto
          -31 -20 21 40 49 21 71 21 69 hvcurveto
          95 -5 82 -9 69 -10 3 callgsubr
          20 -119 -163 15 -208 hhcurveto
          -219 -164 -14 -21 -124 hvcurveto
          -3 -7 -2 -10 0 -9 0 -12 2 -12 -9 flex1
          72 10 83 8 98 6 rrcurveto
          -16 -61 -15 -65 -47 -86 callgsubr
          107 66 73 112 13 hvcurveto
          -106 53 76 -79 116 hhcurveto
          endchar
        </CharString>
        <CharString name="bn_dd_ra">
          24 -188 63 -37 63 79 288 callsubr
          hstemhm
          -6 57 -51 566 -344 56 118 51 44 54 hintmask 0111110111000000
          391 -219 136 callgsubr
          4 67 2 72 3 76 rrcurveto
          57 36 32 70 92 vvcurveto
          73 -18 69 -26 52 vhcurveto
          -14 9 -18 7 -15 3 rrcurveto
          -62 -47 -45 -52 -34 hhcurveto
          -31 -19 21 40 50 22 74 21 72 hvcurveto
          hintmask 1011101000000000
          100 -3 81 -12 64 -64 callgsubr
          hintmask 0111110111000000
          65 16 82 13 108 2 rrcurveto
          -17 -63 -16 -68 -49 -86 callgsubr
          14 13 1 2 12 hvcurveto
          -2 -49 -2 -48 -3 -43 137 callgsubr
          hintmask 1011110111000000
          30 callgsubr
          382 callsubr
          -67 43 -49 76 vhcurveto
          hintmask 0111110111000000
          57 65 26 56 83 callgsubr
        </CharString>
        <CharString name="bn_dda">
          24 -20 288 callsubr
          hstemhm
          0 566 -344 56 213 54 hintmask 11101100
          357 -20 rmoveto
          0 callsubr
          22 74 21 72 hvcurveto
          hintmask 11110000
          100 -3 81 -12 64 -64 callgsubr
          hintmask 11101100
          65 16 82 13 108 2 rrcurveto
          -17 -63 -16 -68 -49 -86 callgsubr
          endchar
        </CharString>
        <CharString name="bn_dda.half">
          24 140 299 callsubr
          209 58 hintmask 11101100
          97 callgsubr
          hintmask 11110000
          101 -3 82 -12 65 -64 callgsubr
          hintmask 11101100
          51 callsubr
          endchar
        </CharString>
        <CharString name="bn_ddh_ra">
          327 callgsubr
          hstemhm
          -23 57 -34 260 callgsubr
          160 51 16 72 hintmask 1111101100000000
          324 callgsubr
          hintmask 1111101110000000
          46 52 32 67 66 vvcurveto
          -99 callgsubr
          -25 27 51 vvcurveto
          151 11 170 19 125 vhcurveto
          1 20 21 1 21 hhcurveto
          hintmask 1111010000000000
          -66 callgsubr
          hintmask 1111101100000000
          -8 callgsubr
        </CharString>
        <CharString name="bn_ddha">
          -66 -20 301 callsubr
          227 72 hintmask 11101100
          440 250 rmoveto
          -99 callgsubr
          -25 27 51 vvcurveto
          151 11 170 19 125 vhcurveto
          1 20 21 1 21 hhcurveto
          hintmask 11110000
          -66 callgsubr
          hintmask 11101100
          -10 callsubr
          163 callsubr
          vhcurveto
          endchar
        </CharString>
        <CharString name="bn_ddha.half">
          -53 callgsubr
          endchar
        </CharString>
        <CharString name="bn_dh_ba">
          279 556 63 hstemhm
          31 62 238 62 277 62 -34 123 hintmask 11110000
          759 -4 303 callgsubr
          hintmask 11101000
          25 -4 24 -4 21 -5 rrcurveto
          3 8 2 11 0 14 0 9 -1 -19 callgsubr
          16 -55 -77 14 -86 hhcurveto
          -102 -79 -29 -31 -38 hvcurveto
          -20 -17 -9 -21 24 callsubr
          103 -24 88 -77 69 -146 196 callgsubr
          -14 70 -4 107 -1 86 5 -16 8 -14 14 -16 rrcurveto
          hintmask 11110000
          107 -24 90 -71 71 -137 196 callgsubr
          -358 468 rmoveto
          2 27 4 21 20 12 rrcurveto
          hintmask 11101000
          19 31 37 13 104 hhcurveto
          32 35 -2 -4 32 hvcurveto
          -2 -15 -3 -15 -2 -15 -117 -53 -118 -84 -63 -72 rrcurveto
          hintmask 11110000
          59 4 56 4 53 vhcurveto
          269 -279 171 callgsubr
          -339 -4 152 callgsubr
        </CharString>
        <CharString name="bn_dh_na">
          -61 -100 64 112 63 418 62 hstemhm
          31 62 -30 49 219 62 hintmask 11101100
          331 181 rmoveto
          -37 1 -31 2 -26 vhcurveto
          -54 95 -77 60 -78 36 188 callsubr
          -95 -271 rmoveto
          265 callsubr
          33 37 28 21 45 83 75 -90 -85 17 hvcurveto
          19 21 2 7 19 hvcurveto
          -24 162 -2 103 117 vvcurveto
          63 4 56 4 53 vhcurveto
          2 23 1 9 18 11 14 8 17 7 28 8 -61 callsubr
          -41 -8 -33 -13 -22 -15 -22 -13 -8 -19 -4 -28 rrcurveto
          -3 -1 -2 -3 vvcurveto
          232 callsubr
          hintmask 11110100
          -93 callsubr
          80 -19 73 -47 61 -84 rrcurveto
          38 -35 -41 23 -38 hhcurveto
          hintmask 11101100
          -68 -50 -47 -68 -73 55 -51 73 22 18 5 5 5 hvcurveto
          endchar
        </CharString>
        <CharString name="bn_dh_ra">
          -61 -54 68 -31 64 510 277 callgsubr
          hintmask 10101100
          111 callgsubr
          49 67 26 rrcurveto
          -6 -67 -4 -73 -82 vvcurveto
          hintmask 01101100
          256 callgsubr
          -23 161 -2 102 115 vvcurveto
          63 4 56 4 53 vhcurveto
          2 23 1 9 18 11 14 8 17 7 28 8 -61 callsubr
          -41 -8 -33 -13 -22 -15 -22 -13 -8 -19 24 callsubr
          97 -23 86 -64 68 -122 rrcurveto
          19 -18 -21 9 -28 hhcurveto
          hintmask 10110100
          36 callsubr
          hintmask 01101100
          202 callsubr
        </CharString>
        <CharString name="bn_dh_ra_ukaar">
          106 -54 68 -31 64 100 67 176 62 105 277 callgsubr
          180 51 hintmask 1011101110000000
          111 callgsubr
          48 67 27 194 callgsubr
          hintmask 0111101110000000
          256 callgsubr
          -17 122 -6 89 -1 86 rrcurveto
          -42 27 37 -22 43 hhcurveto
          73 50 110 callgsubr
          8 18 315 callgsubr
          -35 -42 -48 -36 -37 24 46 -24 hvcurveto
          2 0 3 3 vvcurveto
          62 3 56 5 53 vhcurveto
          2 22 11 12 28 3 37 5 34 -1 30 2 31 2 29 12 45 10 114 callgsubr
          -41 286 callgsubr
          -28 2 -42 -5 -40 -5 -33 -17 -7 -46 rrcurveto
          -1 vlineto
          232 callsubr
          -93 callsubr
          97 -23 86 -64 68 -122 rrcurveto
          19 -18 -21 9 -28 hhcurveto
          hintmask 1011110110000000
          36 callsubr
          hintmask 0111101110000000
          202 callsubr
        </CharString>
        <CharString name="bn_dh_ra_uukaar">
          106 -54 68 -31 64 510 277 callgsubr
          110 55 hintmask 10101110
          111 callgsubr
          48 67 27 194 callgsubr
          hintmask 01101110
          256 callgsubr
          -21 144 -3 96 -1 101 41 20 39 20 39 16 rrcurveto
          -6 -37 -3 -35 321 callgsubr
          16 -58 vhcurveto
          24 27 3 10 16 hvcurveto
          -26 61 -11 349 callgsubr
          -48 -15 -50 -25 -50 -24 rlinecurve
          1 50 3 45 4 44 2 22 11 12 28 3 37 5 34 -1 30 2 31 2 29 12 45 10 114 callgsubr
          -41 286 callgsubr
          -28 2 -42 -5 -40 -5 -33 -17 -7 -46 rrcurveto
          -1 vlineto
          232 callsubr
          -93 callsubr
          97 -23 86 -64 68 -122 rrcurveto
          19 -18 -21 9 -28 hhcurveto
          hintmask 10110110
          36 callsubr
          hintmask 01101110
          202 callsubr
        </CharString>
        <CharString name="bn_dha">
          -61 557 62 hstem
          31 62 238 62 vstem
          412 -4 rmoveto
          -16 79 -3 128 89 vvcurveto
          63 4 56 4 53 vhcurveto
          2 23 1 9 18 11 14 8 17 7 28 8 -61 callsubr
          -41 -8 -33 -13 -22 -15 -22 -13 -8 -19 24 callsubr
          103 -24 88 -77 69 -146 196 callgsubr
          -81 185 152 callgsubr
        </CharString>
        <CharString name="bn_dha.half">
          -61 573 46 hstem
          31 62 238 62 vstem
          412 152 rmoveto
          -16 60 -3 95 67 vvcurveto
          48 0 -10 4 53 vhcurveto
          2 23 3 7 20 12 14 8 17 7 28 8 -61 callsubr
          -41 -8 -33 -13 -22 -15 -15 -9 -10 -10 -6 -14 -40 -12 -40 -13 -38 -15 rrcurveto
          -8 -23 -22 -6 -22 hhcurveto
          -37 -39 19 37 33 22 18 32 34 25 -19 -26 3 hvcurveto
          21 5 22 14 11 13 rrcurveto
          34 -17 -45 25 -49 hhcurveto
          -75 -46 -40 -49 -49 48 -33 60 -10 hvcurveto
          -36 -18 -32 -19 -23 -18 2 -20 8 -18 23 -19 103 -18 88 -57 69 -111 rrcurveto
          25 27 3 9 19 hvcurveto
          -81 138 rmoveto
          -34 1 -26 1 -21 vhcurveto
          -53 78 -73 50 -78 29 60 37 87 35 66 20 rrcurveto
          -9 -64 -2 -27 -77 vvcurveto
          endchar
        </CharString>
        <CharString name="bn_doubledanda">
          294 -100 695 hstem
          381 59 191 59 vstem
          719 -81 rmoveto
          18 callgsubr
          -250 hmoveto
          18 callgsubr
          endchar
        </CharString>
</ttFont>
